G04 ---------------------------- Layer name :TOP LAYER*
G04 EasyEDA v5.8.22, Tue, 04 Dec 2018 17:39:39 GMT*
G04 4fbf827f123344ad86e77e575569ff78*
G04 Gerber Generator version 0.2*
G04 Scale: 100 percent, Rotated: No, Reflected: No *
G04 Dimensions in millimeters *
G04 leading zeros omitted , absolute positions ,3 integer and 3 decimal *
%FSLAX33Y33*%
%MOMM*%
G90*
G71D02*

%ADD11C,0.200000*%
%ADD12C,0.399999*%
%ADD13C,0.280010*%
%ADD14C,1.999996*%
%ADD15C,0.619760*%
%ADD16C,0.999998*%
%ADD17R,0.406400X0.350520*%
%ADD19R,0.899998X0.799998*%
%ADD20R,0.350520X0.406400*%
%ADD21R,1.999996X0.999998*%
%ADD22R,1.905000X0.990600*%
%ADD23R,1.193800X0.990600*%
%ADD24R,1.099998X0.999998*%

%LPD*%
G36*
G01X12999Y0D02*
G01X0Y0D01*
G01X0Y11999D01*
G01X12999Y11999D01*
G01X12999Y2893D01*
G01X12988Y2917D01*
G01X12983Y2926D01*
G01X12960Y2970D01*
G01X12955Y2979D01*
G01X12929Y3021D01*
G01X12923Y3030D01*
G01X12895Y3071D01*
G01X12889Y3079D01*
G01X12859Y3119D01*
G01X12853Y3126D01*
G01X12821Y3165D01*
G01X12814Y3172D01*
G01X12780Y3209D01*
G01X12773Y3216D01*
G01X12738Y3251D01*
G01X12730Y3257D01*
G01X12693Y3290D01*
G01X12685Y3297D01*
G01X12646Y3328D01*
G01X12638Y3334D01*
G01X12598Y3363D01*
G01X12590Y3369D01*
G01X12548Y3396D01*
G01X12539Y3401D01*
G01X12496Y3426D01*
G01X12487Y3431D01*
G01X12443Y3453D01*
G01X12434Y3458D01*
G01X12389Y3478D01*
G01X12379Y3482D01*
G01X12333Y3500D01*
G01X12324Y3504D01*
G01X12276Y3520D01*
G01X12267Y3522D01*
G01X12219Y3536D01*
G01X12209Y3538D01*
G01X12160Y3550D01*
G01X12151Y3552D01*
G01X12105Y3560D01*
G01X12105Y5124D01*
G01X12104Y5144D01*
G01X12103Y5164D01*
G01X12100Y5184D01*
G01X12097Y5204D01*
G01X12092Y5223D01*
G01X12087Y5242D01*
G01X12081Y5261D01*
G01X12080Y5263D01*
G01X12080Y5328D01*
G01X12080Y5337D01*
G01X12079Y5347D01*
G01X12078Y5356D01*
G01X12076Y5366D01*
G01X12074Y5375D01*
G01X12072Y5384D01*
G01X12069Y5393D01*
G01X12066Y5402D01*
G01X12062Y5411D01*
G01X12058Y5419D01*
G01X12053Y5428D01*
G01X12048Y5436D01*
G01X12043Y5444D01*
G01X12037Y5451D01*
G01X12031Y5459D01*
G01X12025Y5466D01*
G01X12018Y5472D01*
G01X12011Y5479D01*
G01X12004Y5485D01*
G01X11996Y5491D01*
G01X11988Y5496D01*
G01X11980Y5501D01*
G01X11972Y5505D01*
G01X11963Y5510D01*
G01X11954Y5513D01*
G01X11945Y5517D01*
G01X11936Y5520D01*
G01X11927Y5522D01*
G01X11918Y5524D01*
G01X11908Y5526D01*
G01X11899Y5527D01*
G01X11889Y5527D01*
G01X11880Y5528D01*
G01X11529Y5528D01*
G01X11520Y5527D01*
G01X11510Y5527D01*
G01X11501Y5526D01*
G01X11492Y5524D01*
G01X11482Y5522D01*
G01X11473Y5520D01*
G01X11464Y5517D01*
G01X11455Y5513D01*
G01X11446Y5510D01*
G01X11438Y5505D01*
G01X11429Y5501D01*
G01X11421Y5496D01*
G01X11413Y5491D01*
G01X11406Y5485D01*
G01X11398Y5479D01*
G01X11391Y5472D01*
G01X11385Y5466D01*
G01X11378Y5459D01*
G01X11372Y5451D01*
G01X11367Y5444D01*
G01X11361Y5436D01*
G01X11356Y5428D01*
G01X11352Y5419D01*
G01X11348Y5411D01*
G01X11344Y5402D01*
G01X11340Y5393D01*
G01X11338Y5384D01*
G01X11335Y5375D01*
G01X11333Y5366D01*
G01X11331Y5356D01*
G01X11330Y5347D01*
G01X11330Y5337D01*
G01X11329Y5328D01*
G01X11329Y5263D01*
G01X11329Y5261D01*
G01X11322Y5242D01*
G01X11317Y5223D01*
G01X11313Y5204D01*
G01X11309Y5184D01*
G01X11307Y5164D01*
G01X11305Y5144D01*
G01X11305Y5124D01*
G01X11305Y3574D01*
G01X10865Y3574D01*
G01X10774Y3665D01*
G01X10774Y5930D01*
G01X10798Y5961D01*
G01X10824Y6004D01*
G01X10847Y6050D01*
G01X10864Y6098D01*
G01X10877Y6148D01*
G01X10884Y6198D01*
G01X10887Y6249D01*
G01X10884Y6300D01*
G01X10877Y6351D01*
G01X10864Y6400D01*
G01X10847Y6448D01*
G01X10824Y6494D01*
G01X10798Y6538D01*
G01X10767Y6579D01*
G01X10732Y6616D01*
G01X10694Y6650D01*
G01X10652Y6680D01*
G01X10608Y6705D01*
G01X10562Y6726D01*
G01X10513Y6743D01*
G01X10463Y6754D01*
G01X10413Y6760D01*
G01X10362Y6762D01*
G01X10311Y6758D01*
G01X10260Y6749D01*
G01X10211Y6735D01*
G01X10164Y6717D01*
G01X10118Y6693D01*
G01X10075Y6665D01*
G01X10035Y6634D01*
G01X9999Y6598D01*
G01X9966Y6559D01*
G01X9937Y6517D01*
G01X9926Y6496D01*
G01X9926Y10318D01*
G01X9930Y10320D01*
G01X9938Y10324D01*
G01X9946Y10330D01*
G01X9953Y10336D01*
G01X9961Y10342D01*
G01X9968Y10348D01*
G01X9974Y10355D01*
G01X9981Y10362D01*
G01X9987Y10369D01*
G01X9993Y10377D01*
G01X9998Y10385D01*
G01X10003Y10393D01*
G01X10007Y10401D01*
G01X10012Y10410D01*
G01X10015Y10418D01*
G01X10019Y10427D01*
G01X10022Y10436D01*
G01X10024Y10446D01*
G01X10026Y10455D01*
G01X10028Y10464D01*
G01X10029Y10474D01*
G01X10029Y10483D01*
G01X10030Y10493D01*
G01X10030Y10843D01*
G01X10029Y10852D01*
G01X10029Y10862D01*
G01X10028Y10871D01*
G01X10026Y10881D01*
G01X10024Y10890D01*
G01X10022Y10899D01*
G01X10019Y10908D01*
G01X10015Y10917D01*
G01X10012Y10926D01*
G01X10007Y10934D01*
G01X10003Y10943D01*
G01X9998Y10951D01*
G01X9993Y10959D01*
G01X9987Y10966D01*
G01X9981Y10974D01*
G01X9974Y10981D01*
G01X9968Y10988D01*
G01X9961Y10994D01*
G01X9956Y10998D01*
G01X9961Y11002D01*
G01X9968Y11008D01*
G01X9974Y11015D01*
G01X9981Y11022D01*
G01X9986Y11028D01*
G01X10299Y11028D01*
G01X10299Y10548D01*
G01X10300Y10538D01*
G01X10300Y10529D01*
G01X10302Y10519D01*
G01X10303Y10510D01*
G01X10305Y10500D01*
G01X10308Y10491D01*
G01X10310Y10482D01*
G01X10314Y10473D01*
G01X10318Y10465D01*
G01X10322Y10456D01*
G01X10326Y10448D01*
G01X10331Y10439D01*
G01X10337Y10432D01*
G01X10342Y10424D01*
G01X10348Y10417D01*
G01X10355Y10410D01*
G01X10361Y10403D01*
G01X10369Y10396D01*
G01X10376Y10390D01*
G01X10383Y10385D01*
G01X10391Y10379D01*
G01X10399Y10374D01*
G01X10408Y10370D01*
G01X10416Y10366D01*
G01X10425Y10362D01*
G01X10434Y10359D01*
G01X10443Y10356D01*
G01X10452Y10353D01*
G01X10462Y10351D01*
G01X10471Y10350D01*
G01X10480Y10349D01*
G01X10490Y10348D01*
G01X10499Y10348D01*
G01X12499Y10348D01*
G01X12509Y10348D01*
G01X12518Y10349D01*
G01X12528Y10350D01*
G01X12537Y10351D01*
G01X12547Y10353D01*
G01X12556Y10356D01*
G01X12565Y10359D01*
G01X12574Y10362D01*
G01X12583Y10366D01*
G01X12591Y10370D01*
G01X12599Y10374D01*
G01X12608Y10379D01*
G01X12615Y10385D01*
G01X12623Y10390D01*
G01X12630Y10396D01*
G01X12637Y10403D01*
G01X12644Y10410D01*
G01X12651Y10417D01*
G01X12657Y10424D01*
G01X12662Y10432D01*
G01X12668Y10439D01*
G01X12673Y10448D01*
G01X12677Y10456D01*
G01X12681Y10465D01*
G01X12685Y10473D01*
G01X12688Y10482D01*
G01X12691Y10491D01*
G01X12694Y10500D01*
G01X12696Y10510D01*
G01X12697Y10519D01*
G01X12699Y10529D01*
G01X12699Y10538D01*
G01X12699Y10548D01*
G01X12699Y11548D01*
G01X12699Y11557D01*
G01X12699Y11567D01*
G01X12697Y11576D01*
G01X12696Y11585D01*
G01X12694Y11595D01*
G01X12691Y11604D01*
G01X12688Y11613D01*
G01X12685Y11622D01*
G01X12681Y11631D01*
G01X12677Y11639D01*
G01X12673Y11648D01*
G01X12668Y11656D01*
G01X12662Y11664D01*
G01X12657Y11671D01*
G01X12651Y11679D01*
G01X12644Y11686D01*
G01X12637Y11692D01*
G01X12630Y11699D01*
G01X12623Y11705D01*
G01X12615Y11711D01*
G01X12608Y11716D01*
G01X12599Y11721D01*
G01X12591Y11725D01*
G01X12583Y11730D01*
G01X12574Y11733D01*
G01X12565Y11737D01*
G01X12556Y11740D01*
G01X12547Y11742D01*
G01X12537Y11744D01*
G01X12528Y11746D01*
G01X12518Y11747D01*
G01X12509Y11747D01*
G01X12499Y11748D01*
G01X10499Y11748D01*
G01X10490Y11747D01*
G01X10480Y11747D01*
G01X10471Y11746D01*
G01X10462Y11744D01*
G01X10452Y11742D01*
G01X10443Y11740D01*
G01X10434Y11737D01*
G01X10425Y11733D01*
G01X10416Y11730D01*
G01X10408Y11725D01*
G01X10399Y11721D01*
G01X10391Y11716D01*
G01X10383Y11711D01*
G01X10376Y11705D01*
G01X10369Y11699D01*
G01X10361Y11692D01*
G01X10355Y11686D01*
G01X10348Y11679D01*
G01X10342Y11671D01*
G01X10337Y11664D01*
G01X10331Y11656D01*
G01X10326Y11648D01*
G01X10322Y11639D01*
G01X10318Y11631D01*
G01X10316Y11628D01*
G01X9986Y11628D01*
G01X9981Y11634D01*
G01X9974Y11641D01*
G01X9968Y11648D01*
G01X9961Y11655D01*
G01X9953Y11661D01*
G01X9946Y11666D01*
G01X9938Y11672D01*
G01X9930Y11677D01*
G01X9921Y11681D01*
G01X9913Y11685D01*
G01X9904Y11689D01*
G01X9895Y11692D01*
G01X9886Y11695D01*
G01X9877Y11698D01*
G01X9868Y11700D01*
G01X9858Y11701D01*
G01X9849Y11702D01*
G01X9839Y11703D01*
G01X9830Y11703D01*
G01X9423Y11703D01*
G01X9414Y11703D01*
G01X9404Y11702D01*
G01X9395Y11701D01*
G01X9385Y11700D01*
G01X9376Y11698D01*
G01X9367Y11695D01*
G01X9358Y11692D01*
G01X9349Y11689D01*
G01X9340Y11685D01*
G01X9332Y11681D01*
G01X9323Y11677D01*
G01X9315Y11672D01*
G01X9307Y11666D01*
G01X9300Y11661D01*
G01X9292Y11655D01*
G01X9285Y11648D01*
G01X9279Y11641D01*
G01X9272Y11634D01*
G01X9266Y11627D01*
G01X9260Y11619D01*
G01X9255Y11612D01*
G01X9250Y11603D01*
G01X9246Y11595D01*
G01X9241Y11586D01*
G01X9238Y11578D01*
G01X9234Y11569D01*
G01X9231Y11560D01*
G01X9229Y11551D01*
G01X9227Y11541D01*
G01X9225Y11532D01*
G01X9224Y11522D01*
G01X9224Y11513D01*
G01X9223Y11503D01*
G01X9223Y11153D01*
G01X9224Y11143D01*
G01X9224Y11134D01*
G01X9225Y11124D01*
G01X9227Y11115D01*
G01X9229Y11106D01*
G01X9231Y11097D01*
G01X9234Y11087D01*
G01X9238Y11079D01*
G01X9241Y11070D01*
G01X9246Y11061D01*
G01X9250Y11053D01*
G01X9255Y11045D01*
G01X9260Y11037D01*
G01X9266Y11029D01*
G01X9272Y11022D01*
G01X9279Y11015D01*
G01X9285Y11008D01*
G01X9292Y11002D01*
G01X9297Y10998D01*
G01X9292Y10994D01*
G01X9285Y10988D01*
G01X9279Y10981D01*
G01X9272Y10974D01*
G01X9266Y10966D01*
G01X9260Y10959D01*
G01X9255Y10951D01*
G01X9250Y10943D01*
G01X9246Y10934D01*
G01X9241Y10926D01*
G01X9238Y10917D01*
G01X9234Y10908D01*
G01X9231Y10899D01*
G01X9229Y10890D01*
G01X9227Y10881D01*
G01X9225Y10871D01*
G01X9224Y10862D01*
G01X9224Y10852D01*
G01X9223Y10843D01*
G01X9223Y10493D01*
G01X9224Y10483D01*
G01X9224Y10474D01*
G01X9225Y10464D01*
G01X9227Y10455D01*
G01X9229Y10446D01*
G01X9231Y10436D01*
G01X9234Y10427D01*
G01X9238Y10418D01*
G01X9241Y10410D01*
G01X9246Y10401D01*
G01X9250Y10393D01*
G01X9255Y10385D01*
G01X9260Y10377D01*
G01X9266Y10369D01*
G01X9272Y10362D01*
G01X9279Y10355D01*
G01X9285Y10348D01*
G01X9292Y10342D01*
G01X9300Y10336D01*
G01X9307Y10330D01*
G01X9315Y10324D01*
G01X9323Y10320D01*
G01X9326Y10318D01*
G01X9326Y7644D01*
G01X9319Y7650D01*
G01X9277Y7680D01*
G01X9233Y7705D01*
G01X9187Y7726D01*
G01X9138Y7743D01*
G01X9088Y7754D01*
G01X9038Y7760D01*
G01X8987Y7762D01*
G01X8936Y7758D01*
G01X8885Y7749D01*
G01X8836Y7735D01*
G01X8789Y7717D01*
G01X8743Y7693D01*
G01X8700Y7665D01*
G01X8660Y7634D01*
G01X8624Y7598D01*
G01X8591Y7559D01*
G01X8562Y7517D01*
G01X8538Y7472D01*
G01X8518Y7425D01*
G01X8503Y7376D01*
G01X8493Y7326D01*
G01X8488Y7275D01*
G01X8488Y7224D01*
G01X8493Y7173D01*
G01X8496Y7159D01*
G01X8494Y7156D01*
G01X8488Y7146D01*
G01X8482Y7136D01*
G01X8477Y7125D01*
G01X8472Y7114D01*
G01X8468Y7103D01*
G01X8464Y7092D01*
G01X8461Y7081D01*
G01X8458Y7070D01*
G01X8455Y7058D01*
G01X8453Y7046D01*
G01X8452Y7035D01*
G01X8450Y7023D01*
G01X8450Y7011D01*
G01X8449Y6999D01*
G01X8449Y6865D01*
G01X8090Y6865D01*
G01X8089Y6867D01*
G01X8086Y6877D01*
G01X8084Y6885D01*
G01X8081Y6896D01*
G01X8078Y6903D01*
G01X8074Y6913D01*
G01X8071Y6920D01*
G01X8066Y6930D01*
G01X8063Y6937D01*
G01X8058Y6947D01*
G01X8055Y6953D01*
G01X8048Y6963D01*
G01X8044Y6970D01*
G01X8038Y6979D01*
G01X8034Y6985D01*
G01X8027Y6994D01*
G01X8022Y7000D01*
G01X8015Y7008D01*
G01X8010Y7014D01*
G01X8003Y7022D01*
G01X7997Y7027D01*
G01X7989Y7035D01*
G01X7983Y7040D01*
G01X7975Y7047D01*
G01X7969Y7052D01*
G01X7960Y7059D01*
G01X7954Y7063D01*
G01X7945Y7069D01*
G01X7939Y7073D01*
G01X7928Y7079D01*
G01X7922Y7083D01*
G01X7912Y7088D01*
G01X7906Y7091D01*
G01X7895Y7096D01*
G01X7888Y7099D01*
G01X7878Y7103D01*
G01X7871Y7106D01*
G01X7860Y7109D01*
G01X7852Y7111D01*
G01X7842Y7114D01*
G01X7835Y7116D01*
G01X7824Y7118D01*
G01X7816Y7120D01*
G01X7805Y7121D01*
G01X7797Y7122D01*
G01X7787Y7123D01*
G01X7779Y7124D01*
G01X7768Y7124D01*
G01X7760Y7124D01*
G01X7750Y7124D01*
G01X7745Y7124D01*
G01X7745Y7128D01*
G01X7746Y7139D01*
G01X7745Y7147D01*
G01X7745Y7158D01*
G01X7744Y7165D01*
G01X7743Y7176D01*
G01X7743Y7184D01*
G01X7741Y7195D01*
G01X7739Y7202D01*
G01X7737Y7214D01*
G01X7735Y7221D01*
G01X7733Y7231D01*
G01X7730Y7239D01*
G01X7727Y7250D01*
G01X7724Y7257D01*
G01X7720Y7267D01*
G01X7717Y7274D01*
G01X7713Y7284D01*
G01X7709Y7291D01*
G01X7704Y7300D01*
G01X7701Y7307D01*
G01X7695Y7317D01*
G01X7690Y7324D01*
G01X7685Y7332D01*
G01X7680Y7339D01*
G01X7673Y7348D01*
G01X7668Y7354D01*
G01X7662Y7362D01*
G01X7656Y7368D01*
G01X7649Y7376D01*
G01X7643Y7381D01*
G01X7635Y7389D01*
G01X7629Y7394D01*
G01X7621Y7401D01*
G01X7615Y7406D01*
G01X7606Y7413D01*
G01X7600Y7417D01*
G01X7591Y7423D01*
G01X7585Y7427D01*
G01X7575Y7433D01*
G01X7568Y7437D01*
G01X7559Y7442D01*
G01X7552Y7445D01*
G01X7542Y7450D01*
G01X7534Y7453D01*
G01X7524Y7457D01*
G01X7517Y7459D01*
G01X7506Y7463D01*
G01X7499Y7465D01*
G01X7489Y7468D01*
G01X7481Y7470D01*
G01X7470Y7472D01*
G01X7462Y7473D01*
G01X7451Y7475D01*
G01X7444Y7476D01*
G01X7433Y7477D01*
G01X7425Y7478D01*
G01X7414Y7478D01*
G01X7406Y7478D01*
G01X7396Y7478D01*
G01X7391Y7478D01*
G01X7392Y7482D01*
G01X7392Y7493D01*
G01X7392Y7500D01*
G01X7391Y7512D01*
G01X7391Y7519D01*
G01X7390Y7530D01*
G01X7389Y7538D01*
G01X7387Y7549D01*
G01X7386Y7556D01*
G01X7383Y7567D01*
G01X7382Y7575D01*
G01X7379Y7585D01*
G01X7377Y7592D01*
G01X7373Y7603D01*
G01X7370Y7611D01*
G01X7366Y7621D01*
G01X7363Y7628D01*
G01X7359Y7638D01*
G01X7355Y7645D01*
G01X7351Y7654D01*
G01X7347Y7661D01*
G01X7341Y7671D01*
G01X7337Y7678D01*
G01X7331Y7686D01*
G01X7326Y7692D01*
G01X7320Y7702D01*
G01X7315Y7708D01*
G01X7308Y7716D01*
G01X7303Y7722D01*
G01X7295Y7730D01*
G01X7289Y7735D01*
G01X7281Y7743D01*
G01X7276Y7748D01*
G01X7267Y7755D01*
G01X7261Y7760D01*
G01X7252Y7767D01*
G01X7246Y7771D01*
G01X7237Y7777D01*
G01X7231Y7781D01*
G01X7221Y7787D01*
G01X7214Y7791D01*
G01X7205Y7796D01*
G01X7198Y7799D01*
G01X7188Y7804D01*
G01X7181Y7807D01*
G01X7170Y7811D01*
G01X7163Y7813D01*
G01X7152Y7817D01*
G01X7145Y7819D01*
G01X7135Y7822D01*
G01X7127Y7824D01*
G01X7116Y7826D01*
G01X7108Y7827D01*
G01X7097Y7829D01*
G01X7090Y7830D01*
G01X7079Y7831D01*
G01X7071Y7831D01*
G01X7060Y7832D01*
G01X7053Y7832D01*
G01X7042Y7832D01*
G01X7038Y7832D01*
G01X7038Y7836D01*
G01X7038Y7847D01*
G01X7038Y7854D01*
G01X7037Y7865D01*
G01X7037Y7873D01*
G01X7036Y7884D01*
G01X7035Y7891D01*
G01X7033Y7902D01*
G01X7032Y7910D01*
G01X7030Y7921D01*
G01X7028Y7929D01*
G01X7025Y7939D01*
G01X7023Y7946D01*
G01X7019Y7957D01*
G01X7017Y7964D01*
G01X7013Y7975D01*
G01X7010Y7982D01*
G01X7005Y7992D01*
G01X7002Y7999D01*
G01X6997Y8008D01*
G01X6993Y8015D01*
G01X6987Y8025D01*
G01X6983Y8031D01*
G01X6977Y8040D01*
G01X6973Y8046D01*
G01X6966Y8055D01*
G01X6961Y8061D01*
G01X6954Y8070D01*
G01X6949Y8075D01*
G01X6941Y8083D01*
G01X6936Y8089D01*
G01X6928Y8097D01*
G01X6922Y8102D01*
G01X6914Y8109D01*
G01X6908Y8114D01*
G01X6898Y8120D01*
G01X6892Y8125D01*
G01X6884Y8131D01*
G01X6877Y8135D01*
G01X6867Y8141D01*
G01X6860Y8145D01*
G01X6851Y8149D01*
G01X6844Y8153D01*
G01X6834Y8157D01*
G01X6827Y8160D01*
G01X6817Y8164D01*
G01X6809Y8167D01*
G01X6798Y8171D01*
G01X6791Y8173D01*
G01X6781Y8176D01*
G01X6773Y8177D01*
G01X6762Y8180D01*
G01X6755Y8181D01*
G01X6744Y8183D01*
G01X6736Y8184D01*
G01X6725Y8185D01*
G01X6718Y8185D01*
G01X6706Y8186D01*
G01X6699Y8186D01*
G01X6688Y8186D01*
G01X6686Y8186D01*
G01X6686Y8188D01*
G01X6686Y8199D01*
G01X6686Y8206D01*
G01X6685Y8217D01*
G01X6685Y8225D01*
G01X6684Y8236D01*
G01X6683Y8243D01*
G01X6681Y8255D01*
G01X6680Y8262D01*
G01X6677Y8273D01*
G01X6676Y8281D01*
G01X6673Y8291D01*
G01X6671Y8298D01*
G01X6667Y8309D01*
G01X6665Y8317D01*
G01X6661Y8327D01*
G01X6658Y8334D01*
G01X6653Y8344D01*
G01X6649Y8351D01*
G01X6645Y8360D01*
G01X6641Y8367D01*
G01X6635Y8377D01*
G01X6631Y8383D01*
G01X6625Y8392D01*
G01X6620Y8398D01*
G01X6614Y8407D01*
G01X6609Y8413D01*
G01X6602Y8422D01*
G01X6597Y8427D01*
G01X6589Y8436D01*
G01X6584Y8441D01*
G01X6576Y8449D01*
G01X6570Y8454D01*
G01X6562Y8461D01*
G01X6555Y8466D01*
G01X6546Y8472D01*
G01X6540Y8477D01*
G01X6532Y8483D01*
G01X6525Y8487D01*
G01X6515Y8493D01*
G01X6508Y8497D01*
G01X6499Y8501D01*
G01X6492Y8505D01*
G01X6482Y8509D01*
G01X6475Y8512D01*
G01X6465Y8516D01*
G01X6457Y8519D01*
G01X6446Y8523D01*
G01X6439Y8525D01*
G01X6429Y8528D01*
G01X6421Y8529D01*
G01X6410Y8532D01*
G01X6403Y8533D01*
G01X6391Y8535D01*
G01X6384Y8536D01*
G01X6373Y8537D01*
G01X6366Y8537D01*
G01X6354Y8538D01*
G01X6347Y8538D01*
G01X6336Y8538D01*
G01X6332Y8538D01*
G01X6332Y8542D01*
G01X6332Y8552D01*
G01X6332Y8560D01*
G01X6332Y8571D01*
G01X6331Y8579D01*
G01X6330Y8590D01*
G01X6329Y8597D01*
G01X6327Y8608D01*
G01X6326Y8616D01*
G01X6324Y8627D01*
G01X6322Y8635D01*
G01X6319Y8645D01*
G01X6317Y8652D01*
G01X6313Y8663D01*
G01X6311Y8670D01*
G01X6307Y8680D01*
G01X6304Y8688D01*
G01X6299Y8698D01*
G01X6296Y8705D01*
G01X6291Y8714D01*
G01X6287Y8721D01*
G01X6281Y8731D01*
G01X6277Y8737D01*
G01X6271Y8746D01*
G01X6267Y8752D01*
G01X6260Y8761D01*
G01X6255Y8767D01*
G01X6248Y8775D01*
G01X6243Y8781D01*
G01X6235Y8789D01*
G01X6230Y8795D01*
G01X6222Y8802D01*
G01X6216Y8808D01*
G01X6208Y8815D01*
G01X6202Y8819D01*
G01X6193Y8826D01*
G01X6186Y8831D01*
G01X6178Y8837D01*
G01X6171Y8841D01*
G01X6161Y8847D01*
G01X6154Y8850D01*
G01X6145Y8855D01*
G01X6138Y8859D01*
G01X6128Y8863D01*
G01X6121Y8866D01*
G01X6111Y8870D01*
G01X6104Y8873D01*
G01X6092Y8877D01*
G01X6085Y8879D01*
G01X6075Y8881D01*
G01X6068Y8883D01*
G01X6056Y8886D01*
G01X6049Y8887D01*
G01X6038Y8889D01*
G01X6030Y8890D01*
G01X6019Y8891D01*
G01X6012Y8891D01*
G01X6001Y8892D01*
G01X5993Y8892D01*
G01X5982Y8892D01*
G01X5978Y8891D01*
G01X5978Y8896D01*
G01X5978Y8906D01*
G01X5978Y8914D01*
G01X5978Y8925D01*
G01X5977Y8933D01*
G01X5976Y8943D01*
G01X5975Y8951D01*
G01X5974Y8962D01*
G01X5972Y8970D01*
G01X5970Y8981D01*
G01X5968Y8988D01*
G01X5965Y8998D01*
G01X5963Y9006D01*
G01X5960Y9017D01*
G01X5957Y9024D01*
G01X5953Y9034D01*
G01X5950Y9041D01*
G01X5945Y9052D01*
G01X5942Y9059D01*
G01X5937Y9068D01*
G01X5933Y9074D01*
G01X5927Y9085D01*
G01X5923Y9091D01*
G01X5917Y9100D01*
G01X5913Y9106D01*
G01X5906Y9115D01*
G01X5901Y9121D01*
G01X5894Y9129D01*
G01X5889Y9135D01*
G01X5881Y9143D01*
G01X5876Y9149D01*
G01X5868Y9156D01*
G01X5862Y9161D01*
G01X5854Y9168D01*
G01X5848Y9173D01*
G01X5839Y9180D01*
G01X5833Y9185D01*
G01X5824Y9190D01*
G01X5817Y9194D01*
G01X5809Y9199D01*
G01X6875Y9199D01*
G01X7324Y8750D01*
G01X7324Y8665D01*
G01X7285Y8634D01*
G01X7249Y8598D01*
G01X7216Y8559D01*
G01X7187Y8517D01*
G01X7163Y8472D01*
G01X7143Y8425D01*
G01X7128Y8376D01*
G01X7118Y8326D01*
G01X7113Y8275D01*
G01X7113Y8224D01*
G01X7118Y8173D01*
G01X7128Y8123D01*
G01X7143Y8074D01*
G01X7163Y8027D01*
G01X7187Y7982D01*
G01X7216Y7940D01*
G01X7249Y7901D01*
G01X7285Y7865D01*
G01X7325Y7833D01*
G01X7368Y7806D01*
G01X7414Y7782D01*
G01X7461Y7764D01*
G01X7510Y7750D01*
G01X7561Y7741D01*
G01X7612Y7737D01*
G01X7663Y7738D01*
G01X7713Y7745D01*
G01X7763Y7756D01*
G01X7812Y7772D01*
G01X7858Y7793D01*
G01X7902Y7819D01*
G01X7944Y7849D01*
G01X7982Y7883D01*
G01X8017Y7920D01*
G01X8048Y7961D01*
G01X8074Y8004D01*
G01X8097Y8050D01*
G01X8114Y8098D01*
G01X8127Y8148D01*
G01X8134Y8198D01*
G01X8137Y8249D01*
G01X8134Y8300D01*
G01X8127Y8351D01*
G01X8114Y8400D01*
G01X8097Y8449D01*
G01X8074Y8495D01*
G01X8048Y8538D01*
G01X8017Y8579D01*
G01X7982Y8616D01*
G01X7944Y8650D01*
G01X7924Y8664D01*
G01X7924Y8874D01*
G01X7924Y8886D01*
G01X7924Y8898D01*
G01X7922Y8910D01*
G01X7921Y8921D01*
G01X7919Y8933D01*
G01X7916Y8945D01*
G01X7913Y8956D01*
G01X7910Y8967D01*
G01X7906Y8978D01*
G01X7902Y8989D01*
G01X7897Y9000D01*
G01X7892Y9011D01*
G01X7886Y9021D01*
G01X7880Y9031D01*
G01X7874Y9041D01*
G01X7867Y9051D01*
G01X7860Y9060D01*
G01X7853Y9069D01*
G01X7845Y9078D01*
G01X7837Y9087D01*
G01X7212Y9712D01*
G01X7203Y9720D01*
G01X7194Y9728D01*
G01X7185Y9735D01*
G01X7176Y9742D01*
G01X7166Y9749D01*
G01X7156Y9755D01*
G01X7146Y9761D01*
G01X7136Y9767D01*
G01X7125Y9772D01*
G01X7114Y9777D01*
G01X7103Y9781D01*
G01X7092Y9785D01*
G01X7081Y9788D01*
G01X7070Y9791D01*
G01X7058Y9794D01*
G01X7046Y9796D01*
G01X7035Y9797D01*
G01X7023Y9799D01*
G01X7011Y9799D01*
G01X6999Y9799D01*
G01X5525Y9799D01*
G01X5513Y9799D01*
G01X5501Y9799D01*
G01X5489Y9797D01*
G01X5478Y9796D01*
G01X5466Y9794D01*
G01X5455Y9791D01*
G01X5443Y9788D01*
G01X5432Y9785D01*
G01X5421Y9781D01*
G01X5410Y9777D01*
G01X5399Y9772D01*
G01X5388Y9767D01*
G01X5378Y9761D01*
G01X5368Y9755D01*
G01X5358Y9749D01*
G01X5348Y9742D01*
G01X5339Y9735D01*
G01X5330Y9728D01*
G01X5321Y9720D01*
G01X5312Y9712D01*
G01X5185Y9584D01*
G01X5182Y9583D01*
G01X5175Y9581D01*
G01X5165Y9578D01*
G01X5158Y9575D01*
G01X5147Y9570D01*
G01X5140Y9567D01*
G01X5130Y9562D01*
G01X5123Y9559D01*
G01X5114Y9553D01*
G01X5107Y9550D01*
G01X5098Y9543D01*
G01X5091Y9539D01*
G01X5082Y9533D01*
G01X5076Y9528D01*
G01X5068Y9521D01*
G01X5062Y9516D01*
G01X5054Y9509D01*
G01X5048Y9504D01*
G01X5044Y9500D01*
G01X4606Y9061D01*
G01X4601Y9057D01*
G01X4596Y9051D01*
G01X4589Y9044D01*
G01X4584Y9038D01*
G01X4577Y9029D01*
G01X4573Y9023D01*
G01X4566Y9014D01*
G01X4562Y9008D01*
G01X4556Y8998D01*
G01X4552Y8991D01*
G01X4547Y8982D01*
G01X4543Y8975D01*
G01X4538Y8965D01*
G01X4535Y8958D01*
G01X4531Y8948D01*
G01X4528Y8941D01*
G01X4524Y8931D01*
G01X4522Y8924D01*
G01X4519Y8912D01*
G01X4517Y8905D01*
G01X4514Y8895D01*
G01X4513Y8887D01*
G01X4511Y8876D01*
G01X4509Y8869D01*
G01X4508Y8857D01*
G01X4507Y8850D01*
G01X4507Y8838D01*
G01X4506Y8831D01*
G01X4506Y8820D01*
G01X4506Y8812D01*
G01X4507Y8801D01*
G01X4507Y8794D01*
G01X4508Y8783D01*
G01X4509Y8775D01*
G01X4511Y8764D01*
G01X4512Y8757D01*
G01X4515Y8746D01*
G01X4516Y8738D01*
G01X4519Y8728D01*
G01X4521Y8721D01*
G01X4525Y8710D01*
G01X4527Y8702D01*
G01X4531Y8692D01*
G01X4534Y8685D01*
G01X4539Y8675D01*
G01X4543Y8668D01*
G01X4547Y8659D01*
G01X4551Y8652D01*
G01X4557Y8642D01*
G01X4561Y8635D01*
G01X4567Y8627D01*
G01X4572Y8620D01*
G01X4578Y8611D01*
G01X4583Y8605D01*
G01X4590Y8597D01*
G01X4595Y8591D01*
G01X4603Y8583D01*
G01X4608Y8578D01*
G01X4617Y8570D01*
G01X4622Y8565D01*
G01X4631Y8558D01*
G01X4637Y8553D01*
G01X4646Y8546D01*
G01X4652Y8542D01*
G01X4660Y8536D01*
G01X4667Y8532D01*
G01X4677Y8526D01*
G01X4684Y8522D01*
G01X4693Y8517D01*
G01X4700Y8514D01*
G01X4710Y8509D01*
G01X4717Y8506D01*
G01X4727Y8502D01*
G01X4735Y8500D01*
G01X4746Y8496D01*
G01X4753Y8494D01*
G01X4763Y8491D01*
G01X4771Y8489D01*
G01X4782Y8487D01*
G01X4789Y8486D01*
G01X4801Y8484D01*
G01X4808Y8483D01*
G01X4819Y8482D01*
G01X4826Y8482D01*
G01X4838Y8481D01*
G01X4845Y8481D01*
G01X4856Y8481D01*
G01X4860Y8481D01*
G01X4860Y8477D01*
G01X4860Y8466D01*
G01X4860Y8459D01*
G01X4861Y8447D01*
G01X4861Y8440D01*
G01X4862Y8429D01*
G01X4863Y8422D01*
G01X4865Y8410D01*
G01X4866Y8403D01*
G01X4868Y8392D01*
G01X4870Y8384D01*
G01X4873Y8374D01*
G01X4875Y8367D01*
G01X4879Y8356D01*
G01X4881Y8348D01*
G01X4885Y8338D01*
G01X4888Y8331D01*
G01X4893Y8321D01*
G01X4896Y8314D01*
G01X4901Y8305D01*
G01X4905Y8298D01*
G01X4911Y8288D01*
G01X4915Y8282D01*
G01X4921Y8273D01*
G01X4925Y8267D01*
G01X4932Y8258D01*
G01X4937Y8252D01*
G01X4944Y8243D01*
G01X4949Y8238D01*
G01X4957Y8229D01*
G01X4962Y8224D01*
G01X4970Y8216D01*
G01X4976Y8211D01*
G01X4984Y8204D01*
G01X4990Y8199D01*
G01X4999Y8193D01*
G01X5006Y8188D01*
G01X5014Y8182D01*
G01X5021Y8178D01*
G01X5031Y8172D01*
G01X5038Y8168D01*
G01X5047Y8164D01*
G01X5054Y8160D01*
G01X5064Y8155D01*
G01X5071Y8152D01*
G01X5081Y8149D01*
G01X5088Y8146D01*
G01X5100Y8142D01*
G01X5107Y8140D01*
G01X5117Y8137D01*
G01X5125Y8136D01*
G01X5136Y8133D01*
G01X5143Y8132D01*
G01X5154Y8130D01*
G01X5162Y8129D01*
G01X5173Y8128D01*
G01X5180Y8128D01*
G01X5191Y8127D01*
G01X5199Y8127D01*
G01X5210Y8127D01*
G01X5214Y8127D01*
G01X5214Y8123D01*
G01X5214Y8113D01*
G01X5214Y8105D01*
G01X5214Y8094D01*
G01X5215Y8086D01*
G01X5216Y8075D01*
G01X5217Y8068D01*
G01X5218Y8057D01*
G01X5220Y8049D01*
G01X5222Y8038D01*
G01X5224Y8030D01*
G01X5227Y8020D01*
G01X5229Y8013D01*
G01X5233Y8002D01*
G01X5235Y7995D01*
G01X5239Y7984D01*
G01X5242Y7977D01*
G01X5247Y7967D01*
G01X5250Y7960D01*
G01X5255Y7951D01*
G01X5259Y7944D01*
G01X5265Y7934D01*
G01X5269Y7928D01*
G01X5275Y7919D01*
G01X5279Y7913D01*
G01X5286Y7904D01*
G01X5291Y7898D01*
G01X5298Y7889D01*
G01X5303Y7884D01*
G01X5311Y7876D01*
G01X5316Y7870D01*
G01X5324Y7863D01*
G01X5330Y7857D01*
G01X5338Y7850D01*
G01X5344Y7846D01*
G01X5353Y7839D01*
G01X5359Y7834D01*
G01X5368Y7828D01*
G01X5375Y7824D01*
G01X5385Y7818D01*
G01X5392Y7814D01*
G01X5401Y7810D01*
G01X5408Y7806D01*
G01X5418Y7802D01*
G01X5425Y7799D01*
G01X5435Y7795D01*
G01X5442Y7792D01*
G01X5453Y7788D01*
G01X5461Y7786D01*
G01X5471Y7784D01*
G01X5478Y7782D01*
G01X5489Y7779D01*
G01X5497Y7778D01*
G01X5508Y7776D01*
G01X5516Y7775D01*
G01X5526Y7774D01*
G01X5534Y7774D01*
G01X5545Y7773D01*
G01X5553Y7773D01*
G01X5564Y7773D01*
G01X5568Y7774D01*
G01X5568Y7769D01*
G01X5568Y7759D01*
G01X5568Y7751D01*
G01X5568Y7740D01*
G01X5569Y7732D01*
G01X5570Y7722D01*
G01X5571Y7714D01*
G01X5572Y7703D01*
G01X5574Y7695D01*
G01X5576Y7684D01*
G01X5578Y7677D01*
G01X5581Y7667D01*
G01X5583Y7659D01*
G01X5586Y7648D01*
G01X5589Y7641D01*
G01X5593Y7631D01*
G01X5596Y7624D01*
G01X5601Y7613D01*
G01X5604Y7606D01*
G01X5609Y7597D01*
G01X5612Y7591D01*
G01X5619Y7580D01*
G01X5623Y7574D01*
G01X5629Y7565D01*
G01X5633Y7559D01*
G01X5640Y7550D01*
G01X5645Y7544D01*
G01X5652Y7536D01*
G01X5657Y7530D01*
G01X5664Y7522D01*
G01X5670Y7516D01*
G01X5678Y7509D01*
G01X5684Y7504D01*
G01X5692Y7497D01*
G01X5698Y7492D01*
G01X5707Y7485D01*
G01X5713Y7480D01*
G01X5722Y7475D01*
G01X5728Y7470D01*
G01X5739Y7464D01*
G01X5745Y7461D01*
G01X5755Y7456D01*
G01X5761Y7452D01*
G01X5772Y7448D01*
G01X5779Y7445D01*
G01X5789Y7441D01*
G01X5796Y7438D01*
G01X5807Y7435D01*
G01X5815Y7432D01*
G01X5825Y7430D01*
G01X5832Y7428D01*
G01X5843Y7426D01*
G01X5851Y7424D01*
G01X5862Y7423D01*
G01X5870Y7422D01*
G01X5880Y7421D01*
G01X5888Y7420D01*
G01X5899Y7420D01*
G01X5907Y7420D01*
G01X5917Y7420D01*
G01X5920Y7420D01*
G01X5920Y7417D01*
G01X5920Y7407D01*
G01X5920Y7399D01*
G01X5920Y7388D01*
G01X5921Y7380D01*
G01X5922Y7370D01*
G01X5923Y7362D01*
G01X5924Y7351D01*
G01X5926Y7343D01*
G01X5928Y7332D01*
G01X5930Y7325D01*
G01X5933Y7314D01*
G01X5935Y7307D01*
G01X5938Y7296D01*
G01X5941Y7289D01*
G01X5945Y7279D01*
G01X5948Y7272D01*
G01X5953Y7261D01*
G01X5956Y7254D01*
G01X5961Y7245D01*
G01X5965Y7239D01*
G01X5971Y7228D01*
G01X5975Y7222D01*
G01X5981Y7213D01*
G01X5985Y7207D01*
G01X5992Y7198D01*
G01X5997Y7192D01*
G01X6004Y7184D01*
G01X6009Y7178D01*
G01X6016Y7170D01*
G01X6022Y7164D01*
G01X6030Y7157D01*
G01X6036Y7152D01*
G01X6044Y7145D01*
G01X6050Y7140D01*
G01X6059Y7133D01*
G01X6065Y7128D01*
G01X6074Y7123D01*
G01X6080Y7118D01*
G01X6091Y7112D01*
G01X6097Y7109D01*
G01X6107Y7104D01*
G01X6113Y7100D01*
G01X6124Y7096D01*
G01X6131Y7093D01*
G01X6141Y7089D01*
G01X6148Y7086D01*
G01X6159Y7083D01*
G01X6167Y7080D01*
G01X6177Y7078D01*
G01X6184Y7076D01*
G01X6195Y7074D01*
G01X6203Y7072D01*
G01X6214Y7071D01*
G01X6222Y7070D01*
G01X6232Y7069D01*
G01X6240Y7068D01*
G01X6251Y7068D01*
G01X6259Y7067D01*
G01X6269Y7068D01*
G01X6274Y7068D01*
G01X6274Y7063D01*
G01X6273Y7053D01*
G01X6274Y7045D01*
G01X6274Y7034D01*
G01X6275Y7026D01*
G01X6276Y7016D01*
G01X6277Y7008D01*
G01X6278Y6997D01*
G01X6280Y6989D01*
G01X6282Y6978D01*
G01X6284Y6971D01*
G01X6286Y6961D01*
G01X6289Y6953D01*
G01X6292Y6942D01*
G01X6295Y6935D01*
G01X6299Y6925D01*
G01X6302Y6918D01*
G01X6306Y6907D01*
G01X6310Y6901D01*
G01X6315Y6891D01*
G01X6318Y6885D01*
G01X6324Y6874D01*
G01X6329Y6868D01*
G01X6334Y6859D01*
G01X6339Y6853D01*
G01X6346Y6844D01*
G01X6351Y6838D01*
G01X6358Y6830D01*
G01X6363Y6824D01*
G01X6370Y6816D01*
G01X6376Y6810D01*
G01X6384Y6803D01*
G01X6390Y6798D01*
G01X6398Y6791D01*
G01X6404Y6786D01*
G01X6413Y6779D01*
G01X6419Y6775D01*
G01X6428Y6769D01*
G01X6434Y6765D01*
G01X6444Y6759D01*
G01X6451Y6755D01*
G01X6460Y6750D01*
G01X6467Y6747D01*
G01X6478Y6742D01*
G01X6485Y6739D01*
G01X6495Y6735D01*
G01X6502Y6732D01*
G01X6513Y6729D01*
G01X6520Y6727D01*
G01X6531Y6724D01*
G01X6538Y6722D01*
G01X6549Y6720D01*
G01X6557Y6718D01*
G01X6568Y6717D01*
G01X6576Y6716D01*
G01X6586Y6715D01*
G01X6594Y6714D01*
G01X6605Y6714D01*
G01X6613Y6714D01*
G01X6623Y6714D01*
G01X6628Y6714D01*
G01X6627Y6710D01*
G01X6627Y6699D01*
G01X6627Y6691D01*
G01X6628Y6680D01*
G01X6628Y6672D01*
G01X6629Y6662D01*
G01X6630Y6654D01*
G01X6632Y6643D01*
G01X6633Y6636D01*
G01X6636Y6624D01*
G01X6638Y6617D01*
G01X6640Y6607D01*
G01X6642Y6599D01*
G01X6646Y6588D01*
G01X6649Y6581D01*
G01X6653Y6571D01*
G01X6656Y6564D01*
G01X6660Y6554D01*
G01X6664Y6547D01*
G01X6668Y6538D01*
G01X6672Y6531D01*
G01X6678Y6521D01*
G01X6682Y6514D01*
G01X6688Y6506D01*
G01X6693Y6499D01*
G01X6700Y6490D01*
G01X6704Y6484D01*
G01X6711Y6476D01*
G01X6716Y6470D01*
G01X6724Y6462D01*
G01X6730Y6457D01*
G01X6738Y6449D01*
G01X6743Y6444D01*
G01X6752Y6437D01*
G01X6758Y6432D01*
G01X6767Y6425D01*
G01X6773Y6421D01*
G01X6782Y6415D01*
G01X6788Y6411D01*
G01X6798Y6405D01*
G01X6805Y6401D01*
G01X6814Y6396D01*
G01X6821Y6393D01*
G01X6831Y6388D01*
G01X6838Y6385D01*
G01X6849Y6381D01*
G01X6856Y6379D01*
G01X6867Y6375D01*
G01X6874Y6373D01*
G01X6884Y6370D01*
G01X6892Y6368D01*
G01X6903Y6366D01*
G01X6911Y6365D01*
G01X6922Y6363D01*
G01X6929Y6362D01*
G01X6940Y6361D01*
G01X6948Y6360D01*
G01X6959Y6360D01*
G01X6967Y6360D01*
G01X6977Y6360D01*
G01X6981Y6360D01*
G01X6981Y6356D01*
G01X6981Y6345D01*
G01X6981Y6338D01*
G01X6982Y6326D01*
G01X6982Y6319D01*
G01X6983Y6308D01*
G01X6984Y6300D01*
G01X6986Y6289D01*
G01X6987Y6282D01*
G01X6990Y6271D01*
G01X6991Y6263D01*
G01X6994Y6253D01*
G01X6996Y6246D01*
G01X7000Y6235D01*
G01X7002Y6227D01*
G01X7006Y6217D01*
G01X7009Y6210D01*
G01X7014Y6200D01*
G01X7017Y6193D01*
G01X7022Y6184D01*
G01X7026Y6177D01*
G01X7032Y6167D01*
G01X7036Y6160D01*
G01X7042Y6152D01*
G01X7047Y6145D01*
G01X7053Y6136D01*
G01X7058Y6130D01*
G01X7065Y6122D01*
G01X7070Y6116D01*
G01X7078Y6108D01*
G01X7083Y6103D01*
G01X7091Y6095D01*
G01X7097Y6090D01*
G01X7105Y6083D01*
G01X7112Y6078D01*
G01X7121Y6071D01*
G01X7127Y6067D01*
G01X7135Y6061D01*
G01X7142Y6057D01*
G01X7152Y6051D01*
G01X7159Y6047D01*
G01X7168Y6042D01*
G01X7175Y6039D01*
G01X7185Y6034D01*
G01X7192Y6031D01*
G01X7202Y6027D01*
G01X7210Y6025D01*
G01X7221Y6021D01*
G01X7228Y6019D01*
G01X7238Y6016D01*
G01X7246Y6014D01*
G01X7257Y6012D01*
G01X7264Y6011D01*
G01X7276Y6009D01*
G01X7283Y6008D01*
G01X7294Y6007D01*
G01X7301Y6007D01*
G01X7313Y6006D01*
G01X7320Y6006D01*
G01X7331Y6006D01*
G01X7339Y6006D01*
G01X7350Y6007D01*
G01X7357Y6008D01*
G01X7369Y6009D01*
G01X7376Y6010D01*
G01X7387Y6013D01*
G01X7395Y6014D01*
G01X7405Y6016D01*
G01X7412Y6018D01*
G01X7424Y6022D01*
G01X7431Y6024D01*
G01X7441Y6028D01*
G01X7448Y6031D01*
G01X7458Y6035D01*
G01X7465Y6038D01*
G01X7475Y6043D01*
G01X7482Y6047D01*
G01X7490Y6051D01*
G01X7488Y6025D01*
G01X7488Y5974D01*
G01X7490Y5948D01*
G01X7482Y5952D01*
G01X7475Y5956D01*
G01X7465Y5961D01*
G01X7458Y5964D01*
G01X7448Y5968D01*
G01X7441Y5971D01*
G01X7431Y5975D01*
G01X7424Y5977D01*
G01X7412Y5981D01*
G01X7405Y5983D01*
G01X7395Y5985D01*
G01X7387Y5986D01*
G01X7376Y5988D01*
G01X7369Y5990D01*
G01X7357Y5991D01*
G01X7350Y5992D01*
G01X7339Y5993D01*
G01X7331Y5993D01*
G01X7320Y5993D01*
G01X7313Y5993D01*
G01X7301Y5992D01*
G01X7294Y5992D01*
G01X7283Y5991D01*
G01X7276Y5990D01*
G01X7264Y5988D01*
G01X7257Y5987D01*
G01X7246Y5985D01*
G01X7238Y5983D01*
G01X7228Y5980D01*
G01X7221Y5978D01*
G01X7210Y5974D01*
G01X7202Y5972D01*
G01X7192Y5968D01*
G01X7185Y5965D01*
G01X7175Y5960D01*
G01X7168Y5957D01*
G01X7159Y5952D01*
G01X7152Y5948D01*
G01X7142Y5942D01*
G01X7135Y5938D01*
G01X7127Y5932D01*
G01X7121Y5928D01*
G01X7112Y5921D01*
G01X7105Y5916D01*
G01X7097Y5909D01*
G01X7091Y5904D01*
G01X7083Y5896D01*
G01X7078Y5891D01*
G01X7070Y5883D01*
G01X7065Y5877D01*
G01X7058Y5869D01*
G01X7053Y5863D01*
G01X7047Y5854D01*
G01X7042Y5847D01*
G01X7036Y5839D01*
G01X7032Y5832D01*
G01X7026Y5822D01*
G01X7022Y5815D01*
G01X7017Y5806D01*
G01X7014Y5799D01*
G01X7009Y5789D01*
G01X7006Y5782D01*
G01X7002Y5772D01*
G01X7000Y5764D01*
G01X6996Y5753D01*
G01X6994Y5746D01*
G01X6991Y5736D01*
G01X6990Y5728D01*
G01X6987Y5717D01*
G01X6986Y5710D01*
G01X6984Y5699D01*
G01X6983Y5691D01*
G01X6982Y5680D01*
G01X6982Y5673D01*
G01X6981Y5661D01*
G01X6981Y5654D01*
G01X6981Y5643D01*
G01X6981Y5639D01*
G01X6977Y5639D01*
G01X6967Y5639D01*
G01X6959Y5639D01*
G01X6948Y5639D01*
G01X6940Y5638D01*
G01X6929Y5637D01*
G01X6922Y5636D01*
G01X6911Y5634D01*
G01X6903Y5633D01*
G01X6892Y5631D01*
G01X6884Y5629D01*
G01X6874Y5626D01*
G01X6867Y5624D01*
G01X6856Y5620D01*
G01X6849Y5618D01*
G01X6838Y5614D01*
G01X6831Y5611D01*
G01X6821Y5606D01*
G01X6814Y5603D01*
G01X6805Y5598D01*
G01X6798Y5594D01*
G01X6788Y5588D01*
G01X6782Y5584D01*
G01X6773Y5578D01*
G01X6767Y5574D01*
G01X6758Y5567D01*
G01X6752Y5562D01*
G01X6743Y5555D01*
G01X6738Y5550D01*
G01X6730Y5542D01*
G01X6724Y5537D01*
G01X6716Y5529D01*
G01X6711Y5523D01*
G01X6704Y5515D01*
G01X6700Y5509D01*
G01X6693Y5500D01*
G01X6688Y5493D01*
G01X6682Y5485D01*
G01X6678Y5478D01*
G01X6672Y5468D01*
G01X6668Y5461D01*
G01X6664Y5452D01*
G01X6660Y5445D01*
G01X6656Y5435D01*
G01X6653Y5428D01*
G01X6649Y5418D01*
G01X6646Y5411D01*
G01X6642Y5400D01*
G01X6640Y5392D01*
G01X6638Y5382D01*
G01X6636Y5375D01*
G01X6633Y5363D01*
G01X6632Y5356D01*
G01X6630Y5345D01*
G01X6629Y5337D01*
G01X6628Y5327D01*
G01X6628Y5319D01*
G01X6627Y5308D01*
G01X6627Y5300D01*
G01X6627Y5289D01*
G01X6628Y5285D01*
G01X6623Y5285D01*
G01X6613Y5285D01*
G01X6605Y5285D01*
G01X6594Y5285D01*
G01X6586Y5284D01*
G01X6576Y5283D01*
G01X6568Y5282D01*
G01X6557Y5281D01*
G01X6549Y5279D01*
G01X6538Y5277D01*
G01X6531Y5275D01*
G01X6520Y5272D01*
G01X6513Y5270D01*
G01X6502Y5267D01*
G01X6495Y5264D01*
G01X6485Y5260D01*
G01X6478Y5257D01*
G01X6467Y5252D01*
G01X6460Y5249D01*
G01X6451Y5244D01*
G01X6444Y5240D01*
G01X6434Y5234D01*
G01X6428Y5230D01*
G01X6419Y5224D01*
G01X6413Y5220D01*
G01X6404Y5213D01*
G01X6398Y5208D01*
G01X6390Y5201D01*
G01X6384Y5196D01*
G01X6376Y5188D01*
G01X6370Y5183D01*
G01X6363Y5175D01*
G01X6358Y5169D01*
G01X6351Y5161D01*
G01X6346Y5155D01*
G01X6339Y5146D01*
G01X6334Y5140D01*
G01X6329Y5131D01*
G01X6324Y5124D01*
G01X6318Y5114D01*
G01X6315Y5108D01*
G01X6310Y5098D01*
G01X6306Y5091D01*
G01X6302Y5081D01*
G01X6299Y5074D01*
G01X6295Y5064D01*
G01X6292Y5057D01*
G01X6289Y5046D01*
G01X6286Y5038D01*
G01X6284Y5028D01*
G01X6282Y5021D01*
G01X6280Y5010D01*
G01X6278Y5002D01*
G01X6277Y4991D01*
G01X6276Y4983D01*
G01X6275Y4973D01*
G01X6274Y4965D01*
G01X6274Y4954D01*
G01X6273Y4946D01*
G01X6274Y4936D01*
G01X6274Y4931D01*
G01X6269Y4931D01*
G01X6259Y4932D01*
G01X6251Y4931D01*
G01X6240Y4931D01*
G01X6232Y4930D01*
G01X6222Y4929D01*
G01X6214Y4928D01*
G01X6203Y4927D01*
G01X6195Y4925D01*
G01X6184Y4923D01*
G01X6177Y4921D01*
G01X6167Y4919D01*
G01X6159Y4916D01*
G01X6148Y4913D01*
G01X6141Y4910D01*
G01X6131Y4906D01*
G01X6124Y4903D01*
G01X6113Y4899D01*
G01X6107Y4895D01*
G01X6097Y4890D01*
G01X6091Y4887D01*
G01X6080Y4881D01*
G01X6074Y4876D01*
G01X6065Y4871D01*
G01X6059Y4866D01*
G01X6050Y4859D01*
G01X6044Y4854D01*
G01X6036Y4847D01*
G01X6030Y4842D01*
G01X6022Y4835D01*
G01X6016Y4829D01*
G01X6009Y4821D01*
G01X6004Y4815D01*
G01X5997Y4807D01*
G01X5992Y4801D01*
G01X5985Y4792D01*
G01X5981Y4786D01*
G01X5975Y4777D01*
G01X5971Y4771D01*
G01X5965Y4760D01*
G01X5961Y4754D01*
G01X5956Y4745D01*
G01X5953Y4738D01*
G01X5948Y4727D01*
G01X5945Y4720D01*
G01X5941Y4710D01*
G01X5938Y4703D01*
G01X5935Y4692D01*
G01X5933Y4685D01*
G01X5930Y4674D01*
G01X5928Y4667D01*
G01X5926Y4656D01*
G01X5924Y4648D01*
G01X5923Y4637D01*
G01X5922Y4629D01*
G01X5921Y4619D01*
G01X5920Y4611D01*
G01X5920Y4600D01*
G01X5920Y4592D01*
G01X5920Y4582D01*
G01X5920Y4579D01*
G01X5917Y4579D01*
G01X5907Y4579D01*
G01X5899Y4579D01*
G01X5888Y4579D01*
G01X5880Y4578D01*
G01X5870Y4577D01*
G01X5862Y4576D01*
G01X5851Y4575D01*
G01X5843Y4573D01*
G01X5832Y4571D01*
G01X5825Y4569D01*
G01X5815Y4567D01*
G01X5807Y4564D01*
G01X5796Y4561D01*
G01X5789Y4558D01*
G01X5779Y4554D01*
G01X5772Y4551D01*
G01X5761Y4546D01*
G01X5755Y4543D01*
G01X5745Y4538D01*
G01X5739Y4535D01*
G01X5728Y4528D01*
G01X5722Y4524D01*
G01X5713Y4519D01*
G01X5707Y4514D01*
G01X5698Y4507D01*
G01X5692Y4502D01*
G01X5684Y4495D01*
G01X5678Y4490D01*
G01X5670Y4483D01*
G01X5664Y4477D01*
G01X5657Y4469D01*
G01X5652Y4463D01*
G01X5645Y4455D01*
G01X5640Y4449D01*
G01X5633Y4440D01*
G01X5629Y4434D01*
G01X5623Y4425D01*
G01X5619Y4419D01*
G01X5612Y4408D01*
G01X5609Y4402D01*
G01X5604Y4393D01*
G01X5601Y4386D01*
G01X5596Y4375D01*
G01X5593Y4368D01*
G01X5589Y4358D01*
G01X5586Y4351D01*
G01X5583Y4340D01*
G01X5581Y4332D01*
G01X5578Y4322D01*
G01X5576Y4315D01*
G01X5574Y4304D01*
G01X5572Y4296D01*
G01X5571Y4285D01*
G01X5570Y4277D01*
G01X5569Y4267D01*
G01X5568Y4259D01*
G01X5568Y4248D01*
G01X5568Y4240D01*
G01X5568Y4230D01*
G01X5568Y4225D01*
G01X5564Y4226D01*
G01X5553Y4226D01*
G01X5545Y4226D01*
G01X5534Y4225D01*
G01X5526Y4225D01*
G01X5516Y4224D01*
G01X5508Y4223D01*
G01X5497Y4221D01*
G01X5489Y4220D01*
G01X5478Y4217D01*
G01X5471Y4215D01*
G01X5461Y4213D01*
G01X5453Y4211D01*
G01X5442Y4207D01*
G01X5435Y4204D01*
G01X5425Y4200D01*
G01X5418Y4197D01*
G01X5408Y4193D01*
G01X5401Y4189D01*
G01X5392Y4185D01*
G01X5385Y4181D01*
G01X5375Y4175D01*
G01X5368Y4171D01*
G01X5359Y4165D01*
G01X5353Y4160D01*
G01X5344Y4153D01*
G01X5338Y4149D01*
G01X5330Y4142D01*
G01X5324Y4136D01*
G01X5316Y4129D01*
G01X5311Y4123D01*
G01X5303Y4115D01*
G01X5298Y4109D01*
G01X5291Y4101D01*
G01X5286Y4095D01*
G01X5279Y4086D01*
G01X5275Y4080D01*
G01X5269Y4071D01*
G01X5265Y4065D01*
G01X5259Y4055D01*
G01X5255Y4048D01*
G01X5250Y4039D01*
G01X5247Y4032D01*
G01X5242Y4022D01*
G01X5239Y4015D01*
G01X5235Y4004D01*
G01X5233Y3997D01*
G01X5229Y3986D01*
G01X5227Y3979D01*
G01X5224Y3969D01*
G01X5222Y3961D01*
G01X5220Y3950D01*
G01X5218Y3942D01*
G01X5217Y3931D01*
G01X5216Y3924D01*
G01X5215Y3913D01*
G01X5214Y3905D01*
G01X5214Y3894D01*
G01X5214Y3886D01*
G01X5214Y3876D01*
G01X5214Y3872D01*
G01X5210Y3872D01*
G01X5199Y3872D01*
G01X5191Y3872D01*
G01X5180Y3871D01*
G01X5173Y3871D01*
G01X5162Y3870D01*
G01X5154Y3869D01*
G01X5143Y3867D01*
G01X5136Y3866D01*
G01X5125Y3863D01*
G01X5117Y3862D01*
G01X5107Y3859D01*
G01X5100Y3857D01*
G01X5088Y3853D01*
G01X5081Y3850D01*
G01X5071Y3847D01*
G01X5064Y3844D01*
G01X5054Y3839D01*
G01X5047Y3835D01*
G01X5038Y3831D01*
G01X5031Y3827D01*
G01X5021Y3821D01*
G01X5014Y3817D01*
G01X5006Y3811D01*
G01X4999Y3806D01*
G01X4990Y3800D01*
G01X4984Y3795D01*
G01X4976Y3788D01*
G01X4970Y3783D01*
G01X4962Y3775D01*
G01X4957Y3770D01*
G01X4949Y3761D01*
G01X4944Y3756D01*
G01X4937Y3747D01*
G01X4932Y3741D01*
G01X4925Y3732D01*
G01X4921Y3726D01*
G01X4915Y3717D01*
G01X4911Y3711D01*
G01X4905Y3701D01*
G01X4901Y3694D01*
G01X4896Y3685D01*
G01X4893Y3678D01*
G01X4888Y3668D01*
G01X4885Y3661D01*
G01X4881Y3651D01*
G01X4879Y3643D01*
G01X4875Y3632D01*
G01X4873Y3625D01*
G01X4870Y3615D01*
G01X4868Y3607D01*
G01X4866Y3596D01*
G01X4865Y3589D01*
G01X4863Y3577D01*
G01X4862Y3570D01*
G01X4861Y3559D01*
G01X4861Y3551D01*
G01X4860Y3540D01*
G01X4860Y3533D01*
G01X4860Y3522D01*
G01X4860Y3518D01*
G01X4856Y3518D01*
G01X4845Y3518D01*
G01X4838Y3518D01*
G01X4826Y3517D01*
G01X4819Y3517D01*
G01X4808Y3516D01*
G01X4801Y3515D01*
G01X4789Y3513D01*
G01X4782Y3512D01*
G01X4771Y3510D01*
G01X4763Y3508D01*
G01X4753Y3505D01*
G01X4746Y3503D01*
G01X4735Y3499D01*
G01X4727Y3497D01*
G01X4717Y3493D01*
G01X4710Y3490D01*
G01X4700Y3485D01*
G01X4693Y3482D01*
G01X4684Y3477D01*
G01X4677Y3473D01*
G01X4667Y3467D01*
G01X4660Y3463D01*
G01X4652Y3457D01*
G01X4646Y3453D01*
G01X4637Y3446D01*
G01X4631Y3441D01*
G01X4622Y3434D01*
G01X4617Y3429D01*
G01X4608Y3421D01*
G01X4603Y3416D01*
G01X4595Y3408D01*
G01X4590Y3402D01*
G01X4583Y3394D01*
G01X4578Y3388D01*
G01X4572Y3379D01*
G01X4567Y3372D01*
G01X4561Y3364D01*
G01X4557Y3357D01*
G01X4551Y3347D01*
G01X4547Y3340D01*
G01X4543Y3331D01*
G01X4539Y3324D01*
G01X4534Y3314D01*
G01X4531Y3307D01*
G01X4527Y3297D01*
G01X4525Y3289D01*
G01X4521Y3278D01*
G01X4519Y3271D01*
G01X4516Y3261D01*
G01X4515Y3253D01*
G01X4512Y3242D01*
G01X4511Y3235D01*
G01X4509Y3224D01*
G01X4508Y3216D01*
G01X4507Y3205D01*
G01X4507Y3198D01*
G01X4506Y3186D01*
G01X4506Y3179D01*
G01X4506Y3168D01*
G01X4507Y3161D01*
G01X4507Y3149D01*
G01X4508Y3142D01*
G01X4509Y3130D01*
G01X4511Y3123D01*
G01X4513Y3112D01*
G01X4514Y3104D01*
G01X4517Y3094D01*
G01X4519Y3087D01*
G01X4522Y3075D01*
G01X4524Y3068D01*
G01X4528Y3058D01*
G01X4531Y3051D01*
G01X4535Y3041D01*
G01X4538Y3034D01*
G01X4543Y3024D01*
G01X4547Y3017D01*
G01X4552Y3008D01*
G01X4556Y3001D01*
G01X4562Y2991D01*
G01X4566Y2985D01*
G01X4573Y2976D01*
G01X4577Y2970D01*
G01X4584Y2961D01*
G01X4589Y2955D01*
G01X4596Y2948D01*
G01X4601Y2942D01*
G01X4606Y2938D01*
G01X5044Y2499D01*
G01X5048Y2495D01*
G01X5054Y2490D01*
G01X5062Y2483D01*
G01X5068Y2478D01*
G01X5076Y2471D01*
G01X5082Y2466D01*
G01X5091Y2460D01*
G01X5098Y2456D01*
G01X5107Y2449D01*
G01X5114Y2445D01*
G01X5123Y2440D01*
G01X5130Y2437D01*
G01X5140Y2432D01*
G01X5147Y2429D01*
G01X5158Y2424D01*
G01X5165Y2421D01*
G01X5175Y2418D01*
G01X5182Y2416D01*
G01X5193Y2412D01*
G01X5201Y2410D01*
G01X5210Y2408D01*
G01X5218Y2406D01*
G01X5229Y2404D01*
G01X5237Y2403D01*
G01X5248Y2402D01*
G01X5256Y2401D01*
G01X5267Y2400D01*
G01X5275Y2400D01*
G01X5285Y2400D01*
G01X5293Y2400D01*
G01X5304Y2400D01*
G01X5312Y2401D01*
G01X5322Y2402D01*
G01X5330Y2403D01*
G01X5341Y2404D01*
G01X5349Y2406D01*
G01X5360Y2408D01*
G01X5367Y2410D01*
G01X5377Y2413D01*
G01X5385Y2415D01*
G01X5396Y2418D01*
G01X5403Y2421D01*
G01X5413Y2425D01*
G01X5420Y2428D01*
G01X5431Y2433D01*
G01X5438Y2436D01*
G01X5447Y2441D01*
G01X5453Y2445D01*
G01X5464Y2451D01*
G01X5470Y2455D01*
G01X5479Y2461D01*
G01X5485Y2465D01*
G01X5494Y2472D01*
G01X5500Y2477D01*
G01X5508Y2484D01*
G01X5514Y2489D01*
G01X5522Y2497D01*
G01X5528Y2502D01*
G01X5535Y2510D01*
G01X5540Y2516D01*
G01X5547Y2524D01*
G01X5552Y2530D01*
G01X5559Y2539D01*
G01X5563Y2545D01*
G01X5569Y2554D01*
G01X5573Y2561D01*
G01X5580Y2571D01*
G01X5583Y2577D01*
G01X5588Y2587D01*
G01X5591Y2594D01*
G01X5596Y2604D01*
G01X5599Y2611D01*
G01X5603Y2621D01*
G01X5606Y2628D01*
G01X5609Y2639D01*
G01X5612Y2647D01*
G01X5614Y2657D01*
G01X5616Y2664D01*
G01X5618Y2675D01*
G01X5620Y2683D01*
G01X5621Y2694D01*
G01X5622Y2702D01*
G01X5623Y2712D01*
G01X5624Y2720D01*
G01X5624Y2731D01*
G01X5624Y2739D01*
G01X5624Y2750D01*
G01X5624Y2754D01*
G01X5628Y2754D01*
G01X5639Y2754D01*
G01X5647Y2754D01*
G01X5658Y2754D01*
G01X5666Y2755D01*
G01X5676Y2756D01*
G01X5684Y2757D01*
G01X5695Y2758D01*
G01X5703Y2760D01*
G01X5714Y2762D01*
G01X5721Y2764D01*
G01X5731Y2766D01*
G01X5739Y2769D01*
G01X5750Y2772D01*
G01X5757Y2775D01*
G01X5767Y2779D01*
G01X5774Y2782D01*
G01X5784Y2787D01*
G01X5791Y2790D01*
G01X5800Y2795D01*
G01X5807Y2798D01*
G01X5817Y2804D01*
G01X5824Y2809D01*
G01X5833Y2814D01*
G01X5839Y2819D01*
G01X5848Y2826D01*
G01X5854Y2831D01*
G01X5862Y2838D01*
G01X5868Y2843D01*
G01X5876Y2850D01*
G01X5881Y2856D01*
G01X5889Y2864D01*
G01X5894Y2870D01*
G01X5901Y2878D01*
G01X5906Y2884D01*
G01X5913Y2893D01*
G01X5917Y2899D01*
G01X5923Y2908D01*
G01X5927Y2914D01*
G01X5933Y2925D01*
G01X5937Y2931D01*
G01X5942Y2940D01*
G01X5945Y2947D01*
G01X5950Y2958D01*
G01X5953Y2965D01*
G01X5957Y2975D01*
G01X5960Y2982D01*
G01X5963Y2993D01*
G01X5965Y3001D01*
G01X5968Y3011D01*
G01X5970Y3018D01*
G01X5972Y3029D01*
G01X5974Y3037D01*
G01X5975Y3048D01*
G01X5976Y3056D01*
G01X5977Y3066D01*
G01X5978Y3074D01*
G01X5978Y3085D01*
G01X5978Y3093D01*
G01X5978Y3103D01*
G01X5978Y3108D01*
G01X5982Y3107D01*
G01X5993Y3107D01*
G01X6001Y3107D01*
G01X6012Y3108D01*
G01X6019Y3108D01*
G01X6030Y3109D01*
G01X6038Y3110D01*
G01X6049Y3112D01*
G01X6056Y3113D01*
G01X6068Y3116D01*
G01X6075Y3118D01*
G01X6085Y3120D01*
G01X6092Y3122D01*
G01X6104Y3126D01*
G01X6111Y3129D01*
G01X6121Y3133D01*
G01X6128Y3136D01*
G01X6138Y3140D01*
G01X6145Y3144D01*
G01X6154Y3148D01*
G01X6161Y3152D01*
G01X6171Y3158D01*
G01X6178Y3162D01*
G01X6186Y3168D01*
G01X6193Y3173D01*
G01X6202Y3180D01*
G01X6208Y3184D01*
G01X6216Y3191D01*
G01X6222Y3197D01*
G01X6230Y3204D01*
G01X6235Y3210D01*
G01X6243Y3218D01*
G01X6248Y3223D01*
G01X6255Y3232D01*
G01X6260Y3238D01*
G01X6267Y3247D01*
G01X6271Y3253D01*
G01X6277Y3262D01*
G01X6281Y3268D01*
G01X6287Y3278D01*
G01X6291Y3285D01*
G01X6296Y3294D01*
G01X6299Y3301D01*
G01X6304Y3311D01*
G01X6307Y3318D01*
G01X6311Y3329D01*
G01X6313Y3336D01*
G01X6317Y3347D01*
G01X6319Y3354D01*
G01X6322Y3364D01*
G01X6324Y3372D01*
G01X6326Y3383D01*
G01X6327Y3391D01*
G01X6329Y3402D01*
G01X6330Y3409D01*
G01X6331Y3420D01*
G01X6332Y3428D01*
G01X6332Y3439D01*
G01X6332Y3447D01*
G01X6332Y3457D01*
G01X6332Y3461D01*
G01X6336Y3461D01*
G01X6347Y3461D01*
G01X6354Y3461D01*
G01X6366Y3462D01*
G01X6373Y3462D01*
G01X6384Y3463D01*
G01X6391Y3464D01*
G01X6403Y3466D01*
G01X6410Y3467D01*
G01X6421Y3470D01*
G01X6429Y3471D01*
G01X6439Y3474D01*
G01X6446Y3476D01*
G01X6457Y3480D01*
G01X6465Y3483D01*
G01X6475Y3486D01*
G01X6482Y3489D01*
G01X6492Y3494D01*
G01X6499Y3498D01*
G01X6508Y3502D01*
G01X6515Y3506D01*
G01X6525Y3512D01*
G01X6532Y3516D01*
G01X6540Y3522D01*
G01X6546Y3527D01*
G01X6555Y3533D01*
G01X6562Y3538D01*
G01X6570Y3545D01*
G01X6576Y3550D01*
G01X6584Y3558D01*
G01X6589Y3563D01*
G01X6597Y3572D01*
G01X6602Y3577D01*
G01X6609Y3586D01*
G01X6614Y3592D01*
G01X6620Y3601D01*
G01X6625Y3607D01*
G01X6631Y3616D01*
G01X6635Y3622D01*
G01X6641Y3632D01*
G01X6645Y3639D01*
G01X6649Y3648D01*
G01X6653Y3655D01*
G01X6658Y3665D01*
G01X6661Y3672D01*
G01X6665Y3682D01*
G01X6667Y3690D01*
G01X6671Y3701D01*
G01X6673Y3708D01*
G01X6676Y3718D01*
G01X6677Y3726D01*
G01X6680Y3737D01*
G01X6681Y3744D01*
G01X6683Y3756D01*
G01X6684Y3763D01*
G01X6685Y3774D01*
G01X6685Y3782D01*
G01X6686Y3793D01*
G01X6686Y3800D01*
G01X6686Y3811D01*
G01X6686Y3813D01*
G01X6688Y3813D01*
G01X6699Y3813D01*
G01X6706Y3813D01*
G01X6718Y3814D01*
G01X6725Y3814D01*
G01X6736Y3815D01*
G01X6744Y3816D01*
G01X6755Y3818D01*
G01X6762Y3819D01*
G01X6773Y3822D01*
G01X6781Y3823D01*
G01X6791Y3826D01*
G01X6798Y3828D01*
G01X6809Y3832D01*
G01X6817Y3835D01*
G01X6827Y3839D01*
G01X6834Y3842D01*
G01X6844Y3846D01*
G01X6851Y3850D01*
G01X6860Y3854D01*
G01X6867Y3858D01*
G01X6877Y3864D01*
G01X6884Y3868D01*
G01X6892Y3874D01*
G01X6898Y3879D01*
G01X6908Y3885D01*
G01X6914Y3890D01*
G01X6922Y3897D01*
G01X6928Y3902D01*
G01X6936Y3910D01*
G01X6941Y3915D01*
G01X6949Y3924D01*
G01X6954Y3929D01*
G01X6961Y3938D01*
G01X6966Y3944D01*
G01X6973Y3953D01*
G01X6977Y3959D01*
G01X6983Y3968D01*
G01X6987Y3974D01*
G01X6993Y3984D01*
G01X6997Y3991D01*
G01X7002Y4000D01*
G01X7005Y4007D01*
G01X7010Y4017D01*
G01X7013Y4024D01*
G01X7017Y4034D01*
G01X7019Y4042D01*
G01X7023Y4053D01*
G01X7025Y4060D01*
G01X7028Y4070D01*
G01X7030Y4078D01*
G01X7032Y4089D01*
G01X7033Y4096D01*
G01X7035Y4108D01*
G01X7036Y4115D01*
G01X7037Y4126D01*
G01X7037Y4134D01*
G01X7038Y4145D01*
G01X7038Y4152D01*
G01X7038Y4163D01*
G01X7038Y4167D01*
G01X7042Y4167D01*
G01X7053Y4167D01*
G01X7060Y4167D01*
G01X7071Y4168D01*
G01X7079Y4168D01*
G01X7090Y4169D01*
G01X7097Y4170D01*
G01X7108Y4172D01*
G01X7116Y4173D01*
G01X7127Y4175D01*
G01X7135Y4177D01*
G01X7145Y4180D01*
G01X7152Y4182D01*
G01X7163Y4186D01*
G01X7170Y4188D01*
G01X7181Y4192D01*
G01X7188Y4195D01*
G01X7198Y4200D01*
G01X7205Y4203D01*
G01X7214Y4208D01*
G01X7221Y4212D01*
G01X7231Y4218D01*
G01X7237Y4222D01*
G01X7246Y4228D01*
G01X7252Y4232D01*
G01X7261Y4239D01*
G01X7267Y4244D01*
G01X7276Y4251D01*
G01X7281Y4256D01*
G01X7289Y4264D01*
G01X7295Y4269D01*
G01X7303Y4277D01*
G01X7308Y4283D01*
G01X7315Y4291D01*
G01X7320Y4297D01*
G01X7326Y4306D01*
G01X7331Y4313D01*
G01X7337Y4321D01*
G01X7341Y4328D01*
G01X7347Y4338D01*
G01X7351Y4345D01*
G01X7355Y4354D01*
G01X7359Y4361D01*
G01X7363Y4371D01*
G01X7366Y4378D01*
G01X7370Y4388D01*
G01X7373Y4396D01*
G01X7377Y4407D01*
G01X7379Y4414D01*
G01X7382Y4424D01*
G01X7383Y4432D01*
G01X7385Y4440D01*
G01X7449Y4375D01*
G01X7449Y3374D01*
G01X6861Y2785D01*
G01X6815Y2801D01*
G01X6747Y2816D01*
G01X6677Y2825D01*
G01X6607Y2827D01*
G01X6537Y2822D01*
G01X6468Y2809D01*
G01X6401Y2790D01*
G01X6336Y2765D01*
G01X6273Y2733D01*
G01X6214Y2695D01*
G01X6160Y2651D01*
G01X6110Y2602D01*
G01X6065Y2549D01*
G01X6025Y2491D01*
G01X5992Y2429D01*
G01X5964Y2365D01*
G01X5944Y2298D01*
G01X5930Y2229D01*
G01X5923Y2159D01*
G01X5923Y2089D01*
G01X5930Y2020D01*
G01X5944Y1951D01*
G01X5964Y1884D01*
G01X5992Y1820D01*
G01X6025Y1758D01*
G01X6065Y1700D01*
G01X6110Y1647D01*
G01X6160Y1598D01*
G01X6214Y1554D01*
G01X6273Y1516D01*
G01X6336Y1484D01*
G01X6401Y1459D01*
G01X6468Y1440D01*
G01X6537Y1427D01*
G01X6607Y1422D01*
G01X6677Y1424D01*
G01X6747Y1433D01*
G01X6815Y1448D01*
G01X6881Y1470D01*
G01X6945Y1499D01*
G01X7006Y1534D01*
G01X7063Y1575D01*
G01X7115Y1622D01*
G01X7163Y1673D01*
G01X7205Y1729D01*
G01X7242Y1788D01*
G01X7272Y1852D01*
G01X7296Y1917D01*
G01X7313Y1985D01*
G01X7324Y2055D01*
G01X7327Y2124D01*
G01X7324Y2194D01*
G01X7313Y2264D01*
G01X7296Y2332D01*
G01X7285Y2361D01*
G01X7962Y3037D01*
G01X7970Y3046D01*
G01X7978Y3055D01*
G01X7985Y3064D01*
G01X7992Y3073D01*
G01X7999Y3083D01*
G01X8005Y3093D01*
G01X8011Y3103D01*
G01X8017Y3113D01*
G01X8022Y3124D01*
G01X8027Y3135D01*
G01X8031Y3146D01*
G01X8035Y3157D01*
G01X8038Y3168D01*
G01X8041Y3179D01*
G01X8044Y3191D01*
G01X8046Y3202D01*
G01X8047Y3214D01*
G01X8049Y3226D01*
G01X8049Y3238D01*
G01X8049Y3249D01*
G01X8049Y4499D01*
G01X8049Y4511D01*
G01X8049Y4523D01*
G01X8047Y4535D01*
G01X8046Y4546D01*
G01X8044Y4558D01*
G01X8041Y4569D01*
G01X8038Y4581D01*
G01X8035Y4592D01*
G01X8031Y4603D01*
G01X8027Y4614D01*
G01X8022Y4625D01*
G01X8017Y4636D01*
G01X8011Y4646D01*
G01X8005Y4656D01*
G01X7999Y4666D01*
G01X7992Y4676D01*
G01X7985Y4685D01*
G01X7978Y4694D01*
G01X7970Y4703D01*
G01X7962Y4712D01*
G01X7797Y4877D01*
G01X7797Y4877D01*
G01X7805Y4878D01*
G01X7816Y4879D01*
G01X7824Y4881D01*
G01X7835Y4883D01*
G01X7842Y4885D01*
G01X7852Y4888D01*
G01X7860Y4890D01*
G01X7871Y4893D01*
G01X7878Y4896D01*
G01X7888Y4900D01*
G01X7895Y4903D01*
G01X7906Y4908D01*
G01X7912Y4911D01*
G01X7922Y4916D01*
G01X7928Y4920D01*
G01X7939Y4926D01*
G01X7945Y4930D01*
G01X7954Y4936D01*
G01X7960Y4940D01*
G01X7969Y4947D01*
G01X7975Y4952D01*
G01X7983Y4959D01*
G01X7989Y4964D01*
G01X7997Y4972D01*
G01X8003Y4977D01*
G01X8010Y4985D01*
G01X8015Y4991D01*
G01X8022Y4999D01*
G01X8027Y5005D01*
G01X8034Y5014D01*
G01X8038Y5020D01*
G01X8044Y5029D01*
G01X8048Y5036D01*
G01X8055Y5046D01*
G01X8058Y5052D01*
G01X8063Y5062D01*
G01X8066Y5069D01*
G01X8071Y5079D01*
G01X8074Y5086D01*
G01X8078Y5096D01*
G01X8081Y5103D01*
G01X8084Y5114D01*
G01X8086Y5122D01*
G01X8089Y5132D01*
G01X8090Y5134D01*
G01X8514Y5134D01*
G01X8526Y5134D01*
G01X8538Y5135D01*
G01X8549Y5136D01*
G01X8561Y5137D01*
G01X8573Y5139D01*
G01X8584Y5142D01*
G01X8595Y5145D01*
G01X8607Y5148D01*
G01X8618Y5152D01*
G01X8629Y5157D01*
G01X8640Y5161D01*
G01X8650Y5166D01*
G01X8661Y5172D01*
G01X8671Y5178D01*
G01X8681Y5184D01*
G01X8690Y5191D01*
G01X8700Y5198D01*
G01X8709Y5206D01*
G01X8718Y5213D01*
G01X8726Y5222D01*
G01X8799Y5294D01*
G01X8953Y5294D01*
G01X8962Y5295D01*
G01X8972Y5295D01*
G01X8981Y5296D01*
G01X8991Y5298D01*
G01X9000Y5300D01*
G01X9009Y5302D01*
G01X9018Y5305D01*
G01X9027Y5309D01*
G01X9036Y5312D01*
G01X9044Y5317D01*
G01X9053Y5321D01*
G01X9061Y5326D01*
G01X9069Y5331D01*
G01X9076Y5337D01*
G01X9084Y5343D01*
G01X9091Y5350D01*
G01X9097Y5356D01*
G01X9104Y5363D01*
G01X9110Y5371D01*
G01X9116Y5378D01*
G01X9121Y5386D01*
G01X9126Y5394D01*
G01X9130Y5403D01*
G01X9135Y5411D01*
G01X9138Y5420D01*
G01X9142Y5429D01*
G01X9145Y5438D01*
G01X9147Y5447D01*
G01X9149Y5456D01*
G01X9151Y5466D01*
G01X9152Y5475D01*
G01X9152Y5485D01*
G01X9153Y5494D01*
G01X9153Y5844D01*
G01X9152Y5854D01*
G01X9152Y5863D01*
G01X9151Y5873D01*
G01X9149Y5882D01*
G01X9147Y5891D01*
G01X9145Y5901D01*
G01X9142Y5910D01*
G01X9138Y5919D01*
G01X9135Y5927D01*
G01X9130Y5936D01*
G01X9126Y5944D01*
G01X9121Y5952D01*
G01X9116Y5960D01*
G01X9110Y5968D01*
G01X9104Y5975D01*
G01X9097Y5982D01*
G01X9091Y5989D01*
G01X9084Y5995D01*
G01X9079Y5999D01*
G01X9084Y6003D01*
G01X9091Y6010D01*
G01X9097Y6016D01*
G01X9104Y6023D01*
G01X9110Y6031D01*
G01X9116Y6038D01*
G01X9121Y6046D01*
G01X9126Y6054D01*
G01X9130Y6063D01*
G01X9135Y6071D01*
G01X9138Y6080D01*
G01X9142Y6089D01*
G01X9145Y6098D01*
G01X9147Y6107D01*
G01X9149Y6117D01*
G01X9151Y6126D01*
G01X9152Y6135D01*
G01X9152Y6145D01*
G01X9153Y6154D01*
G01X9153Y6505D01*
G01X9152Y6514D01*
G01X9152Y6524D01*
G01X9151Y6533D01*
G01X9149Y6543D01*
G01X9147Y6552D01*
G01X9145Y6561D01*
G01X9142Y6570D01*
G01X9138Y6579D01*
G01X9135Y6588D01*
G01X9130Y6597D01*
G01X9126Y6605D01*
G01X9121Y6613D01*
G01X9116Y6621D01*
G01X9110Y6629D01*
G01X9104Y6636D01*
G01X9097Y6643D01*
G01X9091Y6650D01*
G01X9084Y6656D01*
G01X9076Y6662D01*
G01X9069Y6668D01*
G01X9061Y6673D01*
G01X9053Y6678D01*
G01X9049Y6680D01*
G01X9049Y6740D01*
G01X9088Y6745D01*
G01X9138Y6756D01*
G01X9187Y6772D01*
G01X9233Y6793D01*
G01X9277Y6819D01*
G01X9319Y6849D01*
G01X9326Y6855D01*
G01X9326Y5288D01*
G01X9287Y5257D01*
G01X9251Y5222D01*
G01X9218Y5182D01*
G01X9189Y5140D01*
G01X9165Y5095D01*
G01X9145Y5048D01*
G01X9130Y4999D01*
G01X9120Y4949D01*
G01X9115Y4899D01*
G01X9115Y4847D01*
G01X9120Y4797D01*
G01X9130Y4747D01*
G01X9145Y4698D01*
G01X9165Y4651D01*
G01X9189Y4606D01*
G01X9218Y4564D01*
G01X9251Y4524D01*
G01X9287Y4489D01*
G01X9327Y4457D01*
G01X9370Y4429D01*
G01X9416Y4406D01*
G01X9463Y4387D01*
G01X9512Y4373D01*
G01X9563Y4365D01*
G01X9614Y4361D01*
G01X9665Y4362D01*
G01X9715Y4368D01*
G01X9765Y4380D01*
G01X9814Y4396D01*
G01X9860Y4417D01*
G01X9905Y4443D01*
G01X9946Y4472D01*
G01X9974Y4497D01*
G01X9974Y3500D01*
G01X9975Y3489D01*
G01X9956Y3482D01*
G01X9947Y3478D01*
G01X9902Y3458D01*
G01X9893Y3453D01*
G01X9848Y3431D01*
G01X9840Y3426D01*
G01X9796Y3401D01*
G01X9788Y3396D01*
G01X9746Y3369D01*
G01X9738Y3363D01*
G01X9697Y3334D01*
G01X9689Y3328D01*
G01X9650Y3297D01*
G01X9643Y3290D01*
G01X9605Y3257D01*
G01X9598Y3251D01*
G01X9562Y3216D01*
G01X9555Y3209D01*
G01X9522Y3172D01*
G01X9515Y3165D01*
G01X9483Y3126D01*
G01X9477Y3119D01*
G01X9447Y3079D01*
G01X9441Y3071D01*
G01X9440Y3070D01*
G01X8183Y3070D01*
G01X8174Y3070D01*
G01X8164Y3069D01*
G01X8155Y3068D01*
G01X8146Y3066D01*
G01X8136Y3064D01*
G01X8127Y3062D01*
G01X8118Y3059D01*
G01X8109Y3055D01*
G01X8100Y3052D01*
G01X8092Y3048D01*
G01X8083Y3043D01*
G01X8075Y3038D01*
G01X8067Y3033D01*
G01X8060Y3027D01*
G01X8052Y3021D01*
G01X8045Y3015D01*
G01X8039Y3008D01*
G01X8032Y3001D01*
G01X8026Y2993D01*
G01X8020Y2986D01*
G01X8015Y2978D01*
G01X8010Y2970D01*
G01X8006Y2961D01*
G01X8001Y2953D01*
G01X7998Y2944D01*
G01X7994Y2935D01*
G01X7991Y2926D01*
G01X7989Y2917D01*
G01X7987Y2908D01*
G01X7985Y2898D01*
G01X7984Y2889D01*
G01X7984Y2879D01*
G01X7983Y2870D01*
G01X7983Y1879D01*
G01X7984Y1870D01*
G01X7984Y1860D01*
G01X7985Y1851D01*
G01X7987Y1841D01*
G01X7989Y1832D01*
G01X7991Y1823D01*
G01X7994Y1814D01*
G01X7998Y1805D01*
G01X8001Y1796D01*
G01X8006Y1788D01*
G01X8010Y1779D01*
G01X8015Y1771D01*
G01X8020Y1763D01*
G01X8026Y1756D01*
G01X8032Y1748D01*
G01X8039Y1741D01*
G01X8045Y1734D01*
G01X8052Y1728D01*
G01X8060Y1722D01*
G01X8067Y1716D01*
G01X8075Y1711D01*
G01X8083Y1706D01*
G01X8092Y1701D01*
G01X8100Y1697D01*
G01X8109Y1694D01*
G01X8118Y1690D01*
G01X8127Y1687D01*
G01X8136Y1685D01*
G01X8146Y1683D01*
G01X8155Y1681D01*
G01X8164Y1680D01*
G01X8174Y1679D01*
G01X8183Y1679D01*
G01X9440Y1679D01*
G01X9441Y1678D01*
G01X9447Y1670D01*
G01X9477Y1630D01*
G01X9483Y1622D01*
G01X9515Y1584D01*
G01X9522Y1577D01*
G01X9555Y1540D01*
G01X9562Y1533D01*
G01X9598Y1498D01*
G01X9605Y1491D01*
G01X9643Y1458D01*
G01X9650Y1452D01*
G01X9689Y1421D01*
G01X9697Y1415D01*
G01X9738Y1386D01*
G01X9746Y1380D01*
G01X9788Y1353D01*
G01X9796Y1348D01*
G01X9840Y1323D01*
G01X9848Y1318D01*
G01X9893Y1295D01*
G01X9902Y1291D01*
G01X9947Y1271D01*
G01X9956Y1267D01*
G01X10003Y1249D01*
G01X10012Y1245D01*
G01X10059Y1229D01*
G01X10069Y1226D01*
G01X10117Y1213D01*
G01X10127Y1210D01*
G01X10175Y1199D01*
G01X10185Y1197D01*
G01X10234Y1189D01*
G01X10244Y1187D01*
G01X10293Y1181D01*
G01X10303Y1180D01*
G01X10353Y1176D01*
G01X10363Y1176D01*
G01X10413Y1174D01*
G01X10418Y1174D01*
G01X11918Y1174D01*
G01X11923Y1174D01*
G01X11973Y1176D01*
G01X11983Y1176D01*
G01X12032Y1180D01*
G01X12042Y1181D01*
G01X12092Y1187D01*
G01X12102Y1189D01*
G01X12151Y1197D01*
G01X12160Y1199D01*
G01X12209Y1210D01*
G01X12219Y1213D01*
G01X12267Y1226D01*
G01X12276Y1229D01*
G01X12324Y1245D01*
G01X12333Y1249D01*
G01X12379Y1267D01*
G01X12389Y1271D01*
G01X12434Y1291D01*
G01X12443Y1295D01*
G01X12487Y1318D01*
G01X12496Y1323D01*
G01X12539Y1348D01*
G01X12548Y1353D01*
G01X12590Y1380D01*
G01X12598Y1386D01*
G01X12638Y1415D01*
G01X12646Y1421D01*
G01X12685Y1452D01*
G01X12693Y1458D01*
G01X12730Y1491D01*
G01X12738Y1498D01*
G01X12773Y1533D01*
G01X12780Y1540D01*
G01X12814Y1577D01*
G01X12821Y1584D01*
G01X12853Y1622D01*
G01X12859Y1630D01*
G01X12889Y1670D01*
G01X12895Y1678D01*
G01X12923Y1719D01*
G01X12929Y1728D01*
G01X12955Y1770D01*
G01X12960Y1779D01*
G01X12983Y1823D01*
G01X12988Y1831D01*
G01X12999Y1855D01*
G01X12999Y0D01*
G37*

%LPC*%
G36*
G01X8225Y155D02*
G01X8234Y155D01*
G01X9428Y155D01*
G01X9438Y155D01*
G01X9447Y156D01*
G01X9456Y157D01*
G01X9466Y159D01*
G01X9475Y161D01*
G01X9484Y163D01*
G01X9493Y166D01*
G01X9502Y170D01*
G01X9511Y173D01*
G01X9520Y177D01*
G01X9528Y182D01*
G01X9536Y187D01*
G01X9544Y192D01*
G01X9552Y198D01*
G01X9559Y204D01*
G01X9566Y210D01*
G01X9573Y217D01*
G01X9579Y224D01*
G01X9585Y232D01*
G01X9591Y239D01*
G01X9596Y247D01*
G01X9601Y255D01*
G01X9606Y264D01*
G01X9610Y272D01*
G01X9614Y281D01*
G01X9617Y290D01*
G01X9620Y299D01*
G01X9622Y308D01*
G01X9624Y317D01*
G01X9626Y327D01*
G01X9627Y336D01*
G01X9628Y346D01*
G01X9628Y355D01*
G01X9628Y1346D01*
G01X9628Y1355D01*
G01X9627Y1365D01*
G01X9626Y1374D01*
G01X9624Y1384D01*
G01X9622Y1393D01*
G01X9620Y1402D01*
G01X9617Y1411D01*
G01X9614Y1420D01*
G01X9610Y1429D01*
G01X9606Y1437D01*
G01X9601Y1446D01*
G01X9596Y1454D01*
G01X9591Y1462D01*
G01X9585Y1469D01*
G01X9579Y1477D01*
G01X9573Y1484D01*
G01X9566Y1491D01*
G01X9559Y1497D01*
G01X9552Y1503D01*
G01X9544Y1509D01*
G01X9536Y1514D01*
G01X9528Y1519D01*
G01X9520Y1524D01*
G01X9511Y1528D01*
G01X9502Y1531D01*
G01X9493Y1535D01*
G01X9484Y1538D01*
G01X9475Y1540D01*
G01X9466Y1542D01*
G01X9456Y1544D01*
G01X9447Y1545D01*
G01X9438Y1546D01*
G01X9428Y1546D01*
G01X8234Y1546D01*
G01X8225Y1546D01*
G01X8215Y1545D01*
G01X8206Y1544D01*
G01X8196Y1542D01*
G01X8187Y1540D01*
G01X8178Y1538D01*
G01X8169Y1535D01*
G01X8160Y1531D01*
G01X8151Y1528D01*
G01X8143Y1524D01*
G01X8134Y1519D01*
G01X8126Y1514D01*
G01X8118Y1509D01*
G01X8111Y1503D01*
G01X8103Y1497D01*
G01X8096Y1491D01*
G01X8089Y1484D01*
G01X8083Y1477D01*
G01X8077Y1469D01*
G01X8071Y1462D01*
G01X8066Y1454D01*
G01X8061Y1446D01*
G01X8056Y1437D01*
G01X8052Y1429D01*
G01X8049Y1420D01*
G01X8045Y1411D01*
G01X8042Y1402D01*
G01X8040Y1393D01*
G01X8038Y1384D01*
G01X8036Y1374D01*
G01X8035Y1365D01*
G01X8034Y1355D01*
G01X8034Y1346D01*
G01X8034Y1251D01*
G01X3847Y1251D01*
G01X3819Y1275D01*
G01X3778Y1305D01*
G01X3733Y1331D01*
G01X3687Y1352D01*
G01X3638Y1368D01*
G01X3622Y1372D01*
G01X3622Y2413D01*
G01X3632Y2410D01*
G01X3639Y2408D01*
G01X3650Y2406D01*
G01X3658Y2404D01*
G01X3669Y2403D01*
G01X3677Y2402D01*
G01X3687Y2401D01*
G01X3695Y2400D01*
G01X3706Y2400D01*
G01X3714Y2400D01*
G01X3724Y2400D01*
G01X3732Y2400D01*
G01X3743Y2401D01*
G01X3751Y2402D01*
G01X3762Y2403D01*
G01X3770Y2404D01*
G01X3781Y2406D01*
G01X3788Y2408D01*
G01X3798Y2410D01*
G01X3806Y2412D01*
G01X3817Y2416D01*
G01X3824Y2418D01*
G01X3834Y2421D01*
G01X3841Y2424D01*
G01X3852Y2429D01*
G01X3859Y2432D01*
G01X3869Y2437D01*
G01X3876Y2440D01*
G01X3885Y2445D01*
G01X3892Y2449D01*
G01X3901Y2456D01*
G01X3908Y2460D01*
G01X3916Y2466D01*
G01X3923Y2471D01*
G01X3931Y2478D01*
G01X3937Y2483D01*
G01X3945Y2490D01*
G01X3951Y2495D01*
G01X3955Y2499D01*
G01X4393Y2938D01*
G01X4398Y2942D01*
G01X4403Y2948D01*
G01X4410Y2955D01*
G01X4415Y2961D01*
G01X4422Y2970D01*
G01X4426Y2976D01*
G01X4433Y2985D01*
G01X4437Y2991D01*
G01X4443Y3001D01*
G01X4447Y3008D01*
G01X4452Y3017D01*
G01X4456Y3024D01*
G01X4461Y3034D01*
G01X4464Y3041D01*
G01X4468Y3051D01*
G01X4471Y3058D01*
G01X4475Y3068D01*
G01X4477Y3075D01*
G01X4480Y3087D01*
G01X4482Y3094D01*
G01X4485Y3104D01*
G01X4486Y3112D01*
G01X4488Y3123D01*
G01X4490Y3130D01*
G01X4491Y3142D01*
G01X4492Y3149D01*
G01X4492Y3161D01*
G01X4493Y3168D01*
G01X4493Y3179D01*
G01X4493Y3186D01*
G01X4492Y3198D01*
G01X4492Y3205D01*
G01X4491Y3216D01*
G01X4490Y3224D01*
G01X4488Y3235D01*
G01X4487Y3242D01*
G01X4484Y3253D01*
G01X4483Y3261D01*
G01X4480Y3271D01*
G01X4478Y3278D01*
G01X4474Y3289D01*
G01X4472Y3297D01*
G01X4468Y3307D01*
G01X4465Y3314D01*
G01X4460Y3324D01*
G01X4456Y3331D01*
G01X4452Y3340D01*
G01X4448Y3347D01*
G01X4442Y3357D01*
G01X4438Y3364D01*
G01X4432Y3372D01*
G01X4427Y3379D01*
G01X4421Y3388D01*
G01X4416Y3394D01*
G01X4409Y3402D01*
G01X4404Y3408D01*
G01X4396Y3416D01*
G01X4391Y3421D01*
G01X4382Y3429D01*
G01X4377Y3434D01*
G01X4368Y3441D01*
G01X4362Y3446D01*
G01X4353Y3453D01*
G01X4347Y3457D01*
G01X4339Y3463D01*
G01X4332Y3467D01*
G01X4322Y3473D01*
G01X4315Y3477D01*
G01X4306Y3482D01*
G01X4299Y3485D01*
G01X4289Y3490D01*
G01X4282Y3493D01*
G01X4272Y3497D01*
G01X4264Y3499D01*
G01X4253Y3503D01*
G01X4246Y3505D01*
G01X4236Y3508D01*
G01X4228Y3510D01*
G01X4217Y3512D01*
G01X4210Y3513D01*
G01X4198Y3515D01*
G01X4191Y3516D01*
G01X4180Y3517D01*
G01X4173Y3517D01*
G01X4161Y3518D01*
G01X4154Y3518D01*
G01X4143Y3518D01*
G01X4139Y3518D01*
G01X4139Y3522D01*
G01X4139Y3533D01*
G01X4139Y3540D01*
G01X4138Y3551D01*
G01X4138Y3559D01*
G01X4137Y3570D01*
G01X4136Y3577D01*
G01X4134Y3589D01*
G01X4133Y3596D01*
G01X4131Y3607D01*
G01X4129Y3615D01*
G01X4126Y3625D01*
G01X4124Y3632D01*
G01X4120Y3643D01*
G01X4118Y3651D01*
G01X4114Y3661D01*
G01X4111Y3668D01*
G01X4106Y3678D01*
G01X4103Y3685D01*
G01X4098Y3694D01*
G01X4094Y3701D01*
G01X4088Y3711D01*
G01X4084Y3717D01*
G01X4078Y3726D01*
G01X4074Y3732D01*
G01X4067Y3741D01*
G01X4062Y3747D01*
G01X4055Y3756D01*
G01X4050Y3761D01*
G01X4042Y3770D01*
G01X4037Y3775D01*
G01X4029Y3783D01*
G01X4023Y3788D01*
G01X4015Y3795D01*
G01X4009Y3800D01*
G01X4000Y3806D01*
G01X3993Y3811D01*
G01X3985Y3817D01*
G01X3978Y3821D01*
G01X3968Y3827D01*
G01X3961Y3831D01*
G01X3952Y3835D01*
G01X3945Y3839D01*
G01X3935Y3844D01*
G01X3928Y3847D01*
G01X3918Y3850D01*
G01X3910Y3853D01*
G01X3899Y3857D01*
G01X3892Y3859D01*
G01X3882Y3862D01*
G01X3874Y3863D01*
G01X3863Y3866D01*
G01X3856Y3867D01*
G01X3845Y3869D01*
G01X3837Y3870D01*
G01X3826Y3871D01*
G01X3819Y3871D01*
G01X3808Y3872D01*
G01X3800Y3872D01*
G01X3789Y3872D01*
G01X3785Y3872D01*
G01X3785Y3876D01*
G01X3785Y3886D01*
G01X3785Y3894D01*
G01X3785Y3905D01*
G01X3784Y3913D01*
G01X3783Y3924D01*
G01X3782Y3931D01*
G01X3780Y3942D01*
G01X3779Y3950D01*
G01X3777Y3961D01*
G01X3775Y3969D01*
G01X3772Y3979D01*
G01X3770Y3986D01*
G01X3766Y3997D01*
G01X3764Y4004D01*
G01X3760Y4015D01*
G01X3757Y4022D01*
G01X3752Y4032D01*
G01X3749Y4039D01*
G01X3744Y4048D01*
G01X3740Y4055D01*
G01X3734Y4065D01*
G01X3730Y4071D01*
G01X3724Y4080D01*
G01X3720Y4086D01*
G01X3713Y4095D01*
G01X3708Y4101D01*
G01X3701Y4109D01*
G01X3696Y4115D01*
G01X3688Y4123D01*
G01X3683Y4129D01*
G01X3675Y4136D01*
G01X3669Y4142D01*
G01X3661Y4149D01*
G01X3655Y4153D01*
G01X3646Y4160D01*
G01X3639Y4165D01*
G01X3631Y4171D01*
G01X3624Y4175D01*
G01X3614Y4181D01*
G01X3607Y4185D01*
G01X3598Y4189D01*
G01X3591Y4193D01*
G01X3581Y4197D01*
G01X3574Y4200D01*
G01X3564Y4204D01*
G01X3557Y4207D01*
G01X3546Y4211D01*
G01X3538Y4213D01*
G01X3528Y4215D01*
G01X3521Y4217D01*
G01X3510Y4220D01*
G01X3502Y4221D01*
G01X3491Y4223D01*
G01X3483Y4224D01*
G01X3473Y4225D01*
G01X3465Y4225D01*
G01X3454Y4226D01*
G01X3446Y4226D01*
G01X3435Y4226D01*
G01X3431Y4225D01*
G01X3431Y4230D01*
G01X3431Y4240D01*
G01X3431Y4248D01*
G01X3431Y4259D01*
G01X3430Y4267D01*
G01X3429Y4277D01*
G01X3428Y4285D01*
G01X3427Y4296D01*
G01X3425Y4304D01*
G01X3423Y4315D01*
G01X3421Y4322D01*
G01X3418Y4332D01*
G01X3416Y4340D01*
G01X3413Y4351D01*
G01X3410Y4358D01*
G01X3406Y4368D01*
G01X3403Y4375D01*
G01X3398Y4386D01*
G01X3395Y4393D01*
G01X3390Y4402D01*
G01X3386Y4408D01*
G01X3380Y4419D01*
G01X3376Y4425D01*
G01X3370Y4434D01*
G01X3366Y4440D01*
G01X3359Y4449D01*
G01X3354Y4455D01*
G01X3347Y4463D01*
G01X3342Y4469D01*
G01X3335Y4477D01*
G01X3329Y4483D01*
G01X3321Y4490D01*
G01X3315Y4495D01*
G01X3307Y4502D01*
G01X3301Y4507D01*
G01X3292Y4514D01*
G01X3286Y4519D01*
G01X3277Y4524D01*
G01X3271Y4528D01*
G01X3260Y4535D01*
G01X3254Y4538D01*
G01X3244Y4543D01*
G01X3238Y4546D01*
G01X3227Y4551D01*
G01X3220Y4554D01*
G01X3210Y4558D01*
G01X3203Y4561D01*
G01X3192Y4564D01*
G01X3184Y4567D01*
G01X3174Y4569D01*
G01X3167Y4571D01*
G01X3156Y4573D01*
G01X3148Y4575D01*
G01X3137Y4576D01*
G01X3129Y4577D01*
G01X3119Y4578D01*
G01X3111Y4579D01*
G01X3100Y4579D01*
G01X3092Y4579D01*
G01X3082Y4579D01*
G01X3079Y4579D01*
G01X3079Y4582D01*
G01X3079Y4592D01*
G01X3079Y4600D01*
G01X3079Y4611D01*
G01X3078Y4619D01*
G01X3077Y4629D01*
G01X3076Y4637D01*
G01X3075Y4648D01*
G01X3073Y4656D01*
G01X3071Y4667D01*
G01X3069Y4674D01*
G01X3066Y4685D01*
G01X3064Y4692D01*
G01X3061Y4703D01*
G01X3058Y4710D01*
G01X3054Y4720D01*
G01X3051Y4727D01*
G01X3046Y4738D01*
G01X3043Y4745D01*
G01X3038Y4754D01*
G01X3034Y4760D01*
G01X3028Y4771D01*
G01X3024Y4777D01*
G01X3018Y4786D01*
G01X3014Y4792D01*
G01X3007Y4801D01*
G01X3002Y4807D01*
G01X2995Y4815D01*
G01X2990Y4821D01*
G01X2983Y4829D01*
G01X2977Y4835D01*
G01X2969Y4842D01*
G01X2963Y4847D01*
G01X2955Y4854D01*
G01X2949Y4859D01*
G01X2940Y4866D01*
G01X2934Y4871D01*
G01X2925Y4876D01*
G01X2918Y4881D01*
G01X2908Y4887D01*
G01X2902Y4890D01*
G01X2892Y4895D01*
G01X2885Y4899D01*
G01X2875Y4903D01*
G01X2868Y4906D01*
G01X2858Y4910D01*
G01X2851Y4913D01*
G01X2840Y4916D01*
G01X2832Y4919D01*
G01X2822Y4921D01*
G01X2815Y4923D01*
G01X2804Y4925D01*
G01X2796Y4927D01*
G01X2785Y4928D01*
G01X2777Y4929D01*
G01X2767Y4930D01*
G01X2759Y4931D01*
G01X2748Y4931D01*
G01X2740Y4932D01*
G01X2730Y4931D01*
G01X2725Y4931D01*
G01X2725Y4936D01*
G01X2726Y4946D01*
G01X2725Y4954D01*
G01X2725Y4965D01*
G01X2724Y4973D01*
G01X2723Y4983D01*
G01X2722Y4991D01*
G01X2721Y5002D01*
G01X2719Y5010D01*
G01X2717Y5021D01*
G01X2715Y5028D01*
G01X2713Y5038D01*
G01X2710Y5046D01*
G01X2707Y5057D01*
G01X2704Y5064D01*
G01X2700Y5074D01*
G01X2697Y5081D01*
G01X2693Y5091D01*
G01X2689Y5098D01*
G01X2684Y5108D01*
G01X2681Y5114D01*
G01X2675Y5124D01*
G01X2670Y5131D01*
G01X2665Y5140D01*
G01X2660Y5146D01*
G01X2653Y5155D01*
G01X2648Y5161D01*
G01X2641Y5169D01*
G01X2636Y5175D01*
G01X2629Y5183D01*
G01X2623Y5188D01*
G01X2615Y5196D01*
G01X2609Y5201D01*
G01X2601Y5208D01*
G01X2595Y5213D01*
G01X2586Y5220D01*
G01X2580Y5224D01*
G01X2571Y5230D01*
G01X2565Y5234D01*
G01X2554Y5240D01*
G01X2548Y5244D01*
G01X2539Y5249D01*
G01X2532Y5252D01*
G01X2521Y5257D01*
G01X2514Y5260D01*
G01X2504Y5264D01*
G01X2497Y5267D01*
G01X2486Y5270D01*
G01X2479Y5272D01*
G01X2468Y5275D01*
G01X2461Y5277D01*
G01X2450Y5279D01*
G01X2442Y5281D01*
G01X2431Y5282D01*
G01X2423Y5283D01*
G01X2413Y5284D01*
G01X2405Y5285D01*
G01X2394Y5285D01*
G01X2386Y5285D01*
G01X2376Y5285D01*
G01X2371Y5285D01*
G01X2372Y5289D01*
G01X2372Y5300D01*
G01X2372Y5308D01*
G01X2371Y5319D01*
G01X2371Y5327D01*
G01X2370Y5337D01*
G01X2369Y5345D01*
G01X2367Y5356D01*
G01X2366Y5363D01*
G01X2363Y5375D01*
G01X2361Y5382D01*
G01X2359Y5392D01*
G01X2357Y5400D01*
G01X2353Y5411D01*
G01X2350Y5418D01*
G01X2346Y5428D01*
G01X2343Y5435D01*
G01X2339Y5445D01*
G01X2335Y5452D01*
G01X2331Y5461D01*
G01X2327Y5468D01*
G01X2321Y5478D01*
G01X2317Y5485D01*
G01X2311Y5493D01*
G01X2306Y5500D01*
G01X2299Y5509D01*
G01X2295Y5515D01*
G01X2288Y5523D01*
G01X2283Y5529D01*
G01X2275Y5537D01*
G01X2269Y5542D01*
G01X2261Y5550D01*
G01X2256Y5555D01*
G01X2247Y5562D01*
G01X2241Y5567D01*
G01X2232Y5574D01*
G01X2226Y5578D01*
G01X2217Y5584D01*
G01X2211Y5588D01*
G01X2201Y5594D01*
G01X2194Y5598D01*
G01X2185Y5603D01*
G01X2178Y5606D01*
G01X2168Y5611D01*
G01X2161Y5614D01*
G01X2150Y5618D01*
G01X2143Y5620D01*
G01X2132Y5624D01*
G01X2125Y5626D01*
G01X2115Y5629D01*
G01X2107Y5631D01*
G01X2096Y5633D01*
G01X2088Y5634D01*
G01X2077Y5636D01*
G01X2070Y5637D01*
G01X2059Y5638D01*
G01X2051Y5639D01*
G01X2040Y5639D01*
G01X2032Y5639D01*
G01X2022Y5639D01*
G01X2018Y5639D01*
G01X2018Y5643D01*
G01X2018Y5654D01*
G01X2018Y5661D01*
G01X2017Y5673D01*
G01X2017Y5680D01*
G01X2016Y5691D01*
G01X2015Y5699D01*
G01X2013Y5710D01*
G01X2012Y5717D01*
G01X2009Y5728D01*
G01X2008Y5736D01*
G01X2005Y5746D01*
G01X2003Y5753D01*
G01X1999Y5764D01*
G01X1997Y5772D01*
G01X1993Y5782D01*
G01X1990Y5789D01*
G01X1985Y5799D01*
G01X1981Y5806D01*
G01X1977Y5815D01*
G01X1973Y5822D01*
G01X1967Y5832D01*
G01X1963Y5839D01*
G01X1957Y5847D01*
G01X1952Y5854D01*
G01X1946Y5863D01*
G01X1941Y5869D01*
G01X1934Y5877D01*
G01X1929Y5883D01*
G01X1921Y5891D01*
G01X1916Y5896D01*
G01X1907Y5904D01*
G01X1902Y5909D01*
G01X1894Y5916D01*
G01X1887Y5921D01*
G01X1878Y5928D01*
G01X1872Y5932D01*
G01X1864Y5938D01*
G01X1857Y5942D01*
G01X1847Y5948D01*
G01X1840Y5952D01*
G01X1831Y5957D01*
G01X1824Y5960D01*
G01X1814Y5965D01*
G01X1807Y5968D01*
G01X1797Y5972D01*
G01X1789Y5974D01*
G01X1778Y5978D01*
G01X1771Y5980D01*
G01X1761Y5983D01*
G01X1753Y5985D01*
G01X1742Y5987D01*
G01X1735Y5988D01*
G01X1723Y5990D01*
G01X1716Y5991D01*
G01X1705Y5992D01*
G01X1698Y5992D01*
G01X1686Y5993D01*
G01X1679Y5993D01*
G01X1668Y5993D01*
G01X1660Y5993D01*
G01X1649Y5992D01*
G01X1642Y5991D01*
G01X1630Y5990D01*
G01X1623Y5988D01*
G01X1611Y5986D01*
G01X1604Y5985D01*
G01X1594Y5983D01*
G01X1587Y5981D01*
G01X1575Y5977D01*
G01X1568Y5975D01*
G01X1558Y5971D01*
G01X1551Y5968D01*
G01X1541Y5964D01*
G01X1534Y5961D01*
G01X1524Y5956D01*
G01X1517Y5952D01*
G01X1507Y5947D01*
G01X1501Y5943D01*
G01X1491Y5937D01*
G01X1485Y5933D01*
G01X1476Y5926D01*
G01X1470Y5922D01*
G01X1461Y5915D01*
G01X1455Y5910D01*
G01X1447Y5903D01*
G01X1442Y5898D01*
G01X1437Y5893D01*
G01X1431Y5887D01*
G01X1258Y6060D01*
G01X1252Y6101D01*
G01X1239Y6151D01*
G01X1222Y6199D01*
G01X1200Y6245D01*
G01X1173Y6288D01*
G01X1142Y6329D01*
G01X1107Y6366D01*
G01X1069Y6400D01*
G01X1028Y6430D01*
G01X983Y6455D01*
G01X937Y6476D01*
G01X888Y6493D01*
G01X839Y6504D01*
G01X788Y6510D01*
G01X737Y6512D01*
G01X686Y6508D01*
G01X636Y6499D01*
G01X586Y6485D01*
G01X539Y6467D01*
G01X493Y6443D01*
G01X450Y6416D01*
G01X410Y6384D01*
G01X374Y6348D01*
G01X341Y6309D01*
G01X312Y6267D01*
G01X288Y6222D01*
G01X268Y6175D01*
G01X253Y6126D01*
G01X243Y6076D01*
G01X241Y6057D01*
G01X217Y6032D01*
G01X207Y6023D01*
G01X198Y6012D01*
G01X189Y6002D01*
G01X181Y5991D01*
G01X173Y5980D01*
G01X165Y5969D01*
G01X158Y5957D01*
G01X151Y5946D01*
G01X144Y5933D01*
G01X138Y5921D01*
G01X133Y5909D01*
G01X127Y5896D01*
G01X123Y5883D01*
G01X118Y5870D01*
G01X114Y5857D01*
G01X111Y5844D01*
G01X108Y5831D01*
G01X105Y5817D01*
G01X103Y5804D01*
G01X102Y5790D01*
G01X100Y5777D01*
G01X100Y5763D01*
G01X99Y5749D01*
G01X99Y2825D01*
G01X100Y2811D01*
G01X100Y2797D01*
G01X102Y2784D01*
G01X103Y2770D01*
G01X105Y2757D01*
G01X108Y2743D01*
G01X111Y2730D01*
G01X114Y2717D01*
G01X118Y2704D01*
G01X123Y2691D01*
G01X127Y2678D01*
G01X133Y2665D01*
G01X138Y2653D01*
G01X144Y2640D01*
G01X151Y2628D01*
G01X158Y2617D01*
G01X165Y2605D01*
G01X173Y2594D01*
G01X181Y2583D01*
G01X189Y2572D01*
G01X198Y2562D01*
G01X207Y2551D01*
G01X217Y2542D01*
G01X249Y2509D01*
G01X249Y1825D01*
G01X250Y1815D01*
G01X250Y1806D01*
G01X252Y1796D01*
G01X253Y1787D01*
G01X255Y1777D01*
G01X258Y1768D01*
G01X260Y1759D01*
G01X264Y1750D01*
G01X268Y1742D01*
G01X272Y1733D01*
G01X276Y1725D01*
G01X281Y1716D01*
G01X287Y1709D01*
G01X292Y1701D01*
G01X298Y1694D01*
G01X305Y1687D01*
G01X311Y1680D01*
G01X319Y1673D01*
G01X326Y1667D01*
G01X333Y1662D01*
G01X341Y1656D01*
G01X349Y1651D01*
G01X358Y1647D01*
G01X366Y1643D01*
G01X375Y1639D01*
G01X384Y1636D01*
G01X393Y1633D01*
G01X402Y1630D01*
G01X412Y1628D01*
G01X421Y1627D01*
G01X430Y1626D01*
G01X440Y1625D01*
G01X449Y1625D01*
G01X1549Y1625D01*
G01X1559Y1625D01*
G01X1568Y1626D01*
G01X1578Y1627D01*
G01X1587Y1628D01*
G01X1597Y1630D01*
G01X1606Y1633D01*
G01X1615Y1636D01*
G01X1624Y1639D01*
G01X1633Y1643D01*
G01X1641Y1647D01*
G01X1649Y1651D01*
G01X1658Y1656D01*
G01X1665Y1662D01*
G01X1673Y1667D01*
G01X1680Y1673D01*
G01X1688Y1680D01*
G01X1694Y1687D01*
G01X1701Y1694D01*
G01X1707Y1701D01*
G01X1712Y1709D01*
G01X1718Y1716D01*
G01X1723Y1725D01*
G01X1727Y1733D01*
G01X1731Y1742D01*
G01X1735Y1750D01*
G01X1738Y1759D01*
G01X1741Y1768D01*
G01X1744Y1777D01*
G01X1746Y1787D01*
G01X1747Y1796D01*
G01X1749Y1806D01*
G01X1749Y1815D01*
G01X1749Y1825D01*
G01X1749Y2509D01*
G01X1795Y2555D01*
G01X2822Y2555D01*
G01X2822Y1152D01*
G01X2822Y1138D01*
G01X2823Y1125D01*
G01X2824Y1111D01*
G01X2826Y1098D01*
G01X2828Y1084D01*
G01X2830Y1071D01*
G01X2833Y1057D01*
G01X2837Y1044D01*
G01X2841Y1031D01*
G01X2845Y1018D01*
G01X2850Y1005D01*
G01X2855Y993D01*
G01X2861Y980D01*
G01X2867Y968D01*
G01X2873Y956D01*
G01X2880Y944D01*
G01X2888Y933D01*
G01X2895Y921D01*
G01X2903Y910D01*
G01X2912Y900D01*
G01X2921Y889D01*
G01X2930Y879D01*
G01X2939Y869D01*
G01X2991Y817D01*
G01X2993Y798D01*
G01X3003Y748D01*
G01X3018Y699D01*
G01X3038Y652D01*
G01X3062Y607D01*
G01X3091Y565D01*
G01X3124Y526D01*
G01X3161Y490D01*
G01X3201Y458D01*
G01X3243Y431D01*
G01X3289Y407D01*
G01X3336Y389D01*
G01X3386Y375D01*
G01X3436Y366D01*
G01X3487Y362D01*
G01X3538Y364D01*
G01X3589Y370D01*
G01X3638Y381D01*
G01X3687Y398D01*
G01X3733Y419D01*
G01X3778Y444D01*
G01X3787Y451D01*
G01X8034Y451D01*
G01X8034Y355D01*
G01X8034Y346D01*
G01X8035Y336D01*
G01X8036Y327D01*
G01X8038Y317D01*
G01X8040Y308D01*
G01X8042Y299D01*
G01X8045Y290D01*
G01X8049Y281D01*
G01X8052Y272D01*
G01X8056Y264D01*
G01X8061Y255D01*
G01X8066Y247D01*
G01X8071Y239D01*
G01X8077Y232D01*
G01X8083Y224D01*
G01X8089Y217D01*
G01X8096Y210D01*
G01X8103Y204D01*
G01X8111Y198D01*
G01X8118Y192D01*
G01X8126Y187D01*
G01X8134Y182D01*
G01X8143Y177D01*
G01X8151Y173D01*
G01X8160Y170D01*
G01X8169Y166D01*
G01X8178Y163D01*
G01X8187Y161D01*
G01X8196Y159D01*
G01X8206Y157D01*
G01X8215Y156D01*
G01X8225Y155D01*
G37*
G36*
G01X1668Y6006D02*
G01X1679Y6006D01*
G01X1686Y6006D01*
G01X1698Y6007D01*
G01X1705Y6007D01*
G01X1716Y6008D01*
G01X1723Y6009D01*
G01X1735Y6011D01*
G01X1742Y6012D01*
G01X1753Y6014D01*
G01X1761Y6016D01*
G01X1771Y6019D01*
G01X1778Y6021D01*
G01X1789Y6025D01*
G01X1797Y6027D01*
G01X1807Y6031D01*
G01X1814Y6034D01*
G01X1824Y6039D01*
G01X1831Y6042D01*
G01X1840Y6047D01*
G01X1847Y6051D01*
G01X1857Y6057D01*
G01X1864Y6061D01*
G01X1872Y6067D01*
G01X1878Y6071D01*
G01X1887Y6078D01*
G01X1894Y6083D01*
G01X1902Y6090D01*
G01X1907Y6095D01*
G01X1916Y6103D01*
G01X1921Y6108D01*
G01X1929Y6116D01*
G01X1934Y6122D01*
G01X1941Y6130D01*
G01X1946Y6136D01*
G01X1952Y6145D01*
G01X1957Y6152D01*
G01X1963Y6160D01*
G01X1967Y6167D01*
G01X1973Y6177D01*
G01X1977Y6184D01*
G01X1981Y6193D01*
G01X1985Y6200D01*
G01X1990Y6210D01*
G01X1993Y6217D01*
G01X1997Y6227D01*
G01X1999Y6235D01*
G01X2003Y6246D01*
G01X2005Y6253D01*
G01X2008Y6263D01*
G01X2009Y6271D01*
G01X2012Y6282D01*
G01X2013Y6289D01*
G01X2015Y6300D01*
G01X2016Y6308D01*
G01X2017Y6319D01*
G01X2017Y6326D01*
G01X2018Y6338D01*
G01X2018Y6345D01*
G01X2018Y6356D01*
G01X2018Y6360D01*
G01X2022Y6360D01*
G01X2032Y6360D01*
G01X2040Y6360D01*
G01X2051Y6360D01*
G01X2059Y6361D01*
G01X2070Y6362D01*
G01X2077Y6363D01*
G01X2088Y6365D01*
G01X2096Y6366D01*
G01X2107Y6368D01*
G01X2115Y6370D01*
G01X2125Y6373D01*
G01X2132Y6375D01*
G01X2143Y6379D01*
G01X2150Y6381D01*
G01X2161Y6385D01*
G01X2168Y6388D01*
G01X2178Y6393D01*
G01X2185Y6396D01*
G01X2194Y6401D01*
G01X2201Y6405D01*
G01X2211Y6411D01*
G01X2217Y6415D01*
G01X2226Y6421D01*
G01X2232Y6425D01*
G01X2241Y6432D01*
G01X2247Y6437D01*
G01X2256Y6444D01*
G01X2261Y6449D01*
G01X2269Y6457D01*
G01X2275Y6462D01*
G01X2283Y6470D01*
G01X2288Y6476D01*
G01X2295Y6484D01*
G01X2299Y6490D01*
G01X2306Y6499D01*
G01X2311Y6506D01*
G01X2317Y6514D01*
G01X2321Y6521D01*
G01X2327Y6531D01*
G01X2331Y6538D01*
G01X2335Y6547D01*
G01X2339Y6554D01*
G01X2343Y6564D01*
G01X2346Y6571D01*
G01X2350Y6581D01*
G01X2353Y6588D01*
G01X2357Y6599D01*
G01X2359Y6607D01*
G01X2361Y6617D01*
G01X2363Y6624D01*
G01X2366Y6636D01*
G01X2367Y6643D01*
G01X2369Y6654D01*
G01X2370Y6662D01*
G01X2371Y6672D01*
G01X2371Y6680D01*
G01X2372Y6691D01*
G01X2372Y6699D01*
G01X2372Y6710D01*
G01X2371Y6714D01*
G01X2376Y6714D01*
G01X2386Y6714D01*
G01X2394Y6714D01*
G01X2405Y6714D01*
G01X2413Y6715D01*
G01X2423Y6716D01*
G01X2431Y6717D01*
G01X2442Y6718D01*
G01X2450Y6720D01*
G01X2461Y6722D01*
G01X2468Y6724D01*
G01X2479Y6727D01*
G01X2486Y6729D01*
G01X2497Y6732D01*
G01X2504Y6735D01*
G01X2514Y6739D01*
G01X2521Y6742D01*
G01X2532Y6747D01*
G01X2539Y6750D01*
G01X2548Y6755D01*
G01X2554Y6759D01*
G01X2565Y6765D01*
G01X2571Y6769D01*
G01X2580Y6775D01*
G01X2586Y6779D01*
G01X2595Y6786D01*
G01X2601Y6791D01*
G01X2609Y6798D01*
G01X2615Y6803D01*
G01X2623Y6810D01*
G01X2629Y6816D01*
G01X2636Y6824D01*
G01X2641Y6830D01*
G01X2648Y6838D01*
G01X2653Y6844D01*
G01X2660Y6853D01*
G01X2665Y6859D01*
G01X2670Y6868D01*
G01X2675Y6874D01*
G01X2681Y6885D01*
G01X2684Y6891D01*
G01X2689Y6901D01*
G01X2693Y6907D01*
G01X2697Y6918D01*
G01X2700Y6925D01*
G01X2704Y6935D01*
G01X2707Y6942D01*
G01X2710Y6953D01*
G01X2713Y6961D01*
G01X2715Y6971D01*
G01X2717Y6978D01*
G01X2719Y6989D01*
G01X2721Y6997D01*
G01X2722Y7008D01*
G01X2723Y7016D01*
G01X2724Y7026D01*
G01X2725Y7034D01*
G01X2725Y7045D01*
G01X2726Y7053D01*
G01X2725Y7063D01*
G01X2725Y7068D01*
G01X2730Y7068D01*
G01X2740Y7067D01*
G01X2748Y7068D01*
G01X2759Y7068D01*
G01X2767Y7069D01*
G01X2777Y7070D01*
G01X2785Y7071D01*
G01X2796Y7072D01*
G01X2804Y7074D01*
G01X2815Y7076D01*
G01X2822Y7078D01*
G01X2832Y7080D01*
G01X2840Y7083D01*
G01X2851Y7086D01*
G01X2858Y7089D01*
G01X2868Y7093D01*
G01X2875Y7096D01*
G01X2885Y7100D01*
G01X2892Y7104D01*
G01X2902Y7109D01*
G01X2908Y7112D01*
G01X2918Y7118D01*
G01X2925Y7123D01*
G01X2934Y7128D01*
G01X2940Y7133D01*
G01X2949Y7140D01*
G01X2955Y7145D01*
G01X2963Y7152D01*
G01X2969Y7157D01*
G01X2977Y7164D01*
G01X2983Y7170D01*
G01X2990Y7178D01*
G01X2995Y7184D01*
G01X3002Y7192D01*
G01X3007Y7198D01*
G01X3014Y7207D01*
G01X3018Y7213D01*
G01X3024Y7222D01*
G01X3028Y7228D01*
G01X3034Y7239D01*
G01X3038Y7245D01*
G01X3043Y7254D01*
G01X3046Y7261D01*
G01X3051Y7272D01*
G01X3054Y7279D01*
G01X3058Y7289D01*
G01X3061Y7296D01*
G01X3064Y7307D01*
G01X3066Y7314D01*
G01X3069Y7325D01*
G01X3071Y7332D01*
G01X3073Y7343D01*
G01X3075Y7351D01*
G01X3076Y7362D01*
G01X3077Y7370D01*
G01X3078Y7380D01*
G01X3079Y7388D01*
G01X3079Y7399D01*
G01X3079Y7407D01*
G01X3079Y7417D01*
G01X3079Y7420D01*
G01X3082Y7420D01*
G01X3092Y7420D01*
G01X3100Y7420D01*
G01X3111Y7420D01*
G01X3119Y7421D01*
G01X3129Y7422D01*
G01X3137Y7423D01*
G01X3148Y7424D01*
G01X3156Y7426D01*
G01X3167Y7428D01*
G01X3174Y7430D01*
G01X3184Y7432D01*
G01X3192Y7435D01*
G01X3203Y7438D01*
G01X3210Y7441D01*
G01X3220Y7445D01*
G01X3227Y7448D01*
G01X3238Y7452D01*
G01X3244Y7456D01*
G01X3254Y7461D01*
G01X3260Y7464D01*
G01X3271Y7470D01*
G01X3277Y7475D01*
G01X3286Y7480D01*
G01X3292Y7485D01*
G01X3301Y7492D01*
G01X3307Y7497D01*
G01X3315Y7504D01*
G01X3321Y7509D01*
G01X3329Y7516D01*
G01X3335Y7522D01*
G01X3342Y7530D01*
G01X3347Y7536D01*
G01X3354Y7544D01*
G01X3359Y7550D01*
G01X3366Y7559D01*
G01X3370Y7565D01*
G01X3376Y7574D01*
G01X3380Y7580D01*
G01X3386Y7591D01*
G01X3390Y7597D01*
G01X3395Y7606D01*
G01X3398Y7613D01*
G01X3403Y7624D01*
G01X3406Y7631D01*
G01X3410Y7641D01*
G01X3413Y7648D01*
G01X3416Y7659D01*
G01X3418Y7667D01*
G01X3421Y7677D01*
G01X3423Y7684D01*
G01X3425Y7695D01*
G01X3427Y7703D01*
G01X3428Y7714D01*
G01X3429Y7722D01*
G01X3430Y7732D01*
G01X3431Y7740D01*
G01X3431Y7751D01*
G01X3431Y7759D01*
G01X3431Y7769D01*
G01X3431Y7774D01*
G01X3435Y7773D01*
G01X3446Y7773D01*
G01X3454Y7773D01*
G01X3465Y7774D01*
G01X3473Y7774D01*
G01X3483Y7775D01*
G01X3491Y7776D01*
G01X3502Y7778D01*
G01X3510Y7779D01*
G01X3521Y7782D01*
G01X3528Y7784D01*
G01X3538Y7786D01*
G01X3546Y7788D01*
G01X3557Y7792D01*
G01X3564Y7795D01*
G01X3574Y7799D01*
G01X3581Y7802D01*
G01X3591Y7806D01*
G01X3598Y7810D01*
G01X3607Y7814D01*
G01X3614Y7818D01*
G01X3624Y7824D01*
G01X3631Y7828D01*
G01X3639Y7834D01*
G01X3646Y7839D01*
G01X3655Y7846D01*
G01X3661Y7850D01*
G01X3669Y7857D01*
G01X3675Y7863D01*
G01X3683Y7870D01*
G01X3688Y7876D01*
G01X3696Y7884D01*
G01X3701Y7889D01*
G01X3708Y7898D01*
G01X3713Y7904D01*
G01X3720Y7913D01*
G01X3724Y7919D01*
G01X3730Y7928D01*
G01X3734Y7934D01*
G01X3740Y7944D01*
G01X3744Y7951D01*
G01X3749Y7960D01*
G01X3752Y7967D01*
G01X3757Y7977D01*
G01X3760Y7984D01*
G01X3764Y7995D01*
G01X3766Y8002D01*
G01X3770Y8013D01*
G01X3772Y8020D01*
G01X3775Y8030D01*
G01X3777Y8038D01*
G01X3779Y8049D01*
G01X3780Y8057D01*
G01X3782Y8068D01*
G01X3783Y8075D01*
G01X3784Y8086D01*
G01X3785Y8094D01*
G01X3785Y8105D01*
G01X3785Y8113D01*
G01X3785Y8123D01*
G01X3785Y8127D01*
G01X3789Y8127D01*
G01X3800Y8127D01*
G01X3808Y8127D01*
G01X3819Y8128D01*
G01X3826Y8128D01*
G01X3837Y8129D01*
G01X3845Y8130D01*
G01X3856Y8132D01*
G01X3863Y8133D01*
G01X3874Y8136D01*
G01X3882Y8137D01*
G01X3892Y8140D01*
G01X3899Y8142D01*
G01X3910Y8146D01*
G01X3918Y8149D01*
G01X3928Y8152D01*
G01X3935Y8155D01*
G01X3945Y8160D01*
G01X3952Y8164D01*
G01X3961Y8168D01*
G01X3968Y8172D01*
G01X3978Y8178D01*
G01X3985Y8182D01*
G01X3993Y8188D01*
G01X4000Y8193D01*
G01X4009Y8199D01*
G01X4015Y8204D01*
G01X4023Y8211D01*
G01X4029Y8216D01*
G01X4037Y8224D01*
G01X4042Y8229D01*
G01X4050Y8238D01*
G01X4055Y8243D01*
G01X4062Y8252D01*
G01X4067Y8258D01*
G01X4074Y8267D01*
G01X4078Y8273D01*
G01X4084Y8282D01*
G01X4088Y8288D01*
G01X4094Y8298D01*
G01X4098Y8305D01*
G01X4103Y8314D01*
G01X4106Y8321D01*
G01X4111Y8331D01*
G01X4114Y8338D01*
G01X4118Y8348D01*
G01X4120Y8356D01*
G01X4124Y8367D01*
G01X4126Y8374D01*
G01X4129Y8384D01*
G01X4131Y8392D01*
G01X4133Y8403D01*
G01X4134Y8410D01*
G01X4136Y8422D01*
G01X4137Y8429D01*
G01X4138Y8440D01*
G01X4138Y8447D01*
G01X4139Y8459D01*
G01X4139Y8466D01*
G01X4139Y8477D01*
G01X4139Y8481D01*
G01X4143Y8481D01*
G01X4154Y8481D01*
G01X4161Y8481D01*
G01X4173Y8482D01*
G01X4180Y8482D01*
G01X4191Y8483D01*
G01X4198Y8484D01*
G01X4210Y8486D01*
G01X4217Y8487D01*
G01X4228Y8489D01*
G01X4236Y8491D01*
G01X4246Y8494D01*
G01X4253Y8496D01*
G01X4264Y8500D01*
G01X4272Y8502D01*
G01X4282Y8506D01*
G01X4289Y8509D01*
G01X4299Y8514D01*
G01X4306Y8517D01*
G01X4315Y8522D01*
G01X4322Y8526D01*
G01X4332Y8532D01*
G01X4339Y8536D01*
G01X4347Y8542D01*
G01X4353Y8546D01*
G01X4362Y8553D01*
G01X4368Y8558D01*
G01X4377Y8565D01*
G01X4382Y8570D01*
G01X4391Y8578D01*
G01X4396Y8583D01*
G01X4404Y8591D01*
G01X4409Y8597D01*
G01X4416Y8605D01*
G01X4421Y8611D01*
G01X4427Y8620D01*
G01X4432Y8627D01*
G01X4438Y8635D01*
G01X4442Y8642D01*
G01X4448Y8652D01*
G01X4452Y8659D01*
G01X4456Y8668D01*
G01X4460Y8675D01*
G01X4465Y8685D01*
G01X4468Y8692D01*
G01X4472Y8702D01*
G01X4474Y8710D01*
G01X4478Y8721D01*
G01X4480Y8728D01*
G01X4483Y8738D01*
G01X4484Y8746D01*
G01X4487Y8757D01*
G01X4488Y8764D01*
G01X4490Y8775D01*
G01X4491Y8783D01*
G01X4492Y8794D01*
G01X4492Y8801D01*
G01X4493Y8812D01*
G01X4493Y8820D01*
G01X4493Y8831D01*
G01X4492Y8838D01*
G01X4492Y8850D01*
G01X4491Y8857D01*
G01X4490Y8869D01*
G01X4488Y8876D01*
G01X4486Y8887D01*
G01X4485Y8895D01*
G01X4482Y8905D01*
G01X4480Y8912D01*
G01X4477Y8924D01*
G01X4475Y8931D01*
G01X4471Y8941D01*
G01X4468Y8948D01*
G01X4464Y8958D01*
G01X4461Y8965D01*
G01X4456Y8975D01*
G01X4452Y8982D01*
G01X4447Y8991D01*
G01X4443Y8998D01*
G01X4437Y9008D01*
G01X4435Y9011D01*
G01X5087Y9662D01*
G01X5095Y9671D01*
G01X5103Y9680D01*
G01X5110Y9689D01*
G01X5117Y9698D01*
G01X5124Y9708D01*
G01X5130Y9718D01*
G01X5136Y9728D01*
G01X5142Y9738D01*
G01X5147Y9749D01*
G01X5152Y9760D01*
G01X5156Y9771D01*
G01X5160Y9782D01*
G01X5163Y9793D01*
G01X5166Y9805D01*
G01X5169Y9816D01*
G01X5171Y9828D01*
G01X5172Y9839D01*
G01X5174Y9851D01*
G01X5174Y9863D01*
G01X5175Y9875D01*
G01X5175Y10615D01*
G01X5195Y10624D01*
G01X5256Y10659D01*
G01X5313Y10700D01*
G01X5365Y10746D01*
G01X5413Y10798D01*
G01X5455Y10854D01*
G01X5492Y10913D01*
G01X5522Y10977D01*
G01X5546Y11042D01*
G01X5561Y11103D01*
G01X5567Y11078D01*
G01X5587Y11011D01*
G01X5614Y10946D01*
G01X5648Y10885D01*
G01X5687Y10827D01*
G01X5732Y10773D01*
G01X5783Y10724D01*
G01X5837Y10681D01*
G01X5896Y10643D01*
G01X5958Y10611D01*
G01X6024Y10585D01*
G01X6091Y10566D01*
G01X6160Y10554D01*
G01X6230Y10549D01*
G01X6300Y10550D01*
G01X6369Y10559D01*
G01X6438Y10575D01*
G01X6504Y10597D01*
G01X6568Y10626D01*
G01X6629Y10661D01*
G01X6685Y10702D01*
G01X6738Y10748D01*
G01X6786Y10799D01*
G01X6828Y10855D01*
G01X6864Y10915D01*
G01X6895Y10978D01*
G01X6919Y11044D01*
G01X6936Y11112D01*
G01X6946Y11181D01*
G01X6950Y11251D01*
G01X6946Y11321D01*
G01X6936Y11390D01*
G01X6919Y11458D01*
G01X6895Y11524D01*
G01X6864Y11587D01*
G01X6828Y11647D01*
G01X6786Y11703D01*
G01X6738Y11754D01*
G01X6685Y11800D01*
G01X6629Y11841D01*
G01X6568Y11876D01*
G01X6504Y11905D01*
G01X6438Y11927D01*
G01X6369Y11943D01*
G01X6300Y11952D01*
G01X6230Y11953D01*
G01X6160Y11948D01*
G01X6091Y11936D01*
G01X6024Y11917D01*
G01X5958Y11891D01*
G01X5896Y11859D01*
G01X5837Y11821D01*
G01X5783Y11778D01*
G01X5732Y11729D01*
G01X5687Y11675D01*
G01X5648Y11617D01*
G01X5614Y11556D01*
G01X5587Y11491D01*
G01X5567Y11424D01*
G01X5561Y11397D01*
G01X5546Y11457D01*
G01X5522Y11522D01*
G01X5492Y11585D01*
G01X5455Y11645D01*
G01X5413Y11701D01*
G01X5365Y11752D01*
G01X5313Y11799D01*
G01X5256Y11840D01*
G01X5195Y11875D01*
G01X5131Y11903D01*
G01X5065Y11926D01*
G01X4997Y11941D01*
G01X4927Y11950D01*
G01X4857Y11952D01*
G01X4787Y11946D01*
G01X4718Y11934D01*
G01X4651Y11915D01*
G01X4586Y11890D01*
G01X4523Y11858D01*
G01X4464Y11820D01*
G01X4410Y11776D01*
G01X4360Y11727D01*
G01X4315Y11674D01*
G01X4275Y11616D01*
G01X4242Y11554D01*
G01X4214Y11490D01*
G01X4194Y11423D01*
G01X4187Y11392D01*
G01X4171Y11457D01*
G01X4147Y11522D01*
G01X4117Y11585D01*
G01X4080Y11645D01*
G01X4038Y11701D01*
G01X3990Y11752D01*
G01X3938Y11799D01*
G01X3881Y11840D01*
G01X3820Y11875D01*
G01X3756Y11903D01*
G01X3690Y11926D01*
G01X3622Y11941D01*
G01X3552Y11950D01*
G01X3482Y11952D01*
G01X3412Y11946D01*
G01X3343Y11934D01*
G01X3276Y11915D01*
G01X3211Y11890D01*
G01X3148Y11858D01*
G01X3090Y11820D01*
G01X3035Y11776D01*
G01X2985Y11727D01*
G01X2940Y11674D01*
G01X2900Y11616D01*
G01X2867Y11554D01*
G01X2839Y11490D01*
G01X2819Y11423D01*
G01X2805Y11354D01*
G01X2798Y11284D01*
G01X2798Y11214D01*
G01X2805Y11145D01*
G01X2819Y11076D01*
G01X2838Y11012D01*
G01X2787Y10961D01*
G01X2779Y10953D01*
G01X2771Y10944D01*
G01X2764Y10935D01*
G01X2757Y10926D01*
G01X2750Y10916D01*
G01X2744Y10906D01*
G01X2738Y10896D01*
G01X2732Y10885D01*
G01X2727Y10875D01*
G01X2722Y10864D01*
G01X2718Y10853D01*
G01X2714Y10842D01*
G01X2711Y10831D01*
G01X2708Y10819D01*
G01X2705Y10808D01*
G01X2705Y10806D01*
G01X2704Y10809D01*
G01X2700Y10818D01*
G01X2695Y10826D01*
G01X2690Y10834D01*
G01X2685Y10842D01*
G01X2679Y10850D01*
G01X2673Y10857D01*
G01X2667Y10864D01*
G01X2660Y10871D01*
G01X2653Y10877D01*
G01X2645Y10883D01*
G01X2638Y10889D01*
G01X2630Y10894D01*
G01X2622Y10899D01*
G01X2613Y10904D01*
G01X2605Y10908D01*
G01X2596Y10912D01*
G01X2587Y10915D01*
G01X2578Y10918D01*
G01X2569Y10920D01*
G01X2560Y10922D01*
G01X2550Y10924D01*
G01X2541Y10925D01*
G01X2531Y10926D01*
G01X2522Y10926D01*
G01X1622Y10926D01*
G01X1612Y10926D01*
G01X1603Y10925D01*
G01X1593Y10924D01*
G01X1584Y10922D01*
G01X1575Y10920D01*
G01X1565Y10918D01*
G01X1556Y10915D01*
G01X1547Y10912D01*
G01X1539Y10908D01*
G01X1530Y10904D01*
G01X1522Y10899D01*
G01X1514Y10894D01*
G01X1506Y10889D01*
G01X1498Y10883D01*
G01X1491Y10877D01*
G01X1484Y10871D01*
G01X1477Y10864D01*
G01X1470Y10857D01*
G01X1464Y10850D01*
G01X1459Y10842D01*
G01X1453Y10834D01*
G01X1448Y10826D01*
G01X1444Y10818D01*
G01X1440Y10809D01*
G01X1436Y10800D01*
G01X1433Y10791D01*
G01X1430Y10782D01*
G01X1427Y10773D01*
G01X1425Y10764D01*
G01X1424Y10754D01*
G01X1423Y10745D01*
G01X1422Y10735D01*
G01X1422Y10726D01*
G01X1422Y9926D01*
G01X1422Y9916D01*
G01X1423Y9907D01*
G01X1424Y9897D01*
G01X1425Y9888D01*
G01X1427Y9879D01*
G01X1430Y9869D01*
G01X1433Y9860D01*
G01X1436Y9851D01*
G01X1440Y9843D01*
G01X1444Y9834D01*
G01X1448Y9826D01*
G01X1453Y9818D01*
G01X1459Y9810D01*
G01X1464Y9802D01*
G01X1470Y9795D01*
G01X1477Y9788D01*
G01X1484Y9781D01*
G01X1491Y9775D01*
G01X1498Y9769D01*
G01X1506Y9763D01*
G01X1514Y9758D01*
G01X1522Y9753D01*
G01X1530Y9748D01*
G01X1539Y9744D01*
G01X1547Y9740D01*
G01X1556Y9737D01*
G01X1565Y9734D01*
G01X1575Y9731D01*
G01X1584Y9729D01*
G01X1593Y9728D01*
G01X1603Y9727D01*
G01X1612Y9726D01*
G01X1622Y9726D01*
G01X2018Y9726D01*
G01X2014Y9722D01*
G01X2007Y9715D01*
G01X2001Y9708D01*
G01X1995Y9701D01*
G01X1989Y9693D01*
G01X1984Y9685D01*
G01X1979Y9677D01*
G01X1974Y9669D01*
G01X1970Y9660D01*
G01X1966Y9651D01*
G01X1963Y9642D01*
G01X1960Y9633D01*
G01X1958Y9624D01*
G01X1956Y9615D01*
G01X1954Y9605D01*
G01X1953Y9596D01*
G01X1952Y9586D01*
G01X1952Y9577D01*
G01X1952Y9171D01*
G01X1952Y9161D01*
G01X1953Y9152D01*
G01X1954Y9142D01*
G01X1956Y9133D01*
G01X1958Y9123D01*
G01X1960Y9114D01*
G01X1963Y9105D01*
G01X1966Y9096D01*
G01X1970Y9087D01*
G01X1974Y9079D01*
G01X1979Y9071D01*
G01X1984Y9062D01*
G01X1989Y9055D01*
G01X1995Y9047D01*
G01X2001Y9040D01*
G01X2007Y9033D01*
G01X2014Y9026D01*
G01X2021Y9019D01*
G01X2028Y9013D01*
G01X2036Y9008D01*
G01X2044Y9002D01*
G01X2052Y8997D01*
G01X2060Y8993D01*
G01X2069Y8989D01*
G01X2078Y8985D01*
G01X2086Y8982D01*
G01X2096Y8979D01*
G01X2105Y8976D01*
G01X2114Y8974D01*
G01X2123Y8973D01*
G01X2133Y8971D01*
G01X2142Y8971D01*
G01X2152Y8971D01*
G01X2164Y8971D01*
G01X2335Y8799D01*
G01X1624Y8799D01*
G01X1393Y9030D01*
G01X1398Y9035D01*
G01X1405Y9042D01*
G01X1411Y9049D01*
G01X1416Y9057D01*
G01X1422Y9064D01*
G01X1427Y9073D01*
G01X1431Y9081D01*
G01X1435Y9089D01*
G01X1439Y9098D01*
G01X1442Y9107D01*
G01X1445Y9116D01*
G01X1448Y9125D01*
G01X1450Y9135D01*
G01X1451Y9144D01*
G01X1453Y9154D01*
G01X1453Y9163D01*
G01X1453Y9173D01*
G01X1453Y9579D01*
G01X1453Y9588D01*
G01X1453Y9598D01*
G01X1451Y9607D01*
G01X1450Y9617D01*
G01X1448Y9626D01*
G01X1445Y9635D01*
G01X1442Y9644D01*
G01X1439Y9653D01*
G01X1435Y9662D01*
G01X1431Y9671D01*
G01X1427Y9679D01*
G01X1422Y9687D01*
G01X1416Y9695D01*
G01X1411Y9703D01*
G01X1405Y9710D01*
G01X1398Y9717D01*
G01X1391Y9724D01*
G01X1384Y9730D01*
G01X1378Y9735D01*
G01X1378Y9931D01*
G01X1378Y9942D01*
G01X1378Y9954D01*
G01X1376Y9966D01*
G01X1375Y9977D01*
G01X1373Y9989D01*
G01X1370Y10001D01*
G01X1367Y10012D01*
G01X1364Y10023D01*
G01X1360Y10034D01*
G01X1356Y10045D01*
G01X1351Y10056D01*
G01X1346Y10067D01*
G01X1340Y10077D01*
G01X1334Y10087D01*
G01X1333Y10089D01*
G01X1333Y10726D01*
G01X1333Y10735D01*
G01X1332Y10745D01*
G01X1331Y10754D01*
G01X1330Y10764D01*
G01X1328Y10773D01*
G01X1325Y10782D01*
G01X1322Y10791D01*
G01X1319Y10800D01*
G01X1315Y10809D01*
G01X1311Y10818D01*
G01X1306Y10826D01*
G01X1301Y10834D01*
G01X1296Y10842D01*
G01X1290Y10850D01*
G01X1284Y10857D01*
G01X1278Y10864D01*
G01X1271Y10871D01*
G01X1264Y10877D01*
G01X1257Y10883D01*
G01X1249Y10889D01*
G01X1241Y10894D01*
G01X1233Y10899D01*
G01X1225Y10904D01*
G01X1216Y10908D01*
G01X1208Y10912D01*
G01X1199Y10915D01*
G01X1190Y10918D01*
G01X1180Y10920D01*
G01X1171Y10922D01*
G01X1162Y10924D01*
G01X1152Y10925D01*
G01X1143Y10926D01*
G01X1133Y10926D01*
G01X233Y10926D01*
G01X224Y10926D01*
G01X214Y10925D01*
G01X205Y10924D01*
G01X195Y10922D01*
G01X186Y10920D01*
G01X177Y10918D01*
G01X168Y10915D01*
G01X159Y10912D01*
G01X150Y10908D01*
G01X141Y10904D01*
G01X133Y10899D01*
G01X125Y10894D01*
G01X117Y10889D01*
G01X109Y10883D01*
G01X102Y10877D01*
G01X95Y10871D01*
G01X88Y10864D01*
G01X82Y10857D01*
G01X76Y10850D01*
G01X70Y10842D01*
G01X65Y10834D01*
G01X60Y10826D01*
G01X55Y10818D01*
G01X51Y10809D01*
G01X47Y10800D01*
G01X44Y10791D01*
G01X41Y10782D01*
G01X39Y10773D01*
G01X37Y10764D01*
G01X35Y10754D01*
G01X34Y10745D01*
G01X33Y10735D01*
G01X33Y10726D01*
G01X33Y9926D01*
G01X33Y9916D01*
G01X34Y9907D01*
G01X35Y9897D01*
G01X37Y9888D01*
G01X39Y9879D01*
G01X41Y9869D01*
G01X44Y9860D01*
G01X47Y9851D01*
G01X51Y9843D01*
G01X55Y9834D01*
G01X60Y9826D01*
G01X65Y9818D01*
G01X70Y9810D01*
G01X76Y9802D01*
G01X82Y9795D01*
G01X88Y9788D01*
G01X95Y9781D01*
G01X102Y9775D01*
G01X109Y9769D01*
G01X117Y9763D01*
G01X125Y9758D01*
G01X133Y9753D01*
G01X141Y9748D01*
G01X150Y9744D01*
G01X159Y9740D01*
G01X168Y9737D01*
G01X177Y9734D01*
G01X186Y9731D01*
G01X195Y9729D01*
G01X205Y9728D01*
G01X214Y9727D01*
G01X224Y9726D01*
G01X233Y9726D01*
G01X768Y9726D01*
G01X765Y9724D01*
G01X759Y9717D01*
G01X752Y9710D01*
G01X746Y9703D01*
G01X741Y9695D01*
G01X735Y9687D01*
G01X730Y9679D01*
G01X726Y9671D01*
G01X722Y9662D01*
G01X718Y9653D01*
G01X714Y9644D01*
G01X712Y9635D01*
G01X709Y9626D01*
G01X707Y9617D01*
G01X705Y9607D01*
G01X704Y9598D01*
G01X704Y9588D01*
G01X703Y9579D01*
G01X703Y9173D01*
G01X704Y9163D01*
G01X704Y9154D01*
G01X705Y9144D01*
G01X707Y9135D01*
G01X709Y9125D01*
G01X712Y9116D01*
G01X714Y9107D01*
G01X718Y9098D01*
G01X722Y9089D01*
G01X726Y9081D01*
G01X730Y9073D01*
G01X735Y9064D01*
G01X741Y9057D01*
G01X746Y9049D01*
G01X752Y9042D01*
G01X759Y9035D01*
G01X765Y9028D01*
G01X772Y9021D01*
G01X778Y9016D01*
G01X778Y8921D01*
G01X779Y8909D01*
G01X779Y8897D01*
G01X781Y8885D01*
G01X782Y8874D01*
G01X784Y8862D01*
G01X787Y8851D01*
G01X790Y8839D01*
G01X793Y8828D01*
G01X797Y8817D01*
G01X801Y8806D01*
G01X806Y8795D01*
G01X811Y8784D01*
G01X817Y8774D01*
G01X823Y8764D01*
G01X829Y8754D01*
G01X836Y8744D01*
G01X843Y8735D01*
G01X850Y8726D01*
G01X858Y8717D01*
G01X866Y8708D01*
G01X1089Y8486D01*
G01X1086Y8485D01*
G01X1039Y8467D01*
G01X993Y8443D01*
G01X950Y8416D01*
G01X910Y8384D01*
G01X874Y8348D01*
G01X841Y8309D01*
G01X812Y8267D01*
G01X788Y8222D01*
G01X768Y8175D01*
G01X753Y8126D01*
G01X743Y8076D01*
G01X739Y8041D01*
G01X731Y8043D01*
G01X722Y8044D01*
G01X712Y8044D01*
G01X703Y8045D01*
G01X296Y8045D01*
G01X287Y8044D01*
G01X277Y8044D01*
G01X268Y8043D01*
G01X258Y8041D01*
G01X249Y8039D01*
G01X240Y8036D01*
G01X231Y8034D01*
G01X222Y8030D01*
G01X213Y8026D01*
G01X205Y8022D01*
G01X196Y8018D01*
G01X188Y8013D01*
G01X180Y8007D01*
G01X173Y8002D01*
G01X165Y7996D01*
G01X158Y7989D01*
G01X152Y7983D01*
G01X145Y7976D01*
G01X139Y7968D01*
G01X133Y7961D01*
G01X128Y7953D01*
G01X123Y7945D01*
G01X119Y7936D01*
G01X114Y7928D01*
G01X111Y7919D01*
G01X107Y7910D01*
G01X104Y7901D01*
G01X102Y7892D01*
G01X100Y7882D01*
G01X98Y7873D01*
G01X97Y7864D01*
G01X97Y7854D01*
G01X96Y7845D01*
G01X96Y7494D01*
G01X97Y7484D01*
G01X97Y7475D01*
G01X98Y7466D01*
G01X100Y7456D01*
G01X102Y7447D01*
G01X104Y7438D01*
G01X107Y7429D01*
G01X111Y7420D01*
G01X114Y7411D01*
G01X119Y7402D01*
G01X123Y7394D01*
G01X128Y7386D01*
G01X133Y7378D01*
G01X139Y7370D01*
G01X145Y7363D01*
G01X152Y7356D01*
G01X158Y7349D01*
G01X165Y7343D01*
G01X173Y7337D01*
G01X180Y7331D01*
G01X188Y7326D01*
G01X196Y7321D01*
G01X205Y7316D01*
G01X213Y7312D01*
G01X222Y7308D01*
G01X231Y7305D01*
G01X240Y7302D01*
G01X249Y7300D01*
G01X258Y7298D01*
G01X268Y7296D01*
G01X277Y7295D01*
G01X287Y7294D01*
G01X296Y7294D01*
G01X451Y7294D01*
G01X582Y7162D01*
G01X591Y7154D01*
G01X600Y7146D01*
G01X609Y7139D01*
G01X618Y7132D01*
G01X628Y7125D01*
G01X638Y7119D01*
G01X648Y7113D01*
G01X658Y7107D01*
G01X669Y7102D01*
G01X680Y7097D01*
G01X691Y7093D01*
G01X702Y7089D01*
G01X713Y7086D01*
G01X724Y7083D01*
G01X736Y7080D01*
G01X747Y7078D01*
G01X759Y7077D01*
G01X771Y7075D01*
G01X783Y7075D01*
G01X794Y7075D01*
G01X1062Y7075D01*
G01X1060Y7073D01*
G01X1054Y7069D01*
G01X1045Y7063D01*
G01X1039Y7059D01*
G01X1030Y7052D01*
G01X1024Y7047D01*
G01X1016Y7040D01*
G01X1010Y7035D01*
G01X1002Y7027D01*
G01X996Y7022D01*
G01X989Y7014D01*
G01X984Y7008D01*
G01X977Y7000D01*
G01X972Y6994D01*
G01X965Y6985D01*
G01X961Y6979D01*
G01X955Y6970D01*
G01X951Y6963D01*
G01X944Y6953D01*
G01X941Y6947D01*
G01X936Y6937D01*
G01X933Y6930D01*
G01X928Y6920D01*
G01X925Y6913D01*
G01X921Y6903D01*
G01X918Y6896D01*
G01X915Y6885D01*
G01X913Y6877D01*
G01X910Y6867D01*
G01X908Y6860D01*
G01X906Y6849D01*
G01X904Y6841D01*
G01X903Y6830D01*
G01X902Y6822D01*
G01X901Y6812D01*
G01X900Y6804D01*
G01X900Y6793D01*
G01X900Y6785D01*
G01X900Y6774D01*
G01X900Y6767D01*
G01X901Y6756D01*
G01X902Y6748D01*
G01X903Y6737D01*
G01X904Y6729D01*
G01X906Y6718D01*
G01X908Y6710D01*
G01X910Y6701D01*
G01X912Y6693D01*
G01X915Y6682D01*
G01X918Y6674D01*
G01X921Y6665D01*
G01X924Y6657D01*
G01X929Y6647D01*
G01X932Y6640D01*
G01X937Y6630D01*
G01X940Y6623D01*
G01X945Y6614D01*
G01X949Y6607D01*
G01X955Y6598D01*
G01X960Y6591D01*
G01X966Y6582D01*
G01X971Y6576D01*
G01X978Y6567D01*
G01X983Y6561D01*
G01X990Y6554D01*
G01X995Y6548D01*
G01X999Y6544D01*
G01X1437Y6106D01*
G01X1442Y6101D01*
G01X1447Y6096D01*
G01X1455Y6089D01*
G01X1461Y6084D01*
G01X1470Y6077D01*
G01X1476Y6072D01*
G01X1485Y6066D01*
G01X1491Y6062D01*
G01X1501Y6056D01*
G01X1507Y6052D01*
G01X1517Y6047D01*
G01X1524Y6043D01*
G01X1534Y6038D01*
G01X1541Y6035D01*
G01X1551Y6031D01*
G01X1558Y6028D01*
G01X1568Y6024D01*
G01X1575Y6022D01*
G01X1587Y6018D01*
G01X1594Y6016D01*
G01X1604Y6014D01*
G01X1611Y6013D01*
G01X1623Y6010D01*
G01X1630Y6009D01*
G01X1642Y6008D01*
G01X1649Y6007D01*
G01X1660Y6006D01*
G01X1668Y6006D01*
G37*
G36*
G01X10490Y7046D02*
G01X10499Y7046D01*
G01X12499Y7046D01*
G01X12509Y7046D01*
G01X12518Y7047D01*
G01X12528Y7048D01*
G01X12537Y7049D01*
G01X12547Y7051D01*
G01X12556Y7054D01*
G01X12565Y7057D01*
G01X12574Y7060D01*
G01X12583Y7064D01*
G01X12591Y7068D01*
G01X12599Y7072D01*
G01X12608Y7077D01*
G01X12615Y7083D01*
G01X12623Y7088D01*
G01X12630Y7094D01*
G01X12637Y7101D01*
G01X12644Y7108D01*
G01X12651Y7115D01*
G01X12657Y7122D01*
G01X12662Y7130D01*
G01X12668Y7137D01*
G01X12673Y7146D01*
G01X12677Y7154D01*
G01X12681Y7163D01*
G01X12685Y7171D01*
G01X12688Y7180D01*
G01X12691Y7189D01*
G01X12694Y7198D01*
G01X12696Y7208D01*
G01X12697Y7217D01*
G01X12699Y7227D01*
G01X12699Y7236D01*
G01X12699Y7246D01*
G01X12699Y8246D01*
G01X12699Y8255D01*
G01X12699Y8265D01*
G01X12697Y8274D01*
G01X12696Y8283D01*
G01X12694Y8293D01*
G01X12691Y8302D01*
G01X12688Y8311D01*
G01X12685Y8320D01*
G01X12681Y8329D01*
G01X12677Y8337D01*
G01X12673Y8346D01*
G01X12668Y8354D01*
G01X12662Y8362D01*
G01X12657Y8369D01*
G01X12651Y8377D01*
G01X12644Y8384D01*
G01X12637Y8390D01*
G01X12630Y8397D01*
G01X12623Y8403D01*
G01X12615Y8409D01*
G01X12608Y8414D01*
G01X12599Y8419D01*
G01X12591Y8423D01*
G01X12583Y8428D01*
G01X12574Y8431D01*
G01X12565Y8435D01*
G01X12556Y8438D01*
G01X12547Y8440D01*
G01X12537Y8442D01*
G01X12528Y8444D01*
G01X12518Y8445D01*
G01X12509Y8445D01*
G01X12499Y8446D01*
G01X10499Y8446D01*
G01X10490Y8445D01*
G01X10480Y8445D01*
G01X10471Y8444D01*
G01X10462Y8442D01*
G01X10452Y8440D01*
G01X10443Y8438D01*
G01X10434Y8435D01*
G01X10425Y8431D01*
G01X10416Y8428D01*
G01X10408Y8423D01*
G01X10399Y8419D01*
G01X10391Y8414D01*
G01X10383Y8409D01*
G01X10376Y8403D01*
G01X10369Y8397D01*
G01X10361Y8390D01*
G01X10355Y8384D01*
G01X10348Y8377D01*
G01X10342Y8369D01*
G01X10337Y8362D01*
G01X10331Y8354D01*
G01X10326Y8346D01*
G01X10322Y8337D01*
G01X10318Y8329D01*
G01X10314Y8320D01*
G01X10310Y8311D01*
G01X10308Y8302D01*
G01X10305Y8293D01*
G01X10303Y8283D01*
G01X10302Y8274D01*
G01X10300Y8265D01*
G01X10300Y8255D01*
G01X10299Y8246D01*
G01X10299Y7246D01*
G01X10300Y7236D01*
G01X10300Y7227D01*
G01X10302Y7217D01*
G01X10303Y7208D01*
G01X10305Y7198D01*
G01X10308Y7189D01*
G01X10310Y7180D01*
G01X10314Y7171D01*
G01X10318Y7163D01*
G01X10322Y7154D01*
G01X10326Y7146D01*
G01X10331Y7137D01*
G01X10337Y7130D01*
G01X10342Y7122D01*
G01X10348Y7115D01*
G01X10355Y7108D01*
G01X10361Y7101D01*
G01X10369Y7094D01*
G01X10376Y7088D01*
G01X10383Y7083D01*
G01X10391Y7077D01*
G01X10399Y7072D01*
G01X10408Y7068D01*
G01X10416Y7064D01*
G01X10425Y7060D01*
G01X10434Y7057D01*
G01X10443Y7054D01*
G01X10452Y7051D01*
G01X10462Y7049D01*
G01X10471Y7048D01*
G01X10480Y7047D01*
G01X10490Y7046D01*
G37*

%LPD*%
G54D11*
G01X2327Y9374D02*
G01X2327Y10071D01*
G01X2072Y10326D01*
G01X1078Y9376D02*
G01X1078Y9931D01*
G01X683Y10326D01*
G01X2327Y9374D02*
G01X2327Y9232D01*
G01X3226Y8333D01*
G01X1078Y9376D02*
G01X1078Y8921D01*
G01X1499Y8499D01*
G01X2352Y8499D01*
G01X2872Y7979D01*
G01X3934Y9040D02*
G01X4040Y9040D01*
G01X4875Y9875D01*
G01X4875Y11249D01*
G01X3580Y8686D02*
G01X3563Y8686D01*
G01X2999Y9249D01*
G01X2999Y10749D01*
G01X3500Y11249D01*
G01X9627Y11328D02*
G01X11219Y11328D01*
G01X11499Y11048D01*
G01X1813Y6919D02*
G01X1371Y7375D01*
G01X794Y7375D01*
G01X500Y7669D01*
G01X7540Y6565D02*
G01X8514Y6565D01*
G01X8750Y6330D01*
G01X7540Y5434D02*
G01X8514Y5434D01*
G01X8750Y5669D01*
G54D12*
G01X11705Y5124D02*
G01X11705Y2911D01*
G01X11168Y2375D01*
G54D11*
G01X9136Y2375D02*
G01X11168Y2375D01*
G01X2166Y4726D02*
G01X2520Y4372D01*
G01X2166Y7273D02*
G01X2520Y7627D01*
G01X1813Y5080D02*
G01X1813Y5063D01*
G01X1250Y4499D01*
G01X1250Y4125D01*
G01X1249Y4124D01*
G01X7540Y5434D02*
G01X7540Y5540D01*
G01X7999Y5999D01*
G01X7186Y5080D02*
G01X7186Y5063D01*
G01X7749Y4499D01*
G01X7749Y3249D01*
G01X6625Y2124D01*
G01X1249Y7999D02*
G01X1439Y7999D01*
G01X2166Y7273D01*
G01X749Y6000D02*
G01X894Y6000D01*
G01X1460Y5434D01*
G54D12*
G01X11168Y2375D02*
G01X11168Y2706D01*
G01X10374Y3500D01*
G01X10374Y6249D01*
G54D11*
G01X8749Y6330D02*
G01X8749Y6999D01*
G01X8999Y7249D01*
G01X4499Y5999D02*
G01X4499Y2499D01*
G01X9626Y10679D02*
G01X9626Y4874D01*
G01X9627Y4873D01*
G01X4500Y6000D02*
G01X4500Y9000D01*
G01X5499Y10000D01*
G54D12*
G01X2375Y2955D02*
G01X1630Y2955D01*
G01X999Y2325D01*
G01X1630Y2955D02*
G01X1630Y3482D01*
G01X2520Y4372D01*
G01X2375Y2955D02*
G01X3222Y2955D01*
G01X3580Y3313D01*
G01X3222Y2955D02*
G01X3222Y1152D01*
G01X3499Y875D01*
G01X750Y5999D02*
G01X499Y5749D01*
G01X499Y2825D01*
G01X999Y2325D01*
G01X8831Y851D02*
G01X3523Y851D01*
G01X3499Y875D01*
G54D11*
G01X7624Y8249D02*
G01X7624Y8874D01*
G01X6999Y9499D01*
G01X5525Y9499D01*
G01X5065Y9040D01*
G54D13*
G01X1240Y5215D02*
G01X1678Y5653D01*
G01X1593Y4861D02*
G01X2032Y5299D01*
G01X1947Y4507D02*
G01X2386Y4945D01*
G01X2301Y4153D02*
G01X2739Y4592D01*
G01X2653Y3801D02*
G01X3091Y4240D01*
G01X3007Y3447D02*
G01X3445Y3886D01*
G01X3361Y3093D02*
G01X3799Y3532D01*
G01X3715Y2740D02*
G01X4153Y3178D01*
G01X4846Y3178D02*
G01X5284Y2740D01*
G01X5200Y3532D02*
G01X5638Y3093D01*
G01X5554Y3886D02*
G01X5992Y3447D01*
G01X5908Y4240D02*
G01X6346Y3801D01*
G01X6260Y4592D02*
G01X6698Y4153D01*
G01X6613Y4945D02*
G01X7052Y4507D01*
G01X6967Y5299D02*
G01X7406Y4861D01*
G01X7321Y5653D02*
G01X7759Y5215D01*
G01X7321Y6346D02*
G01X7759Y6784D01*
G01X6967Y6700D02*
G01X7406Y7138D01*
G01X6613Y7054D02*
G01X7052Y7492D01*
G01X6260Y7407D02*
G01X6698Y7846D01*
G01X5908Y7759D02*
G01X6346Y8198D01*
G01X5554Y8113D02*
G01X5992Y8552D01*
G01X5200Y8467D02*
G01X5638Y8906D01*
G01X4846Y8821D02*
G01X5284Y9259D01*
G01X3715Y9259D02*
G01X4153Y8821D01*
G01X3361Y8906D02*
G01X3799Y8467D01*
G01X3007Y8552D02*
G01X3445Y8113D01*
G01X2653Y8198D02*
G01X3091Y7759D01*
G01X2301Y7846D02*
G01X2739Y7407D01*
G01X1947Y7492D02*
G01X2386Y7054D01*
G01X1593Y7138D02*
G01X2032Y6700D01*
G01X1240Y6784D02*
G01X1678Y6346D01*
G54D14*
G01X10418Y2374D02*
G01X11918Y2374D01*
G54D16*
G01X3500Y11249D03*
G01X4875Y11249D03*
G01X6247Y11251D03*
G01X7623Y11251D03*
G01X6625Y2124D03*
G54D17*
G01X500Y7669D03*
G01X500Y8330D03*
G36*
G01X2025Y5999D02*
G01X4499Y8474D01*
G01X6974Y5999D01*
G01X4499Y3525D01*
G01X2025Y5999D01*
G37*
G54D19*
G01X683Y10326D03*
G01X2072Y10326D03*
G01X2072Y11419D03*
G01X672Y11422D03*
G54D20*
G01X418Y9376D03*
G01X1078Y9376D03*
G01X1667Y9374D03*
G01X2327Y9374D03*
G54D17*
G01X8750Y6330D03*
G01X8750Y5669D03*
G54D21*
G01X11499Y7745D03*
G01X11499Y11047D03*
G54D17*
G01X9627Y11328D03*
G01X9627Y10668D03*
G54D22*
G01X9136Y2374D03*
G54D23*
G01X8831Y3898D03*
G01X8831Y850D03*
G54D20*
G01X11705Y5124D03*
G01X11044Y5124D03*
G54D17*
G01X2374Y2955D03*
G01X2374Y2294D03*
G54D24*
G01X999Y2325D03*
G01X999Y925D03*
G54D15*
G01X1249Y4124D03*
G01X9627Y4873D03*
G01X7999Y5999D03*
G01X7625Y8249D03*
G01X750Y5999D03*
G01X1249Y7999D03*
G01X10374Y6249D03*
G01X8999Y7249D03*
G01X3500Y875D03*
G01X4500Y2499D03*
M00*
M02*
