G04 ---------------------------- Layer name :BOTTOM SILK LAYER*
G04 EasyEDA v5.8.22, Tue, 04 Dec 2018 17:39:39 GMT*
G04 4fbf827f123344ad86e77e575569ff78*
G04 Gerber Generator version 0.2*
G04 Scale: 100 percent, Rotated: No, Reflected: No *
G04 Dimensions in millimeters *
G04 leading zeros omitted , absolute positions ,3 integer and 3 decimal *
%FSLAX33Y33*%
%MOMM*%
G90*
G71D02*

%ADD11C,0.200000*%
%ADD31C,0.177800*%

%LPD*%

%LPD*%
G36*
G01X11374Y6874D02*
G01X11374Y6874D01*
G01X11374Y6874D01*
G01X11381Y6863D01*
G01X11395Y6841D01*
G01X11414Y6807D01*
G01X11438Y6765D01*
G01X11467Y6715D01*
G01X11500Y6659D01*
G01X11535Y6598D01*
G01X11572Y6534D01*
G01X11572Y6534D01*
G01X11644Y6410D01*
G01X11703Y6307D01*
G01X11744Y6237D01*
G01X11760Y6209D01*
G01X11760Y6209D01*
G01X11750Y6206D01*
G01X11719Y6204D01*
G01X11673Y6203D01*
G01X11615Y6203D01*
G01X11465Y6205D01*
G01X11468Y5166D01*
G01X11468Y5166D01*
G01X11469Y5060D01*
G01X11469Y4957D01*
G01X11470Y4858D01*
G01X11470Y4762D01*
G01X11470Y4671D01*
G01X11471Y4586D01*
G01X11471Y4505D01*
G01X11472Y4431D01*
G01X11472Y4364D01*
G01X11473Y4304D01*
G01X11473Y4251D01*
G01X11473Y4207D01*
G01X11474Y4172D01*
G01X11474Y4146D01*
G01X11474Y4130D01*
G01X11475Y4124D01*
G01X11475Y4124D01*
G01X11484Y4127D01*
G01X11510Y4135D01*
G01X11546Y4149D01*
G01X11591Y4166D01*
G01X11591Y4166D01*
G01X11650Y4191D01*
G01X11701Y4216D01*
G01X11745Y4243D01*
G01X11783Y4272D01*
G01X11815Y4305D01*
G01X11842Y4342D01*
G01X11864Y4384D01*
G01X11882Y4432D01*
G01X11896Y4488D01*
G01X11908Y4551D01*
G01X11917Y4624D01*
G01X11924Y4707D01*
G01X11930Y4785D01*
G01X11886Y4805D01*
G01X11886Y4805D01*
G01X11838Y4832D01*
G01X11791Y4872D01*
G01X11749Y4918D01*
G01X11718Y4965D01*
G01X11718Y4965D01*
G01X11698Y5017D01*
G01X11686Y5070D01*
G01X11682Y5125D01*
G01X11687Y5179D01*
G01X11700Y5231D01*
G01X11721Y5281D01*
G01X11750Y5327D01*
G01X11787Y5368D01*
G01X11787Y5368D01*
G01X11834Y5406D01*
G01X11884Y5435D01*
G01X11937Y5455D01*
G01X11991Y5466D01*
G01X12045Y5469D01*
G01X12100Y5463D01*
G01X12152Y5448D01*
G01X12202Y5426D01*
G01X12249Y5396D01*
G01X12291Y5358D01*
G01X12328Y5312D01*
G01X12358Y5259D01*
G01X12358Y5259D01*
G01X12371Y5228D01*
G01X12379Y5199D01*
G01X12383Y5165D01*
G01X12384Y5119D01*
G01X12384Y5119D01*
G01X12383Y5071D01*
G01X12379Y5037D01*
G01X12370Y5008D01*
G01X12355Y4974D01*
G01X12355Y4974D01*
G01X12324Y4923D01*
G01X12283Y4876D01*
G01X12236Y4836D01*
G01X12186Y4807D01*
G01X12136Y4784D01*
G01X12130Y4682D01*
G01X12130Y4682D01*
G01X12125Y4605D01*
G01X12117Y4537D01*
G01X12109Y4476D01*
G01X12098Y4420D01*
G01X12085Y4370D01*
G01X12069Y4323D01*
G01X12051Y4278D01*
G01X12030Y4235D01*
G01X12030Y4235D01*
G01X12006Y4196D01*
G01X11979Y4161D01*
G01X11946Y4128D01*
G01X11907Y4097D01*
G01X11861Y4068D01*
G01X11807Y4039D01*
G01X11742Y4009D01*
G01X11667Y3978D01*
G01X11667Y3978D01*
G01X11624Y3961D01*
G01X11581Y3943D01*
G01X11544Y3927D01*
G01X11518Y3915D01*
G01X11470Y3891D01*
G01X11470Y3613D01*
G01X11470Y3335D01*
G01X11492Y3329D01*
G01X11492Y3329D01*
G01X11527Y3312D01*
G01X11568Y3282D01*
G01X11608Y3244D01*
G01X11640Y3205D01*
G01X11640Y3205D01*
G01X11672Y3148D01*
G01X11692Y3089D01*
G01X11700Y3029D01*
G01X11699Y2970D01*
G01X11687Y2912D01*
G01X11666Y2858D01*
G01X11636Y2808D01*
G01X11598Y2763D01*
G01X11552Y2725D01*
G01X11500Y2694D01*
G01X11440Y2673D01*
G01X11375Y2662D01*
G01X11375Y2662D01*
G01X11291Y2663D01*
G01X11215Y2683D01*
G01X11144Y2721D01*
G01X11080Y2778D01*
G01X11080Y2778D01*
G01X11042Y2825D01*
G01X11016Y2873D01*
G01X11000Y2926D01*
G01X10992Y2988D01*
G01X10992Y2988D01*
G01X10993Y3042D01*
G01X11001Y3093D01*
G01X11016Y3142D01*
G01X11039Y3187D01*
G01X11068Y3228D01*
G01X11103Y3265D01*
G01X11145Y3297D01*
G01X11193Y3325D01*
G01X11257Y3356D01*
G01X11251Y3644D01*
G01X11251Y3644D01*
G01X11250Y3705D01*
G01X11248Y3769D01*
G01X11247Y3832D01*
G01X11246Y3894D01*
G01X11246Y3953D01*
G01X11245Y4006D01*
G01X11245Y4052D01*
G01X11245Y4090D01*
G01X11245Y4247D01*
G01X11216Y4279D01*
G01X11216Y4279D01*
G01X11197Y4295D01*
G01X11167Y4317D01*
G01X11131Y4340D01*
G01X11091Y4362D01*
G01X11091Y4362D01*
G01X11014Y4405D01*
G01X10948Y4445D01*
G01X10890Y4483D01*
G01X10840Y4521D01*
G01X10797Y4559D01*
G01X10760Y4598D01*
G01X10727Y4640D01*
G01X10698Y4684D01*
G01X10698Y4684D01*
G01X10674Y4727D01*
G01X10653Y4775D01*
G01X10633Y4828D01*
G01X10616Y4884D01*
G01X10601Y4943D01*
G01X10590Y5005D01*
G01X10580Y5070D01*
G01X10574Y5136D01*
G01X10567Y5229D01*
G01X10475Y5229D01*
G01X10384Y5229D01*
G01X10384Y5528D01*
G01X10384Y5827D01*
G01X10684Y5824D01*
G01X10985Y5822D01*
G01X10988Y5525D01*
G01X10990Y5229D01*
G01X10883Y5229D01*
G01X10883Y5229D01*
G01X10812Y5229D01*
G01X10781Y5217D01*
G01X10777Y5175D01*
G01X10789Y5085D01*
G01X10789Y5085D01*
G01X10800Y5020D01*
G01X10813Y4960D01*
G01X10829Y4905D01*
G01X10848Y4855D01*
G01X10871Y4809D01*
G01X10898Y4766D01*
G01X10929Y4727D01*
G01X10964Y4690D01*
G01X11004Y4655D01*
G01X11049Y4623D01*
G01X11100Y4591D01*
G01X11156Y4561D01*
G01X11245Y4516D01*
G01X11245Y5364D01*
G01X11245Y6212D01*
G01X11098Y6212D01*
G01X11098Y6212D01*
G01X11041Y6212D01*
G01X10994Y6213D01*
G01X10963Y6215D01*
G01X10951Y6217D01*
G01X10951Y6217D01*
G01X10959Y6231D01*
G01X10980Y6268D01*
G01X11012Y6323D01*
G01X11053Y6392D01*
G01X11099Y6469D01*
G01X11148Y6551D01*
G01X11197Y6634D01*
G01X11243Y6711D01*
G01X11285Y6780D01*
G01X11319Y6836D01*
G01X11342Y6874D01*
G01X11352Y6889D01*
G01X11352Y6889D01*
G01X11356Y6890D01*
G01X11362Y6888D01*
G01X11368Y6883D01*
G01X11374Y6874D01*
G37*

%LPD*%
G36*
G01X11570Y9859D02*
G01X11347Y9638D01*
G01X11124Y9859D01*
G01X10901Y10081D01*
G01X10946Y10119D01*
G01X10997Y10157D01*
G01X11059Y10193D01*
G01X11125Y10224D01*
G01X11188Y10244D01*
G01X11261Y10256D01*
G01X11350Y10260D01*
G01X11438Y10256D01*
G01X11507Y10245D01*
G01X11569Y10223D01*
G01X11637Y10192D01*
G01X11700Y10155D01*
G01X11749Y10120D01*
G01X11793Y10081D01*
G01X11570Y9859D01*
G37*

%LPC*%

%LPD*%
G36*
G01X12124Y10410D02*
G01X11963Y10251D01*
G01X11907Y10298D01*
G01X11857Y10336D01*
G01X11805Y10370D01*
G01X11753Y10401D01*
G01X11698Y10427D01*
G01X11642Y10449D01*
G01X11584Y10467D01*
G01X11527Y10481D01*
G01X11468Y10491D01*
G01X11409Y10497D01*
G01X11349Y10499D01*
G01X11290Y10497D01*
G01X11231Y10491D01*
G01X11172Y10481D01*
G01X11114Y10467D01*
G01X11056Y10449D01*
G01X10999Y10427D01*
G01X10944Y10401D01*
G01X10889Y10370D01*
G01X10837Y10336D01*
G01X10786Y10298D01*
G01X10729Y10252D01*
G01X10650Y10332D01*
G01X10569Y10412D01*
G01X10620Y10456D01*
G01X10674Y10500D01*
G01X10733Y10542D01*
G01X10794Y10580D01*
G01X10858Y10615D01*
G01X10924Y10645D01*
G01X10991Y10671D01*
G01X11059Y10691D01*
G01X11126Y10707D01*
G01X11202Y10718D01*
G01X11288Y10726D01*
G01X11372Y10729D01*
G01X11440Y10727D01*
G01X11498Y10721D01*
G01X11555Y10711D01*
G01X11613Y10697D01*
G01X11670Y10681D01*
G01X11726Y10662D01*
G01X11781Y10640D01*
G01X11834Y10615D01*
G01X11887Y10588D01*
G01X11937Y10558D01*
G01X11985Y10526D01*
G01X12031Y10491D01*
G01X12075Y10455D01*
G01X12124Y10410D01*
G37*

%LPC*%

%LPD*%
G36*
G01X10465Y10622D02*
G01X10409Y10570D01*
G01X10246Y10734D01*
G01X10301Y10783D01*
G01X10357Y10830D01*
G01X10414Y10874D01*
G01X10471Y10915D01*
G01X10531Y10954D01*
G01X10591Y10989D01*
G01X10653Y11022D01*
G01X10716Y11052D01*
G01X10780Y11078D01*
G01X10845Y11103D01*
G01X10911Y11124D01*
G01X10978Y11142D01*
G01X11046Y11157D01*
G01X11096Y11165D01*
G01X11156Y11172D01*
G01X11223Y11177D01*
G01X11293Y11181D01*
G01X11363Y11183D01*
G01X11430Y11183D01*
G01X11487Y11181D01*
G01X11534Y11177D01*
G01X11590Y11168D01*
G01X11646Y11157D01*
G01X11702Y11145D01*
G01X11757Y11130D01*
G01X11812Y11114D01*
G01X11865Y11096D01*
G01X11918Y11076D01*
G01X11971Y11055D01*
G01X12021Y11031D01*
G01X12071Y11007D01*
G01X12119Y10980D01*
G01X12167Y10953D01*
G01X12212Y10924D01*
G01X12257Y10893D01*
G01X12299Y10861D01*
G01X12339Y10828D01*
G01X12363Y10808D01*
G01X12387Y10788D01*
G01X12407Y10771D01*
G01X12422Y10758D01*
G01X12449Y10736D01*
G01X12367Y10653D01*
G01X12285Y10570D01*
G01X12229Y10622D01*
G01X12186Y10659D01*
G01X12142Y10694D01*
G01X12095Y10727D01*
G01X12047Y10758D01*
G01X11998Y10788D01*
G01X11947Y10815D01*
G01X11895Y10840D01*
G01X11841Y10863D01*
G01X11786Y10883D01*
G01X11730Y10901D01*
G01X11673Y10917D01*
G01X11615Y10931D01*
G01X11555Y10942D01*
G01X11497Y10949D01*
G01X11431Y10953D01*
G01X11347Y10954D01*
G01X11264Y10953D01*
G01X11197Y10949D01*
G01X11139Y10942D01*
G01X11079Y10931D01*
G01X11021Y10917D01*
G01X10964Y10901D01*
G01X10908Y10883D01*
G01X10853Y10863D01*
G01X10800Y10840D01*
G01X10747Y10815D01*
G01X10696Y10788D01*
G01X10647Y10758D01*
G01X10599Y10727D01*
G01X10553Y10694D01*
G01X10508Y10659D01*
G01X10465Y10622D01*
G37*

%LPC*%

%LPD*%
G36*
G01X10154Y10957D02*
G01X10083Y10896D01*
G01X10004Y10974D01*
G01X9925Y11053D01*
G01X9961Y11090D01*
G01X10007Y11134D01*
G01X10061Y11180D01*
G01X10123Y11227D01*
G01X10190Y11275D01*
G01X10261Y11322D01*
G01X10334Y11366D01*
G01X10407Y11407D01*
G01X10480Y11444D01*
G01X10531Y11468D01*
G01X10582Y11490D01*
G01X10633Y11510D01*
G01X10685Y11530D01*
G01X10737Y11547D01*
G01X10788Y11563D01*
G01X10841Y11577D01*
G01X10895Y11590D01*
G01X10949Y11602D01*
G01X11004Y11612D01*
G01X11061Y11621D01*
G01X11119Y11629D01*
G01X11171Y11634D01*
G01X11233Y11637D01*
G01X11302Y11638D01*
G01X11374Y11638D01*
G01X11446Y11637D01*
G01X11514Y11634D01*
G01X11576Y11629D01*
G01X11627Y11623D01*
G01X11696Y11611D01*
G01X11763Y11598D01*
G01X11830Y11583D01*
G01X11896Y11565D01*
G01X11960Y11546D01*
G01X12024Y11524D01*
G01X12086Y11501D01*
G01X12148Y11476D01*
G01X12209Y11448D01*
G01X12268Y11418D01*
G01X12327Y11387D01*
G01X12386Y11353D01*
G01X12442Y11317D01*
G01X12499Y11279D01*
G01X12555Y11239D01*
G01X12610Y11197D01*
G01X12647Y11167D01*
G01X12682Y11136D01*
G01X12712Y11110D01*
G01X12734Y11090D01*
G01X12769Y11053D01*
G01X12690Y10974D01*
G01X12611Y10896D01*
G01X12540Y10957D01*
G01X12494Y10996D01*
G01X12448Y11033D01*
G01X12400Y11069D01*
G01X12352Y11103D01*
G01X12304Y11135D01*
G01X12254Y11165D01*
G01X12205Y11194D01*
G01X12154Y11221D01*
G01X12104Y11246D01*
G01X12052Y11269D01*
G01X12000Y11291D01*
G01X11948Y11311D01*
G01X11895Y11328D01*
G01X11841Y11345D01*
G01X11787Y11359D01*
G01X11733Y11372D01*
G01X11677Y11383D01*
G01X11622Y11392D01*
G01X11565Y11400D01*
G01X11508Y11406D01*
G01X11451Y11409D01*
G01X11392Y11412D01*
G01X11334Y11412D01*
G01X11275Y11411D01*
G01X11212Y11407D01*
G01X11150Y11402D01*
G01X11089Y11394D01*
G01X11028Y11385D01*
G01X10969Y11373D01*
G01X10910Y11360D01*
G01X10851Y11344D01*
G01X10793Y11327D01*
G01X10737Y11307D01*
G01X10681Y11286D01*
G01X10625Y11262D01*
G01X10570Y11236D01*
G01X10516Y11209D01*
G01X10462Y11179D01*
G01X10409Y11147D01*
G01X10357Y11113D01*
G01X10305Y11077D01*
G01X10254Y11039D01*
G01X10204Y10999D01*
G01X10154Y10957D01*
G37*

%LPC*%

%LPD*%
G36*
G01X11344Y7279D02*
G01X11309Y7275D01*
G01X11252Y7278D01*
G01X11194Y7284D01*
G01X11134Y7294D01*
G01X11074Y7308D01*
G01X11015Y7325D01*
G01X10957Y7345D01*
G01X10901Y7369D01*
G01X10848Y7394D01*
G01X10800Y7422D01*
G01X10754Y7453D01*
G01X10711Y7486D01*
G01X10669Y7522D01*
G01X10630Y7560D01*
G01X10594Y7601D01*
G01X10560Y7643D01*
G01X10528Y7687D01*
G01X10500Y7733D01*
G01X10474Y7781D01*
G01X10451Y7830D01*
G01X10431Y7880D01*
G01X10414Y7932D01*
G01X10399Y7984D01*
G01X10389Y8038D01*
G01X10381Y8092D01*
G01X10376Y8148D01*
G01X10375Y8180D01*
G01X10375Y8210D01*
G01X10375Y8234D01*
G01X10376Y8248D01*
G01X10383Y8262D01*
G01X10395Y8273D01*
G01X10411Y8280D01*
G01X10429Y8283D01*
G01X10435Y8276D01*
G01X10444Y8258D01*
G01X10458Y8229D01*
G01X10472Y8195D01*
G01X10496Y8141D01*
G01X10522Y8088D01*
G01X10550Y8037D01*
G01X10580Y7986D01*
G01X10612Y7936D01*
G01X10646Y7889D01*
G01X10681Y7842D01*
G01X10718Y7797D01*
G01X10757Y7753D01*
G01X10798Y7710D01*
G01X10840Y7670D01*
G01X10884Y7631D01*
G01X10930Y7593D01*
G01X10977Y7557D01*
G01X11026Y7523D01*
G01X11075Y7490D01*
G01X11127Y7460D01*
G01X11179Y7431D01*
G01X11233Y7405D01*
G01X11288Y7380D01*
G01X11323Y7364D01*
G01X11353Y7351D01*
G01X11374Y7342D01*
G01X11382Y7339D01*
G01X11382Y7336D01*
G01X11381Y7329D01*
G01X11379Y7320D01*
G01X11375Y7310D01*
G01X11363Y7289D01*
G01X11344Y7279D01*
G37*

%LPC*%

%LPD*%
G36*
G01X11734Y7395D02*
G01X11705Y7388D01*
G01X11690Y7389D01*
G01X11666Y7392D01*
G01X11637Y7397D01*
G01X11606Y7403D01*
G01X11547Y7416D01*
G01X11489Y7431D01*
G01X11432Y7449D01*
G01X11376Y7469D01*
G01X11321Y7491D01*
G01X11267Y7516D01*
G01X11214Y7543D01*
G01X11162Y7572D01*
G01X11113Y7604D01*
G01X11063Y7637D01*
G01X11016Y7672D01*
G01X10970Y7709D01*
G01X10926Y7748D01*
G01X10883Y7789D01*
G01X10843Y7831D01*
G01X10804Y7876D01*
G01X10766Y7922D01*
G01X10731Y7969D01*
G01X10697Y8018D01*
G01X10666Y8068D01*
G01X10638Y8120D01*
G01X10611Y8173D01*
G01X10586Y8228D01*
G01X10563Y8283D01*
G01X10537Y8360D01*
G01X10515Y8439D01*
G01X10497Y8516D01*
G01X10486Y8584D01*
G01X10484Y8609D01*
G01X10487Y8628D01*
G01X10497Y8650D01*
G01X10517Y8682D01*
G01X10533Y8707D01*
G01X10551Y8732D01*
G01X10567Y8754D01*
G01X10580Y8771D01*
G01X10605Y8802D01*
G01X10678Y8802D01*
G01X10751Y8803D01*
G01X10757Y8737D01*
G01X10765Y8661D01*
G01X10775Y8592D01*
G01X10788Y8526D01*
G01X10805Y8464D01*
G01X10825Y8404D01*
G01X10848Y8346D01*
G01X10876Y8287D01*
G01X10908Y8228D01*
G01X10937Y8179D01*
G01X10970Y8132D01*
G01X11005Y8086D01*
G01X11043Y8041D01*
G01X11084Y7999D01*
G01X11127Y7958D01*
G01X11171Y7919D01*
G01X11218Y7883D01*
G01X11265Y7849D01*
G01X11315Y7818D01*
G01X11365Y7790D01*
G01X11417Y7765D01*
G01X11466Y7744D01*
G01X11517Y7726D01*
G01X11571Y7709D01*
G01X11625Y7695D01*
G01X11678Y7682D01*
G01X11730Y7674D01*
G01X11777Y7668D01*
G01X11820Y7666D01*
G01X11868Y7665D01*
G01X11892Y7656D01*
G01X11901Y7632D01*
G01X11902Y7584D01*
G01X11902Y7511D01*
G01X11866Y7480D01*
G01X11821Y7446D01*
G01X11775Y7416D01*
G01X11734Y7395D01*
G37*

%LPC*%

%LPD*%
G36*
G01X12082Y7448D02*
G01X12065Y7430D01*
G01X12039Y7451D01*
G01X12021Y7469D01*
G01X12014Y7484D01*
G01X12017Y7498D01*
G01X12029Y7512D01*
G01X12072Y7558D01*
G01X12124Y7630D01*
G01X12176Y7713D01*
G01X12217Y7794D01*
G01X12234Y7838D01*
G01X12253Y7897D01*
G01X12271Y7962D01*
G01X12286Y8024D01*
G01X12297Y8106D01*
G01X12298Y8208D01*
G01X12292Y8312D01*
G01X12278Y8400D01*
G01X12264Y8456D01*
G01X12247Y8510D01*
G01X12230Y8560D01*
G01X12210Y8609D01*
G01X12187Y8655D01*
G01X12163Y8700D01*
G01X12136Y8742D01*
G01X12107Y8783D01*
G01X12075Y8823D01*
G01X12041Y8863D01*
G01X12003Y8901D01*
G01X11962Y8939D01*
G01X11913Y8980D01*
G01X11862Y9019D01*
G01X11811Y9053D01*
G01X11759Y9083D01*
G01X11706Y9109D01*
G01X11651Y9132D01*
G01X11596Y9151D01*
G01X11538Y9166D01*
G01X11479Y9179D01*
G01X11418Y9187D01*
G01X11355Y9192D01*
G01X11290Y9194D01*
G01X11230Y9192D01*
G01X11172Y9188D01*
G01X11116Y9181D01*
G01X11061Y9170D01*
G01X11008Y9157D01*
G01X10956Y9140D01*
G01X10904Y9120D01*
G01X10853Y9097D01*
G01X10803Y9070D01*
G01X10753Y9040D01*
G01X10704Y9006D01*
G01X10654Y8969D01*
G01X10576Y8908D01*
G01X10554Y8933D01*
G01X10546Y8943D01*
G01X10539Y8953D01*
G01X10534Y8961D01*
G01X10532Y8966D01*
G01X10537Y8973D01*
G01X10551Y8987D01*
G01X10571Y9004D01*
G01X10596Y9025D01*
G01X10652Y9067D01*
G01X10709Y9106D01*
G01X10768Y9140D01*
G01X10827Y9171D01*
G01X10887Y9198D01*
G01X10948Y9221D01*
G01X11009Y9240D01*
G01X11072Y9254D01*
G01X11136Y9265D01*
G01X11200Y9272D01*
G01X11265Y9275D01*
G01X11331Y9274D01*
G01X11411Y9268D01*
G01X11486Y9258D01*
G01X11558Y9244D01*
G01X11628Y9224D01*
G01X11696Y9198D01*
G01X11764Y9168D01*
G01X11831Y9132D01*
G01X11899Y9090D01*
G01X11959Y9047D01*
G01X12015Y9002D01*
G01X12068Y8951D01*
G01X12119Y8894D01*
G01X12159Y8845D01*
G01X12196Y8794D01*
G01X12229Y8742D01*
G01X12259Y8690D01*
G01X12284Y8636D01*
G01X12307Y8581D01*
G01X12327Y8524D01*
G01X12343Y8467D01*
G01X12356Y8408D01*
G01X12366Y8348D01*
G01X12372Y8286D01*
G01X12375Y8223D01*
G01X12374Y8149D01*
G01X12369Y8078D01*
G01X12361Y8008D01*
G01X12347Y7941D01*
G01X12330Y7875D01*
G01X12308Y7811D01*
G01X12282Y7748D01*
G01X12251Y7687D01*
G01X12216Y7626D01*
G01X12176Y7566D01*
G01X12131Y7507D01*
G01X12082Y7448D01*
G37*

%LPC*%

%LPD*%
G36*
G01X11903Y7780D02*
G01X11840Y7780D01*
G01X11780Y7784D01*
G01X11724Y7791D01*
G01X11659Y7804D01*
G01X11588Y7824D01*
G01X11519Y7846D01*
G01X11460Y7869D01*
G01X11403Y7898D01*
G01X11348Y7930D01*
G01X11294Y7967D01*
G01X11243Y8008D01*
G01X11194Y8052D01*
G01X11147Y8099D01*
G01X11103Y8149D01*
G01X11063Y8202D01*
G01X11026Y8258D01*
G01X10992Y8315D01*
G01X10963Y8374D01*
G01X10937Y8434D01*
G01X10920Y8484D01*
G01X10906Y8537D01*
G01X10894Y8593D01*
G01X10885Y8647D01*
G01X10879Y8701D01*
G01X10876Y8750D01*
G01X10877Y8795D01*
G01X10882Y8833D01*
G01X10895Y8874D01*
G01X10915Y8919D01*
G01X10940Y8963D01*
G01X10968Y9000D01*
G01X11005Y9034D01*
G01X11050Y9062D01*
G01X11100Y9083D01*
G01X11154Y9096D01*
G01X11209Y9102D01*
G01X11265Y9100D01*
G01X11320Y9091D01*
G01X11372Y9073D01*
G01X11417Y9049D01*
G01X11456Y9019D01*
G01X11489Y8982D01*
G01X11518Y8940D01*
G01X11536Y8903D01*
G01X11550Y8864D01*
G01X11561Y8815D01*
G01X11571Y8753D01*
G01X11583Y8693D01*
G01X11603Y8642D01*
G01X11633Y8596D01*
G01X11673Y8553D01*
G01X11719Y8518D01*
G01X11764Y8493D01*
G01X11815Y8479D01*
G01X11874Y8473D01*
G01X11913Y8472D01*
G01X11941Y8474D01*
G01X11965Y8480D01*
G01X11993Y8490D01*
G01X12014Y8499D01*
G01X12036Y8509D01*
G01X12054Y8519D01*
G01X12069Y8528D01*
G01X12095Y8546D01*
G01X12135Y8498D01*
G01X12156Y8470D01*
G01X12171Y8445D01*
G01X12182Y8413D01*
G01X12193Y8366D01*
G01X12212Y8281D01*
G01X12191Y8266D01*
G01X12132Y8234D01*
G01X12055Y8208D01*
G01X11970Y8191D01*
G01X11885Y8184D01*
G01X11827Y8187D01*
G01X11771Y8195D01*
G01X11717Y8208D01*
G01X11664Y8226D01*
G01X11614Y8248D01*
G01X11566Y8274D01*
G01X11521Y8305D01*
G01X11479Y8339D01*
G01X11441Y8377D01*
G01X11406Y8419D01*
G01X11375Y8463D01*
G01X11347Y8511D01*
G01X11324Y8561D01*
G01X11306Y8614D01*
G01X11292Y8669D01*
G01X11284Y8726D01*
G01X11277Y8768D01*
G01X11264Y8796D01*
G01X11246Y8812D01*
G01X11222Y8817D01*
G01X11189Y8808D01*
G01X11169Y8780D01*
G01X11163Y8734D01*
G01X11171Y8670D01*
G01X11189Y8598D01*
G01X11212Y8529D01*
G01X11241Y8465D01*
G01X11274Y8405D01*
G01X11312Y8349D01*
G01X11354Y8297D01*
G01X11402Y8250D01*
G01X11453Y8208D01*
G01X11510Y8171D01*
G01X11570Y8139D01*
G01X11634Y8112D01*
G01X11702Y8090D01*
G01X11752Y8080D01*
G01X11804Y8073D01*
G01X11858Y8069D01*
G01X11913Y8069D01*
G01X11968Y8073D01*
G01X12022Y8081D01*
G01X12075Y8091D01*
G01X12124Y8106D01*
G01X12132Y8106D01*
G01X12140Y8097D01*
G01X12149Y8078D01*
G01X12162Y8045D01*
G01X12185Y7979D01*
G01X12162Y7905D01*
G01X12151Y7875D01*
G01X12141Y7849D01*
G01X12132Y7828D01*
G01X12124Y7817D01*
G01X12104Y7805D01*
G01X12068Y7795D01*
G01X12020Y7787D01*
G01X11963Y7782D01*
G01X11903Y7780D01*
G37*

%LPC*%

%LPD*%
G36*
G01X11915Y8634D02*
G01X11885Y8633D01*
G01X11855Y8634D01*
G01X11834Y8637D01*
G01X11816Y8644D01*
G01X11797Y8655D01*
G01X11760Y8690D01*
G01X11736Y8735D01*
G01X11727Y8785D01*
G01X11734Y8836D01*
G01X11751Y8867D01*
G01X11780Y8898D01*
G01X11814Y8922D01*
G01X11847Y8935D01*
G01X11902Y8937D01*
G01X11951Y8924D01*
G01X11991Y8898D01*
G01X12022Y8858D01*
G01X12040Y8803D01*
G01X12036Y8747D01*
G01X12013Y8695D01*
G01X11972Y8654D01*
G01X11954Y8644D01*
G01X11936Y8637D01*
G01X11915Y8634D01*
G37*

%LPC*%

%LPD*%
G36*
G01X11479Y310D02*
G01X11419Y306D01*
G01X11359Y307D01*
G01X11300Y310D01*
G01X11241Y318D01*
G01X11182Y328D01*
G01X11124Y342D01*
G01X11067Y360D01*
G01X11011Y380D01*
G01X10957Y404D01*
G01X10903Y431D01*
G01X10851Y461D01*
G01X10801Y495D01*
G01X10752Y531D01*
G01X10706Y572D01*
G01X10661Y614D01*
G01X10610Y669D01*
G01X10564Y726D01*
G01X10523Y786D01*
G01X10486Y849D01*
G01X10454Y914D01*
G01X10426Y981D01*
G01X10403Y1051D01*
G01X10385Y1124D01*
G01X10373Y1207D01*
G01X10367Y1311D01*
G01X10367Y1416D01*
G01X10374Y1500D01*
G01X10387Y1562D01*
G01X10402Y1623D01*
G01X10422Y1683D01*
G01X10444Y1740D01*
G01X10470Y1796D01*
G01X10498Y1850D01*
G01X10530Y1902D01*
G01X10565Y1952D01*
G01X10602Y1999D01*
G01X10643Y2045D01*
G01X10686Y2087D01*
G01X10731Y2128D01*
G01X10779Y2165D01*
G01X10830Y2200D01*
G01X10882Y2232D01*
G01X10937Y2262D01*
G01X10994Y2288D01*
G01X11053Y2311D01*
G01X11114Y2331D01*
G01X11177Y2348D01*
G01X11218Y2355D01*
G01X11268Y2360D01*
G01X11326Y2364D01*
G01X11387Y2365D01*
G01X11448Y2365D01*
G01X11505Y2362D01*
G01X11556Y2358D01*
G01X11597Y2351D01*
G01X11663Y2335D01*
G01X11724Y2315D01*
G01X11785Y2292D01*
G01X11850Y2263D01*
G01X11903Y2234D01*
G01X11955Y2203D01*
G01X12006Y2168D01*
G01X12054Y2130D01*
G01X12100Y2090D01*
G01X12144Y2047D01*
G01X12184Y2001D01*
G01X12222Y1954D01*
G01X12258Y1904D01*
G01X12290Y1853D01*
G01X12317Y1800D01*
G01X12342Y1745D01*
G01X12359Y1699D01*
G01X12357Y1670D01*
G01X12330Y1648D01*
G01X12271Y1624D01*
G01X12210Y1600D01*
G01X12135Y1571D01*
G01X12051Y1539D01*
G01X11966Y1507D01*
G01X11886Y1477D01*
G01X11819Y1451D01*
G01X11769Y1433D01*
G01X11745Y1424D01*
G01X11727Y1421D01*
G01X11711Y1426D01*
G01X11696Y1444D01*
G01X11677Y1477D01*
G01X11654Y1516D01*
G01X11630Y1548D01*
G01X11602Y1575D01*
G01X11568Y1601D01*
G01X11521Y1627D01*
G01X11473Y1644D01*
G01X11423Y1653D01*
G01X11374Y1653D01*
G01X11326Y1646D01*
G01X11279Y1632D01*
G01X11235Y1610D01*
G01X11194Y1582D01*
G01X11158Y1548D01*
G01X11128Y1507D01*
G01X11103Y1462D01*
G01X11086Y1410D01*
G01X11081Y1368D01*
G01X11082Y1316D01*
G01X11088Y1265D01*
G01X11100Y1222D01*
G01X11121Y1180D01*
G01X11147Y1141D01*
G01X11179Y1107D01*
G01X11215Y1078D01*
G01X11254Y1055D01*
G01X11297Y1038D01*
G01X11343Y1027D01*
G01X11390Y1023D01*
G01X11437Y1026D01*
G01X11480Y1034D01*
G01X11521Y1049D01*
G01X11559Y1068D01*
G01X11594Y1094D01*
G01X11626Y1126D01*
G01X11655Y1163D01*
G01X11681Y1205D01*
G01X11692Y1226D01*
G01X11702Y1241D01*
G01X11716Y1248D01*
G01X11737Y1248D01*
G01X11771Y1240D01*
G01X11822Y1223D01*
G01X11892Y1197D01*
G01X11988Y1160D01*
G01X12053Y1135D01*
G01X12123Y1108D01*
G01X12189Y1084D01*
G01X12243Y1063D01*
G01X12317Y1033D01*
G01X12354Y1010D01*
G01X12362Y985D01*
G01X12350Y947D01*
G01X12324Y886D01*
G01X12293Y828D01*
G01X12257Y770D01*
G01X12216Y714D01*
G01X12172Y660D01*
G01X12123Y609D01*
G01X12071Y561D01*
G01X12017Y516D01*
G01X11959Y475D01*
G01X11900Y438D01*
G01X11839Y406D01*
G01X11777Y379D01*
G01X11719Y358D01*
G01X11659Y340D01*
G01X11600Y327D01*
G01X11540Y316D01*
G01X11479Y310D01*
G37*

%LPC*%
G36*
G01X11294Y398D02*
G01X11394Y395D01*
G01X11494Y398D01*
G01X11572Y407D01*
G01X11631Y422D01*
G01X11689Y440D01*
G01X11744Y461D01*
G01X11799Y486D01*
G01X11851Y513D01*
G01X11902Y544D01*
G01X11950Y577D01*
G01X11996Y613D01*
G01X12040Y652D01*
G01X12081Y694D01*
G01X12119Y738D01*
G01X12155Y785D01*
G01X12194Y844D01*
G01X12227Y900D01*
G01X12247Y944D01*
G01X12250Y966D01*
G01X12239Y971D01*
G01X12213Y982D01*
G01X12177Y996D01*
G01X12134Y1012D01*
G01X12093Y1028D01*
G01X12043Y1046D01*
G01X11987Y1068D01*
G01X11930Y1090D01*
G01X11875Y1110D01*
G01X11826Y1129D01*
G01X11788Y1144D01*
G01X11764Y1153D01*
G01X11757Y1153D01*
G01X11750Y1150D01*
G01X11742Y1141D01*
G01X11732Y1127D01*
G01X11702Y1084D01*
G01X11667Y1046D01*
G01X11629Y1014D01*
G01X11587Y987D01*
G01X11542Y966D01*
G01X11495Y950D01*
G01X11446Y941D01*
G01X11395Y937D01*
G01X11343Y940D01*
G01X11297Y948D01*
G01X11251Y963D01*
G01X11202Y986D01*
G01X11140Y1028D01*
G01X11085Y1085D01*
G01X11039Y1151D01*
G01X11008Y1221D01*
G01X10998Y1277D01*
G01X10996Y1344D01*
G01X11000Y1412D01*
G01X11012Y1465D01*
G01X11037Y1521D01*
G01X11069Y1572D01*
G01X11106Y1616D01*
G01X11149Y1655D01*
G01X11195Y1686D01*
G01X11246Y1710D01*
G01X11299Y1728D01*
G01X11354Y1738D01*
G01X11410Y1740D01*
G01X11467Y1733D01*
G01X11522Y1719D01*
G01X11577Y1695D01*
G01X11619Y1668D01*
G01X11662Y1634D01*
G01X11698Y1596D01*
G01X11725Y1559D01*
G01X11734Y1544D01*
G01X11743Y1533D01*
G01X11750Y1525D01*
G01X11755Y1521D01*
G01X11771Y1527D01*
G01X11809Y1540D01*
G01X11864Y1561D01*
G01X11930Y1586D01*
G01X12001Y1613D01*
G01X12072Y1640D01*
G01X12133Y1663D01*
G01X12176Y1679D01*
G01X12229Y1699D01*
G01X12249Y1717D01*
G01X12242Y1748D01*
G01X12210Y1804D01*
G01X12173Y1864D01*
G01X12132Y1921D01*
G01X12088Y1974D01*
G01X12040Y2023D01*
G01X11989Y2069D01*
G01X11936Y2110D01*
G01X11880Y2147D01*
G01X11821Y2180D01*
G01X11759Y2209D01*
G01X11696Y2234D01*
G01X11630Y2253D01*
G01X11562Y2269D01*
G01X11487Y2277D01*
G01X11394Y2280D01*
G01X11301Y2278D01*
G01X11229Y2270D01*
G01X11165Y2256D01*
G01X11103Y2237D01*
G01X11043Y2215D01*
G01X10986Y2190D01*
G01X10930Y2161D01*
G01X10876Y2129D01*
G01X10825Y2093D01*
G01X10777Y2054D01*
G01X10732Y2012D01*
G01X10689Y1968D01*
G01X10649Y1920D01*
G01X10612Y1870D01*
G01X10579Y1818D01*
G01X10549Y1762D01*
G01X10523Y1705D01*
G01X10500Y1645D01*
G01X10487Y1603D01*
G01X10474Y1555D01*
G01X10463Y1508D01*
G01X10456Y1467D01*
G01X10455Y1448D01*
G01X10454Y1413D01*
G01X10454Y1366D01*
G01X10455Y1313D01*
G01X10457Y1243D01*
G01X10460Y1193D01*
G01X10466Y1153D01*
G01X10475Y1112D01*
G01X10495Y1045D01*
G01X10519Y980D01*
G01X10547Y918D01*
G01X10578Y860D01*
G01X10613Y803D01*
G01X10652Y750D01*
G01X10694Y701D01*
G01X10740Y654D01*
G01X10789Y611D01*
G01X10841Y571D01*
G01X10897Y534D01*
G01X10955Y502D01*
G01X11016Y472D01*
G01X11081Y447D01*
G01X11148Y425D01*
G01X11218Y407D01*
G01X11294Y398D01*
G37*

%LPD*%
G54D11*
G01X9751Y11999D02*
G01X9751Y1D01*
G01X12999Y11999D02*
G01X12999Y0D01*
G01X9749Y11999D02*
G01X12999Y11999D01*
G01X9749Y0D02*
G01X12999Y0D01*
G54D31*
G01X11514Y6374D02*
G01X11514Y6367D01*
G01X11515Y6366D01*
G01X11515Y6365D01*
G01X11516Y6365D01*
G01X11517Y6365D01*
G01X11518Y6365D01*
G01X11518Y6366D01*
G01X11519Y6367D01*
G01X11519Y6368D01*
G01X11511Y6374D02*
G01X11511Y6365D01*
G01X11511Y6374D02*
G01X11507Y6374D01*
G01X11506Y6374D01*
G01X11505Y6374D01*
G01X11505Y6373D01*
G01X11505Y6371D01*
G01X11505Y6370D01*
G01X11506Y6370D01*
G01X11507Y6369D01*
G01X11511Y6369D01*
G01X11502Y6373D02*
G01X11501Y6373D01*
G01X11499Y6374D01*
G01X11499Y6365D01*
M00*
M02*
