G04 ---------------------------- Layer name :TOP SOLDER LAYER*
G04 EasyEDA v5.8.22, Tue, 04 Dec 2018 17:39:39 GMT*
G04 4fbf827f123344ad86e77e575569ff78*
G04 Gerber Generator version 0.2*
G04 Scale: 100 percent, Rotated: No, Reflected: No *
G04 Dimensions in millimeters *
G04 leading zeros omitted , absolute positions ,3 integer and 3 decimal *
%FSLAX33Y33*%
%MOMM*%
G90*
G71D02*

%ADD33C,0.483210*%
%ADD34C,2.203196*%
%ADD35C,1.203198*%
%ADD36R,0.609600X0.553720*%
%ADD38R,1.103198X1.003198*%
%ADD39R,0.553720X0.609600*%
%ADD40R,2.203196X1.203198*%
%ADD41R,2.108200X1.193800*%
%ADD42R,1.397000X1.193800*%
%ADD43R,1.303198X1.203198*%

%LPD*%
G54D33*
G01X1240Y5215D02*
G01X1678Y5653D01*
G01X1593Y4861D02*
G01X2032Y5299D01*
G01X1947Y4507D02*
G01X2386Y4945D01*
G01X2301Y4153D02*
G01X2739Y4592D01*
G01X2653Y3801D02*
G01X3091Y4240D01*
G01X3007Y3447D02*
G01X3445Y3886D01*
G01X3361Y3093D02*
G01X3799Y3532D01*
G01X3715Y2740D02*
G01X4153Y3178D01*
G01X4846Y3178D02*
G01X5284Y2740D01*
G01X5200Y3532D02*
G01X5638Y3093D01*
G01X5554Y3886D02*
G01X5992Y3447D01*
G01X5908Y4240D02*
G01X6346Y3801D01*
G01X6260Y4592D02*
G01X6698Y4153D01*
G01X6613Y4945D02*
G01X7052Y4507D01*
G01X6967Y5299D02*
G01X7406Y4861D01*
G01X7321Y5653D02*
G01X7759Y5215D01*
G01X7321Y6346D02*
G01X7759Y6784D01*
G01X6967Y6700D02*
G01X7406Y7138D01*
G01X6613Y7054D02*
G01X7052Y7492D01*
G01X6260Y7407D02*
G01X6698Y7846D01*
G01X5908Y7759D02*
G01X6346Y8198D01*
G01X5554Y8113D02*
G01X5992Y8552D01*
G01X5200Y8467D02*
G01X5638Y8906D01*
G01X4846Y8821D02*
G01X5284Y9259D01*
G01X3715Y9259D02*
G01X4153Y8821D01*
G01X3361Y8906D02*
G01X3799Y8467D01*
G01X3007Y8552D02*
G01X3445Y8113D01*
G01X2653Y8198D02*
G01X3091Y7759D01*
G01X2301Y7846D02*
G01X2739Y7407D01*
G01X1947Y7492D02*
G01X2386Y7054D01*
G01X1593Y7138D02*
G01X2032Y6700D01*
G01X1240Y6784D02*
G01X1678Y6346D01*
G54D34*
G01X10418Y2374D02*
G01X11918Y2374D01*
G54D35*
G01X3500Y11249D03*
G01X4875Y11249D03*
G01X6247Y11251D03*
G01X7623Y11251D03*
G01X6625Y2124D03*
G54D36*
G01X500Y7669D03*
G01X500Y8330D03*
G36*
G01X2025Y5999D02*
G01X4499Y8474D01*
G01X6974Y5999D01*
G01X4499Y3525D01*
G01X2025Y5999D01*
G37*
G54D38*
G01X683Y10326D03*
G01X2072Y10326D03*
G01X2072Y11419D03*
G01X672Y11422D03*
G54D39*
G01X418Y9376D03*
G01X1078Y9376D03*
G01X1667Y9374D03*
G01X2327Y9374D03*
G54D36*
G01X8750Y6330D03*
G01X8750Y5669D03*
G54D40*
G01X11499Y7745D03*
G01X11499Y11047D03*
G54D36*
G01X9627Y11328D03*
G01X9627Y10668D03*
G54D41*
G01X9136Y2374D03*
G54D42*
G01X8831Y3898D03*
G01X8831Y850D03*
G54D39*
G01X11705Y5124D03*
G01X11044Y5124D03*
G54D36*
G01X2374Y2955D03*
G01X2374Y2294D03*
G54D43*
G01X999Y2325D03*
G01X999Y925D03*
M00*
M02*
