G04 ---------------------------- Layer name :BOTTOM LAYER*
G04 EasyEDA v5.8.22, Tue, 04 Dec 2018 17:39:39 GMT*
G04 4fbf827f123344ad86e77e575569ff78*
G04 Gerber Generator version 0.2*
G04 Scale: 100 percent, Rotated: No, Reflected: No *
G04 Dimensions in millimeters *
G04 leading zeros omitted , absolute positions ,3 integer and 3 decimal *
%FSLAX33Y33*%
%MOMM*%
G90*
G71D02*

%ADD11C,0.200000*%
%ADD12C,0.399999*%
%ADD15C,0.619760*%
%ADD25R,7.500620X1.501140*%
%ADD26R,6.499860X1.000760*%

%LPD*%
G36*
G01X12999Y0D02*
G01X0Y0D01*
G01X0Y11999D01*
G01X12999Y11999D01*
G01X12999Y0D01*
G37*

%LPC*%
G36*
G01X3429Y313D02*
G01X3485Y308D01*
G01X3542Y310D01*
G01X3598Y317D01*
G01X3653Y329D01*
G01X3707Y347D01*
G01X3758Y370D01*
G01X3807Y399D01*
G01X3837Y421D01*
G01X9124Y421D01*
G01X9139Y421D01*
G01X9153Y421D01*
G01X9167Y423D01*
G01X9181Y424D01*
G01X9195Y426D01*
G01X9210Y429D01*
G01X9223Y431D01*
G01X9237Y435D01*
G01X9251Y439D01*
G01X9265Y443D01*
G01X9278Y447D01*
G01X9292Y452D01*
G01X9305Y458D01*
G01X9318Y464D01*
G01X9331Y470D01*
G01X9343Y477D01*
G01X9356Y484D01*
G01X9368Y491D01*
G01X9380Y499D01*
G01X9391Y507D01*
G01X9403Y516D01*
G01X9414Y525D01*
G01X9425Y534D01*
G01X9435Y544D01*
G01X9445Y553D01*
G01X10696Y1803D01*
G01X10705Y1814D01*
G01X10715Y1824D01*
G01X10724Y1835D01*
G01X10733Y1846D01*
G01X10742Y1858D01*
G01X10750Y1869D01*
G01X10758Y1881D01*
G01X10765Y1893D01*
G01X10772Y1906D01*
G01X10779Y1918D01*
G01X10785Y1931D01*
G01X10791Y1944D01*
G01X10797Y1957D01*
G01X10802Y1971D01*
G01X10806Y1984D01*
G01X10810Y1998D01*
G01X10814Y2012D01*
G01X10818Y2025D01*
G01X10820Y2039D01*
G01X10823Y2053D01*
G01X10825Y2068D01*
G01X10826Y2082D01*
G01X10828Y2096D01*
G01X10828Y2110D01*
G01X10828Y2124D01*
G01X10828Y5249D01*
G01X10828Y5264D01*
G01X10828Y5278D01*
G01X10826Y5292D01*
G01X10825Y5306D01*
G01X10823Y5320D01*
G01X10820Y5335D01*
G01X10818Y5349D01*
G01X10814Y5362D01*
G01X10810Y5376D01*
G01X10806Y5390D01*
G01X10802Y5403D01*
G01X10797Y5417D01*
G01X10791Y5430D01*
G01X10785Y5443D01*
G01X10779Y5456D01*
G01X10772Y5468D01*
G01X10765Y5481D01*
G01X10758Y5493D01*
G01X10750Y5505D01*
G01X10742Y5516D01*
G01X10733Y5528D01*
G01X10724Y5539D01*
G01X10715Y5550D01*
G01X10705Y5560D01*
G01X10696Y5571D01*
G01X10553Y5713D01*
G01X10581Y5722D01*
G01X10633Y5745D01*
G01X10682Y5774D01*
G01X10728Y5807D01*
G01X10770Y5844D01*
G01X10808Y5885D01*
G01X10842Y5930D01*
G01X10872Y5979D01*
G01X10896Y6029D01*
G01X10916Y6082D01*
G01X10930Y6137D01*
G01X10938Y6193D01*
G01X10941Y6249D01*
G01X10938Y6306D01*
G01X10930Y6362D01*
G01X10916Y6416D01*
G01X10896Y6469D01*
G01X10872Y6520D01*
G01X10842Y6568D01*
G01X10828Y6587D01*
G01X10828Y7875D01*
G01X10828Y7889D01*
G01X10827Y7903D01*
G01X10826Y7917D01*
G01X10825Y7931D01*
G01X10823Y7946D01*
G01X10820Y7960D01*
G01X10817Y7974D01*
G01X10814Y7987D01*
G01X10810Y8001D01*
G01X10806Y8015D01*
G01X10802Y8028D01*
G01X10797Y8042D01*
G01X10791Y8055D01*
G01X10785Y8068D01*
G01X10779Y8081D01*
G01X10772Y8093D01*
G01X10765Y8106D01*
G01X10758Y8118D01*
G01X10750Y8130D01*
G01X10742Y8141D01*
G01X10733Y8153D01*
G01X10724Y8164D01*
G01X10715Y8175D01*
G01X10705Y8185D01*
G01X10695Y8196D01*
G01X9065Y9826D01*
G01X9055Y9836D01*
G01X9044Y9845D01*
G01X9034Y9854D01*
G01X9023Y9863D01*
G01X9011Y9872D01*
G01X8999Y9880D01*
G01X8988Y9888D01*
G01X8975Y9895D01*
G01X8963Y9903D01*
G01X8950Y9909D01*
G01X8938Y9915D01*
G01X8925Y9921D01*
G01X8911Y9927D01*
G01X8898Y9932D01*
G01X8885Y9936D01*
G01X8871Y9941D01*
G01X8857Y9944D01*
G01X8843Y9948D01*
G01X8829Y9951D01*
G01X8815Y9953D01*
G01X8801Y9955D01*
G01X8801Y9955D01*
G01X8801Y10255D01*
G01X8800Y10266D01*
G01X8800Y10276D01*
G01X8799Y10287D01*
G01X8797Y10297D01*
G01X8795Y10307D01*
G01X8793Y10318D01*
G01X8790Y10328D01*
G01X8787Y10338D01*
G01X8783Y10348D01*
G01X8779Y10357D01*
G01X8775Y10367D01*
G01X8770Y10376D01*
G01X8765Y10385D01*
G01X8759Y10394D01*
G01X8753Y10403D01*
G01X8747Y10411D01*
G01X8740Y10419D01*
G01X8733Y10427D01*
G01X8726Y10435D01*
G01X8719Y10442D01*
G01X8711Y10449D01*
G01X8703Y10456D01*
G01X8694Y10462D01*
G01X8686Y10468D01*
G01X8677Y10473D01*
G01X8667Y10479D01*
G01X8658Y10483D01*
G01X8649Y10488D01*
G01X8639Y10492D01*
G01X8629Y10495D01*
G01X8619Y10499D01*
G01X8609Y10501D01*
G01X8599Y10504D01*
G01X8588Y10506D01*
G01X8578Y10507D01*
G01X8568Y10508D01*
G01X8557Y10509D01*
G01X8547Y10509D01*
G01X1046Y10509D01*
G01X1035Y10509D01*
G01X1025Y10508D01*
G01X1015Y10507D01*
G01X1004Y10506D01*
G01X994Y10504D01*
G01X984Y10501D01*
G01X974Y10499D01*
G01X964Y10495D01*
G01X954Y10492D01*
G01X944Y10488D01*
G01X934Y10483D01*
G01X925Y10479D01*
G01X916Y10473D01*
G01X907Y10468D01*
G01X898Y10462D01*
G01X890Y10456D01*
G01X882Y10449D01*
G01X874Y10442D01*
G01X866Y10435D01*
G01X859Y10427D01*
G01X852Y10419D01*
G01X846Y10411D01*
G01X839Y10403D01*
G01X833Y10394D01*
G01X828Y10385D01*
G01X823Y10376D01*
G01X818Y10367D01*
G01X813Y10357D01*
G01X809Y10348D01*
G01X806Y10338D01*
G01X803Y10328D01*
G01X800Y10318D01*
G01X797Y10307D01*
G01X795Y10297D01*
G01X794Y10287D01*
G01X793Y10276D01*
G01X792Y10266D01*
G01X792Y10255D01*
G01X792Y8754D01*
G01X792Y8744D01*
G01X793Y8733D01*
G01X794Y8723D01*
G01X795Y8712D01*
G01X797Y8702D01*
G01X800Y8692D01*
G01X803Y8682D01*
G01X806Y8672D01*
G01X809Y8662D01*
G01X813Y8652D01*
G01X818Y8643D01*
G01X823Y8633D01*
G01X828Y8624D01*
G01X833Y8615D01*
G01X839Y8607D01*
G01X846Y8598D01*
G01X852Y8590D01*
G01X859Y8582D01*
G01X866Y8575D01*
G01X874Y8567D01*
G01X882Y8560D01*
G01X890Y8554D01*
G01X898Y8547D01*
G01X907Y8541D01*
G01X916Y8536D01*
G01X925Y8531D01*
G01X934Y8526D01*
G01X944Y8522D01*
G01X954Y8517D01*
G01X964Y8514D01*
G01X974Y8511D01*
G01X984Y8508D01*
G01X994Y8506D01*
G01X996Y8505D01*
G01X966Y8490D01*
G01X919Y8459D01*
G01X875Y8424D01*
G01X834Y8385D01*
G01X798Y8341D01*
G01X766Y8295D01*
G01X739Y8245D01*
G01X717Y8193D01*
G01X701Y8139D01*
G01X689Y8084D01*
G01X684Y8028D01*
G01X684Y7971D01*
G01X687Y7938D01*
G01X499Y7750D01*
G01X490Y7741D01*
G01X482Y7731D01*
G01X474Y7722D01*
G01X466Y7712D01*
G01X459Y7701D01*
G01X452Y7691D01*
G01X445Y7680D01*
G01X439Y7669D01*
G01X433Y7658D01*
G01X428Y7647D01*
G01X422Y7635D01*
G01X418Y7623D01*
G01X414Y7611D01*
G01X410Y7599D01*
G01X407Y7587D01*
G01X404Y7575D01*
G01X401Y7562D01*
G01X399Y7550D01*
G01X398Y7537D01*
G01X396Y7525D01*
G01X396Y7512D01*
G01X396Y7500D01*
G01X396Y6441D01*
G01X375Y6424D01*
G01X334Y6385D01*
G01X298Y6341D01*
G01X266Y6295D01*
G01X239Y6245D01*
G01X217Y6193D01*
G01X201Y6139D01*
G01X189Y6084D01*
G01X184Y6028D01*
G01X184Y5971D01*
G01X189Y5915D01*
G01X201Y5860D01*
G01X217Y5806D01*
G01X239Y5754D01*
G01X266Y5704D01*
G01X298Y5657D01*
G01X334Y5614D01*
G01X375Y5575D01*
G01X419Y5540D01*
G01X466Y5509D01*
G01X517Y5483D01*
G01X569Y5463D01*
G01X624Y5447D01*
G01X679Y5437D01*
G01X735Y5433D01*
G01X792Y5435D01*
G01X848Y5442D01*
G01X903Y5454D01*
G01X956Y5472D01*
G01X1008Y5495D01*
G01X1057Y5524D01*
G01X1103Y5557D01*
G01X1145Y5594D01*
G01X1145Y5594D01*
G01X1145Y5374D01*
G01X1146Y5362D01*
G01X1146Y5349D01*
G01X1148Y5337D01*
G01X1149Y5324D01*
G01X1151Y5312D01*
G01X1154Y5299D01*
G01X1156Y5287D01*
G01X1160Y5275D01*
G01X1164Y5263D01*
G01X1168Y5251D01*
G01X1172Y5239D01*
G01X1177Y5227D01*
G01X1183Y5216D01*
G01X1189Y5205D01*
G01X1195Y5194D01*
G01X1202Y5183D01*
G01X1209Y5173D01*
G01X1216Y5162D01*
G01X1224Y5152D01*
G01X1232Y5143D01*
G01X1240Y5133D01*
G01X1249Y5124D01*
G01X1624Y4749D01*
G01X1633Y4740D01*
G01X1643Y4732D01*
G01X1652Y4724D01*
G01X1662Y4716D01*
G01X1673Y4709D01*
G01X1683Y4702D01*
G01X1694Y4695D01*
G01X1705Y4689D01*
G01X1716Y4683D01*
G01X1727Y4677D01*
G01X1739Y4672D01*
G01X1751Y4668D01*
G01X1763Y4664D01*
G01X1775Y4660D01*
G01X1787Y4656D01*
G01X1799Y4654D01*
G01X1800Y4653D01*
G01X1800Y4509D01*
G01X1801Y4498D01*
G01X1801Y4488D01*
G01X1802Y4478D01*
G01X1691Y4478D01*
G01X1683Y4489D01*
G01X1645Y4530D01*
G01X1603Y4567D01*
G01X1557Y4600D01*
G01X1508Y4628D01*
G01X1456Y4652D01*
G01X1403Y4670D01*
G01X1348Y4682D01*
G01X1292Y4689D01*
G01X1235Y4691D01*
G01X1179Y4686D01*
G01X1123Y4677D01*
G01X1069Y4661D01*
G01X1016Y4641D01*
G01X966Y4615D01*
G01X919Y4584D01*
G01X875Y4549D01*
G01X834Y4510D01*
G01X798Y4466D01*
G01X766Y4420D01*
G01X739Y4370D01*
G01X717Y4318D01*
G01X701Y4264D01*
G01X689Y4209D01*
G01X684Y4153D01*
G01X684Y4096D01*
G01X689Y4040D01*
G01X701Y3985D01*
G01X717Y3931D01*
G01X739Y3879D01*
G01X766Y3829D01*
G01X798Y3782D01*
G01X834Y3739D01*
G01X875Y3700D01*
G01X919Y3665D01*
G01X966Y3634D01*
G01X1016Y3608D01*
G01X1069Y3588D01*
G01X1123Y3572D01*
G01X1179Y3562D01*
G01X1235Y3558D01*
G01X1292Y3560D01*
G01X1348Y3567D01*
G01X1403Y3579D01*
G01X1456Y3597D01*
G01X1508Y3620D01*
G01X1557Y3649D01*
G01X1603Y3682D01*
G01X1645Y3719D01*
G01X1683Y3760D01*
G01X1691Y3770D01*
G01X8874Y3770D01*
G01X8887Y3771D01*
G01X8900Y3771D01*
G01X8912Y3773D01*
G01X8925Y3774D01*
G01X8937Y3776D01*
G01X8950Y3779D01*
G01X8962Y3781D01*
G01X8974Y3785D01*
G01X8986Y3789D01*
G01X8998Y3793D01*
G01X9010Y3797D01*
G01X9022Y3802D01*
G01X9033Y3808D01*
G01X9044Y3814D01*
G01X9055Y3820D01*
G01X9066Y3827D01*
G01X9076Y3834D01*
G01X9087Y3841D01*
G01X9097Y3849D01*
G01X9106Y3857D01*
G01X9116Y3865D01*
G01X9125Y3874D01*
G01X9561Y4311D01*
G01X9612Y4307D01*
G01X9669Y4308D01*
G01X9725Y4315D01*
G01X9780Y4328D01*
G01X9833Y4346D01*
G01X9885Y4369D01*
G01X9920Y4389D01*
G01X9920Y2313D01*
G01X8936Y1329D01*
G01X3837Y1329D01*
G01X3807Y1350D01*
G01X3758Y1379D01*
G01X3707Y1402D01*
G01X3653Y1420D01*
G01X3598Y1432D01*
G01X3542Y1439D01*
G01X3485Y1441D01*
G01X3429Y1437D01*
G01X3374Y1427D01*
G01X3319Y1411D01*
G01X3267Y1391D01*
G01X3216Y1365D01*
G01X3169Y1334D01*
G01X3125Y1299D01*
G01X3084Y1260D01*
G01X3048Y1217D01*
G01X3016Y1170D01*
G01X2989Y1120D01*
G01X2967Y1068D01*
G01X2951Y1014D01*
G01X2940Y959D01*
G01X2934Y903D01*
G01X2934Y846D01*
G01X2940Y790D01*
G01X2951Y735D01*
G01X2967Y681D01*
G01X2989Y629D01*
G01X3016Y579D01*
G01X3048Y533D01*
G01X3084Y489D01*
G01X3125Y450D01*
G01X3169Y415D01*
G01X3216Y384D01*
G01X3267Y358D01*
G01X3319Y338D01*
G01X3374Y322D01*
G01X3429Y313D01*
G37*
G36*
G01X6671Y2119D02*
G01X6671Y1490D01*
G01X8547Y1490D01*
G01X8557Y1490D01*
G01X8568Y1491D01*
G01X8578Y1492D01*
G01X8588Y1493D01*
G01X8599Y1495D01*
G01X8609Y1497D01*
G01X8619Y1500D01*
G01X8629Y1503D01*
G01X8639Y1507D01*
G01X8649Y1511D01*
G01X8658Y1516D01*
G01X8667Y1520D01*
G01X8677Y1526D01*
G01X8686Y1531D01*
G01X8694Y1537D01*
G01X8703Y1543D01*
G01X8711Y1550D01*
G01X8719Y1557D01*
G01X8726Y1564D01*
G01X8733Y1572D01*
G01X8740Y1580D01*
G01X8747Y1588D01*
G01X8753Y1596D01*
G01X8759Y1605D01*
G01X8765Y1614D01*
G01X8770Y1623D01*
G01X8775Y1632D01*
G01X8779Y1642D01*
G01X8783Y1651D01*
G01X8787Y1661D01*
G01X8790Y1671D01*
G01X8793Y1681D01*
G01X8795Y1692D01*
G01X8797Y1702D01*
G01X8799Y1712D01*
G01X8800Y1723D01*
G01X8800Y1733D01*
G01X8801Y1744D01*
G01X8801Y2119D01*
G01X6671Y2119D01*
G37*
G36*
G01X1035Y1490D02*
G01X1046Y1490D01*
G01X2921Y1490D01*
G01X2921Y2119D01*
G01X792Y2119D01*
G01X792Y1744D01*
G01X792Y1733D01*
G01X793Y1723D01*
G01X794Y1712D01*
G01X795Y1702D01*
G01X797Y1692D01*
G01X800Y1681D01*
G01X803Y1671D01*
G01X806Y1661D01*
G01X809Y1651D01*
G01X813Y1642D01*
G01X818Y1632D01*
G01X823Y1623D01*
G01X828Y1614D01*
G01X833Y1605D01*
G01X839Y1596D01*
G01X846Y1588D01*
G01X852Y1580D01*
G01X859Y1572D01*
G01X866Y1564D01*
G01X874Y1557D01*
G01X882Y1550D01*
G01X890Y1543D01*
G01X898Y1537D01*
G01X907Y1531D01*
G01X916Y1526D01*
G01X925Y1520D01*
G01X934Y1516D01*
G01X944Y1511D01*
G01X954Y1507D01*
G01X964Y1503D01*
G01X974Y1500D01*
G01X984Y1497D01*
G01X994Y1495D01*
G01X1004Y1493D01*
G01X1015Y1492D01*
G01X1025Y1491D01*
G01X1035Y1490D01*
G37*
G36*
G01X6671Y3499D02*
G01X6671Y2870D01*
G01X8801Y2870D01*
G01X8801Y3245D01*
G01X8800Y3255D01*
G01X8800Y3266D01*
G01X8799Y3276D01*
G01X8797Y3287D01*
G01X8795Y3297D01*
G01X8793Y3307D01*
G01X8790Y3317D01*
G01X8787Y3327D01*
G01X8783Y3337D01*
G01X8779Y3347D01*
G01X8775Y3356D01*
G01X8770Y3366D01*
G01X8765Y3375D01*
G01X8759Y3384D01*
G01X8753Y3392D01*
G01X8747Y3401D01*
G01X8740Y3409D01*
G01X8733Y3417D01*
G01X8726Y3424D01*
G01X8719Y3432D01*
G01X8711Y3439D01*
G01X8703Y3445D01*
G01X8694Y3452D01*
G01X8686Y3458D01*
G01X8677Y3463D01*
G01X8667Y3468D01*
G01X8658Y3473D01*
G01X8649Y3477D01*
G01X8639Y3481D01*
G01X8629Y3485D01*
G01X8619Y3488D01*
G01X8609Y3491D01*
G01X8599Y3493D01*
G01X8588Y3495D01*
G01X8578Y3497D01*
G01X8568Y3498D01*
G01X8557Y3499D01*
G01X8547Y3499D01*
G01X6671Y3499D01*
G37*
G36*
G01X792Y3245D02*
G01X792Y2870D01*
G01X2921Y2870D01*
G01X2921Y3499D01*
G01X1046Y3499D01*
G01X1035Y3499D01*
G01X1025Y3498D01*
G01X1015Y3497D01*
G01X1004Y3495D01*
G01X994Y3493D01*
G01X984Y3491D01*
G01X974Y3488D01*
G01X964Y3485D01*
G01X954Y3481D01*
G01X944Y3477D01*
G01X934Y3473D01*
G01X925Y3468D01*
G01X916Y3463D01*
G01X907Y3458D01*
G01X898Y3452D01*
G01X890Y3445D01*
G01X882Y3439D01*
G01X874Y3432D01*
G01X866Y3424D01*
G01X859Y3417D01*
G01X852Y3409D01*
G01X846Y3401D01*
G01X839Y3392D01*
G01X833Y3384D01*
G01X828Y3375D01*
G01X823Y3366D01*
G01X818Y3356D01*
G01X813Y3347D01*
G01X809Y3337D01*
G01X806Y3327D01*
G01X803Y3317D01*
G01X800Y3307D01*
G01X797Y3297D01*
G01X795Y3287D01*
G01X794Y3276D01*
G01X793Y3266D01*
G01X792Y3255D01*
G01X792Y3245D01*
G37*

%LPD*%
G54D11*
G01X1250Y4124D02*
G01X8874Y4124D01*
G01X9623Y4873D01*
G01X9627Y4873D01*
G01X750Y5999D02*
G01X750Y7500D01*
G01X1249Y7999D01*
G54D12*
G01X4796Y9505D02*
G01X8744Y9505D01*
G01X10374Y7875D01*
G01X10374Y6249D01*
G01X9000Y7249D02*
G01X8999Y6624D01*
G01X10374Y5249D01*
G01X10374Y2124D01*
G01X9124Y875D01*
G01X3500Y875D01*
G01X3500Y875D01*
G01X5304Y6990D02*
G01X7009Y6990D01*
G01X7999Y5999D01*
G54D11*
G01X7624Y8249D02*
G01X2374Y8249D01*
G01X1499Y7374D01*
G01X1499Y5374D01*
G01X1875Y4999D01*
G01X5295Y4999D01*
G01X5304Y5009D01*
G54D25*
G01X4796Y9505D03*
G54D26*
G01X5304Y6990D03*
G54D25*
G01X4796Y2494D03*
G54D26*
G01X5304Y5009D03*
G54D15*
G01X1249Y4124D03*
G01X9627Y4873D03*
G01X7999Y5999D03*
G01X7625Y8249D03*
G01X750Y5999D03*
G01X1249Y7999D03*
G01X10374Y6249D03*
G01X8999Y7249D03*
G01X3500Y875D03*
G01X4500Y2499D03*
M00*
M02*
